<svg xmlns="http://www.w3.org/2000/svg" width="321" height="275" viewBox="0 0 321 275" version="1.1"><path d="M 112 61 L 112 82 114.250 81.985 C 116.069 81.972, 116.213 81.784, 115 81 C 113.875 80.273, 114.375 80.031, 117 80.031 C 119.625 80.031, 120.125 80.273, 119 81 C 117.730 81.821, 117.780 81.972, 119.321 81.985 C 123.617 82.021, 124 80.185, 124 59.571 L 124 40 118 40 L 112 40 112 61 M 43.231 71.559 L 39.963 74.981 53.472 88.490 C 62.051 97.069, 67.732 102, 69.036 102 C 71.688 102, 76 97.688, 76 95.036 C 76 92.011, 51.724 67.979, 48.760 68.069 C 47.517 68.107, 45.029 69.677, 43.231 71.559 M 172.250 80.570 C 164.584 88.337, 160 93.750, 160 95.036 C 160 97.688, 164.312 102, 166.964 102 C 168.268 102, 173.950 97.068, 182.530 88.488 L 196.042 74.976 192.555 71.488 C 190.494 69.427, 188.133 68.033, 186.783 68.080 C 185.242 68.134, 180.517 72.195, 172.250 80.570 M 106 95 C 106 95.550, 104.650 96, 103 96 C 101.350 96, 100 96.450, 100 97 C 100 97.550, 99.100 98, 98 98 C 96.900 98, 96 98.450, 96 99 C 96 99.550, 95.199 100, 94.221 100 C 93.242 100, 91.793 100.900, 91 102 C 90.207 103.100, 88.971 104, 88.253 104 C 87.535 104, 84.934 106.013, 82.474 108.474 C 80.013 110.934, 78 113.535, 78 114.253 C 78 114.971, 77.100 116.207, 76 117 C 74.900 117.793, 74 119.242, 74 120.221 C 74 121.199, 73.550 122, 73 122 C 72.450 122, 72 123.350, 72 125 C 72 126.650, 71.550 128, 71 128 C 70.450 128, 70 129.800, 70 132 C 70 134.200, 69.550 136, 69 136 C 68.429 136, 68 139, 68 143 C 68 147, 68.429 150, 69 150 C 69.550 150, 70 152.250, 70 155 C 70 157.750, 70.450 160, 71 160 C 71.550 160, 72 160.900, 72 162 C 72 163.100, 72.450 164, 73 164 C 73.550 164, 74 164.801, 74 165.779 C 74 166.758, 74.900 168.207, 76 169 C 77.100 169.793, 78 171.027, 78 171.742 C 78 173.563, 88.625 184, 90.478 184 C 91.315 184, 92 184.450, 92 185 C 92 185.550, 92.900 186, 94 186 C 95.100 186, 96 186.450, 96 187 C 96 187.550, 97.610 188, 99.578 188 C 102.446 188, 103.920 187.205, 107 184 C 109.114 181.800, 111.361 180, 111.993 180 C 113.653 180, 116 177.406, 116 175.571 C 116 174.707, 116.450 174, 117 174 C 117.556 174, 118 171.333, 118 168 C 118 164.667, 118.444 162, 119 162 C 119.550 162, 120 161.100, 120 160 C 120 158.900, 120.450 158, 121 158 C 121.550 158, 122 157.100, 122 156 C 122 154.900, 122.450 154, 123 154 C 123.550 154, 124 153.313, 124 152.474 C 124 150.489, 132.489 142, 134.474 142 C 135.313 142, 136 141.550, 136 141 C 136 140.450, 136.900 140, 138 140 C 139.100 140, 140 139.550, 140 139 C 140 138.450, 140.900 138, 142 138 C 143.100 138, 144 137.550, 144 137 C 144 136.394, 148.333 136, 155 136 L 166 136 166 132 C 166 129.800, 165.550 128, 165 128 C 164.450 128, 164 127.100, 164 126 C 164 124.900, 163.550 124, 163 124 C 162.450 124, 162 123.100, 162 122 C 162 120.900, 161.550 120, 161 120 C 160.450 120, 160 119.199, 160 118.221 C 160 117.242, 159.100 115.793, 158 115 C 156.900 114.207, 156 112.968, 156 112.246 C 156 110.540, 149.460 104, 147.754 104 C 147.032 104, 145.793 103.100, 145 102 C 144.207 100.900, 142.758 100, 141.779 100 C 140.801 100, 140 99.550, 140 99 C 140 98.450, 139.100 98, 138 98 C 136.900 98, 136 97.550, 136 97 C 136 96.450, 134.200 96, 132 96 C 129.800 96, 128 95.550, 128 95 C 128 94.394, 123.667 94, 117 94 C 110.333 94, 106 94.394, 106 95 M 155.750 134.706 C 156.988 134.944, 159.012 134.944, 160.250 134.706 C 161.488 134.467, 160.475 134.272, 158 134.272 C 155.525 134.272, 154.512 134.467, 155.750 134.706 M 14 144 L 14 150 34 150 L 54 150 54 144 L 54 138 34 138 L 14 138 14 144 M 19.750 151.732 C 22.087 151.943, 25.912 151.943, 28.250 151.732 C 30.587 151.522, 28.675 151.349, 24 151.349 C 19.325 151.349, 17.412 151.522, 19.750 151.732 M 53.232 199.589 L 39.965 213.018 44.474 217.526 L 48.983 222.035 62.491 208.527 C 69.921 201.097, 76 194.549, 76 193.976 C 76 192.443, 69.281 185.987, 67.783 186.080 C 67.078 186.124, 60.530 192.203, 53.232 199.589" stroke="none" fill="#fad801" fill-rule="evenodd"/><path d="M 111.229 60.750 L 111.458 82.500 111.749 61.250 L 112.040 40 118.020 40 L 124 40 124 60 C 124 72.667, 123.633 80, 123 80 C 122.450 80, 122 80.450, 122 81 C 122 81.550, 122.675 82, 123.500 82 C 124.787 82, 125 78.944, 125 60.500 L 125 39 118 39 L 111 39 111.229 60.750 M 43.488 70.013 L 38.550 75.025 53.472 89.972 C 65.873 102.393, 68.642 104.714, 69.862 103.709 C 71.110 102.681, 70.993 102.450, 69.075 102.169 C 67.781 101.978, 61.093 96.111, 53.388 88.406 L 39.958 74.976 43.445 71.488 C 45.364 69.570, 47.834 68, 48.935 68 C 50.304 68, 50.755 67.526, 50.362 66.500 C 49.494 64.240, 48.848 64.571, 43.488 70.013 M 171.674 79.825 C 158.777 92.744, 157.075 94.817, 158.437 95.948 C 159.771 97.055, 160 96.933, 160 95.113 C 160 92.256, 184.176 68, 187.024 68 C 188.147 68, 190.636 69.570, 192.555 71.488 L 196.042 74.976 182.612 88.406 C 174.907 96.111, 168.219 101.978, 166.925 102.169 C 165.007 102.450, 164.890 102.681, 166.138 103.709 C 167.358 104.714, 170.127 102.393, 182.528 89.972 L 197.450 75.025 192.512 70.013 C 189.797 67.256, 187.328 65, 187.025 65 C 186.723 65, 179.815 71.671, 171.674 79.825 M 54 70.371 C 54 70.767, 55.125 72.216, 56.500 73.591 C 57.875 74.966, 59 75.699, 59 75.220 C 59 74.741, 57.875 73.292, 56.500 72 C 55.125 70.708, 54 69.975, 54 70.371 M 62 78.416 C 62 79.471, 65.012 82.321, 65.554 81.780 C 65.806 81.527, 65.110 80.504, 64.006 79.506 C 62.903 78.507, 62 78.017, 62 78.416 M 115.250 81.080 C 116.439 81.772, 117.561 81.772, 118.750 81.080 C 120.178 80.249, 119.855 80.061, 117 80.061 C 114.145 80.061, 113.822 80.249, 115.250 81.080 M 72.215 89.366 C 73.472 90.667, 74.685 91.570, 74.911 91.372 C 75.493 90.862, 71.871 87, 70.810 87 C 70.326 87, 70.958 88.065, 72.215 89.366 M 76.030 94.450 C 76.008 96.601, 76.299 97.101, 77.104 96.296 C 77.895 95.505, 77.903 94.670, 77.134 93.346 C 76.193 91.728, 76.057 91.864, 76.030 94.450 M 114.728 93.722 C 116.503 93.943, 119.653 93.946, 121.728 93.730 C 123.802 93.513, 122.350 93.333, 118.500 93.328 C 114.650 93.324, 112.952 93.501, 114.728 93.722 M 103.500 95 C 101.592 95.820, 101.603 95.863, 103.750 95.930 C 104.987 95.968, 106 95.550, 106 95 C 106 94.450, 105.888 94.032, 105.750 94.070 C 105.612 94.109, 104.600 94.527, 103.500 95 M 128 95.173 C 128 95.628, 129.350 96, 131 96 C 132.650 96, 134 95.826, 134 95.613 C 134 95.401, 132.650 95.029, 131 94.787 C 129.350 94.545, 128 94.718, 128 95.173 M 98 97 C 96.718 97.828, 96.754 97.972, 98.250 97.985 C 99.213 97.993, 100 97.550, 100 97 C 100 95.780, 99.887 95.780, 98 97 M 136 97.031 C 136 97.564, 136.675 98, 137.500 98 C 138.325 98, 139 97.823, 139 97.607 C 139 97.391, 138.325 96.955, 137.500 96.638 C 136.675 96.322, 136 96.499, 136 97.031 M 94 99 C 92.718 99.828, 92.754 99.972, 94.250 99.985 C 95.213 99.993, 96 99.550, 96 99 C 96 97.780, 95.887 97.780, 94 99 M 88.985 102.046 C 87.618 103.096, 87.095 103.966, 87.821 103.978 C 89.216 104.001, 92.510 101.177, 91.854 100.521 C 91.643 100.310, 90.352 100.996, 88.985 102.046 M 145.357 102.500 C 146.182 103.325, 147.425 104, 148.120 104 C 148.828 104, 148.531 103.356, 147.441 102.532 C 144.894 100.605, 143.440 100.583, 145.357 102.500 M 156 111.961 C 156 113.241, 158.862 116.473, 159.462 115.869 C 159.663 115.666, 158.967 114.438, 157.914 113.139 C 156.861 111.841, 156 111.310, 156 111.961 M 76.247 114.977 C 74.530 117.725, 74.685 118.458, 76.580 116.563 C 77.450 115.693, 78.011 114.532, 77.827 113.981 C 77.644 113.431, 76.932 113.879, 76.247 114.977 M 208 117.216 C 199.208 120.306, 193.458 123.854, 187.522 129.854 C 183.344 134.077, 175.921 144.737, 174.785 148.144 C 174.611 148.667, 172.226 148.080, 169.484 146.840 C 163.777 144.259, 154.024 143.781, 147.500 145.762 C 140.718 147.821, 133.921 153.809, 130.166 161.031 C 126.952 167.211, 126.821 167.890, 127.209 176.250 C 127.564 183.875, 127.404 185, 125.968 185 C 122.603 185, 111.920 191.273, 108.395 195.318 C 99.960 204.998, 97.255 216.904, 100.825 228.640 C 103.397 237.092, 107.383 242.649, 114.244 247.346 C 124.183 254.151, 123.435 254.097, 203.648 253.777 C 274.768 253.493, 275.558 253.468, 281.233 251.305 C 293.199 246.744, 302.008 238.811, 307.541 227.612 C 315.696 211.110, 313.916 193.552, 302.514 178.020 C 298.402 172.418, 290.750 166.892, 282.443 163.525 L 276.500 161.116 274.710 154.373 C 270.535 138.645, 260.819 126.874, 246.156 119.776 C 237.768 115.716, 237.168 115.582, 226.005 115.261 C 216.050 114.976, 213.624 115.239, 208 117.216 M 160 118.333 C 160 119.250, 160.450 120, 161 120 C 161.550 120, 162 120.900, 162 122 C 162 123.100, 162.450 124, 163 124 C 163.550 124, 164 124.900, 164 126 C 164 127.100, 164.436 128, 164.969 128 C 166.091 128, 165.423 125.929, 162.711 121 C 160.268 116.560, 160 116.296, 160 118.333 M 70.697 125.393 C 70.288 126.434, 70.189 127.522, 70.476 127.810 C 71.389 128.722, 72.191 127.227, 71.809 125.328 C 71.459 123.588, 71.405 123.591, 70.697 125.393 M 68.689 132.368 C 68.257 133.945, 68.150 135.483, 68.451 135.785 C 69.494 136.828, 70.149 135.172, 69.813 132.341 L 69.476 129.500 68.689 132.368 M 165.816 133.449 C 165.533 135.876, 165.805 137, 166.676 137 C 167.574 137, 167.767 136.040, 167.331 133.750 C 166.494 129.350, 166.299 129.312, 165.816 133.449 M 155.750 134.706 C 156.988 134.944, 159.012 134.944, 160.250 134.706 C 161.488 134.467, 160.475 134.272, 158 134.272 C 155.525 134.272, 154.512 134.467, 155.750 134.706 M 144 136.861 C 144 137.335, 145.125 137.508, 146.500 137.245 C 147.875 136.982, 149 136.594, 149 136.383 C 149 136.173, 147.875 136, 146.500 136 C 145.125 136, 144 136.388, 144 136.861 M 13.002 144.250 L 13.003 151.500 34.002 151.665 L 55 151.829 55 144.415 L 55 137 34 137 L 13 137 13.002 144.250 M 14 144 L 14 150 34 150 L 54 150 54 144 L 54 138 34 138 L 14 138 14 144 M 128.182 146.618 C 125.807 149.078, 124.007 151.407, 124.182 151.795 C 124.357 152.183, 126.800 150.137, 129.611 147.250 C 132.423 144.363, 134.223 142.033, 133.611 142.072 C 133 142.112, 130.557 144.158, 128.182 146.618 M 68.070 151.750 C 68.109 152.713, 68.527 154.400, 69 155.500 C 69.689 157.104, 69.873 156.758, 69.930 153.750 C 69.968 151.688, 69.550 150, 69 150 C 68.450 150, 68.032 150.787, 68.070 151.750 M 122 155.500 C 122 156.325, 122.177 157, 122.393 157 C 122.609 157, 123.045 156.325, 123.362 155.500 C 123.678 154.675, 123.501 154, 122.969 154 C 122.436 154, 122 154.675, 122 155.500 M 120 159.500 C 120 160.325, 120.177 161, 120.393 161 C 120.609 161, 121.045 160.325, 121.362 159.500 C 121.678 158.675, 121.501 158, 120.969 158 C 120.436 158, 120 158.675, 120 159.500 M 70.638 161.500 C 70.955 162.325, 71.391 163, 71.607 163 C 71.823 163, 72 162.325, 72 161.500 C 72 160.675, 71.564 160, 71.031 160 C 70.499 160, 70.322 160.675, 70.638 161.500 M 118 165 C 118 166.650, 118.174 168, 118.387 168 C 118.599 168, 118.971 166.650, 119.213 165 C 119.455 163.350, 119.282 162, 118.827 162 C 118.372 162, 118 163.350, 118 165 M 72.638 165.500 C 72.955 166.325, 73.391 167, 73.607 167 C 73.823 167, 74 166.325, 74 165.500 C 74 164.675, 73.564 164, 73.031 164 C 72.499 164, 72.322 164.675, 72.638 165.500 M 75.703 170.407 C 76.691 171.732, 77.649 172.411, 77.830 171.916 C 78.012 171.422, 77.482 170.339, 76.652 169.509 C 74.307 167.164, 73.707 167.732, 75.703 170.407 M 82.477 178.977 C 85.173 181.714, 87.562 183.771, 87.786 183.547 C 88.294 183.039, 79.325 174, 78.314 174 C 77.908 174, 79.781 176.240, 82.477 178.977 M 116 175.571 C 116 177.403, 113.654 180, 112 180 C 110.732 180, 108 182.448, 108 183.584 C 108 183.983, 108.787 183.631, 109.750 182.801 C 110.713 181.970, 112.963 180.666, 114.750 179.901 C 117.046 178.920, 118 177.849, 118 176.256 C 118 175.015, 117.550 174, 117 174 C 116.450 174, 116 174.707, 116 175.571 M 53.237 198.263 C 45.407 206.107, 39 212.798, 39 213.131 C 39 213.937, 48.086 223, 48.895 223 C 49.728 223, 78 194.665, 78 193.829 C 78 192.881, 69.213 184, 68.274 184 C 67.834 184, 61.067 190.418, 53.237 198.263 M 89 184.469 C 89 184.727, 91.447 186.136, 94.437 187.600 C 98.188 189.437, 100.436 190.002, 101.687 189.422 C 103.107 188.763, 102.686 188.504, 99.750 188.230 C 97.688 188.037, 96 187.456, 96 186.940 C 96 186.423, 95.100 186, 94 186 C 92.900 186, 92 185.550, 92 185 C 92 184.450, 91.325 184, 90.500 184 C 89.675 184, 89 184.211, 89 184.469 M 53.232 199.589 L 39.965 213.018 44.474 217.526 L 48.983 222.035 62.491 208.527 C 69.921 201.097, 76 194.549, 76 193.976 C 76 192.443, 69.281 185.987, 67.783 186.080 C 67.078 186.124, 60.530 192.203, 53.232 199.589" stroke="none" fill="#d1d2d4" fill-rule="evenodd"/><path d="M 0 137.503 L 0 275.006 160.750 274.753 L 321.500 274.500 321.754 137.250 L 322.007 -0 161.004 -0 L 0 0 0 137.503 M 0.486 138 C 0.486 213.625, 0.605 244.563, 0.750 206.750 C 0.895 168.938, 0.895 107.063, 0.750 69.250 C 0.605 31.438, 0.486 62.375, 0.486 138 M 111 60.500 L 111 82 118 82 L 125 82 125 60.500 L 125 39 118 39 L 111 39 111 60.500 M 43.488 70.013 L 38.550 75.025 53.502 90.002 L 68.453 104.978 73.227 100.277 C 75.852 97.691, 78 95.185, 78 94.708 C 78 93.901, 49.579 65, 48.785 65 C 48.587 65, 46.203 67.256, 43.488 70.013 M 171.726 79.773 L 156.978 94.546 162.261 99.764 L 167.544 104.981 182.497 90.003 L 197.450 75.025 192.512 70.013 C 189.797 67.256, 187.328 65, 187.025 65 C 186.723 65, 179.838 71.648, 171.726 79.773 M 107.553 94.063 C 100.413 95.257, 89.267 101.137, 83.607 106.695 C 72.800 117.307, 68 128.631, 68 143.510 C 68 157.628, 72.216 168.044, 82.212 178.625 C 86.647 183.320, 97.086 190, 99.987 190 C 100.650 190, 103.132 188.293, 105.503 186.207 C 107.873 184.120, 111.601 181.543, 113.788 180.479 C 117.750 178.552, 117.765 178.522, 118.252 171.729 C 119.230 158.048, 127.867 145.654, 140.876 139.263 C 145.955 136.768, 147.538 136.500, 157.206 136.500 L 167.913 136.500 167.368 134 C 164.090 118.966, 155.213 106.836, 141.932 99.245 C 132.346 93.765, 120.241 91.940, 107.553 94.063 M 208 117.216 C 199.208 120.306, 193.458 123.854, 187.522 129.854 C 183.344 134.077, 175.921 144.737, 174.785 148.144 C 174.611 148.667, 172.226 148.080, 169.484 146.840 C 163.777 144.259, 154.024 143.781, 147.500 145.762 C 140.718 147.821, 133.921 153.809, 130.166 161.031 C 126.952 167.211, 126.821 167.890, 127.209 176.250 C 127.564 183.875, 127.404 185, 125.968 185 C 122.603 185, 111.920 191.273, 108.395 195.318 C 99.960 204.998, 97.255 216.904, 100.825 228.640 C 103.397 237.092, 107.383 242.649, 114.244 247.346 C 124.183 254.151, 123.435 254.097, 203.648 253.777 C 274.768 253.493, 275.558 253.468, 281.233 251.305 C 293.199 246.744, 302.008 238.811, 307.541 227.612 C 315.696 211.110, 313.916 193.552, 302.514 178.020 C 298.402 172.418, 290.750 166.892, 282.443 163.525 L 276.500 161.116 274.710 154.373 C 270.535 138.645, 260.819 126.874, 246.156 119.776 C 237.768 115.716, 237.168 115.582, 226.005 115.261 C 216.050 114.976, 213.624 115.239, 208 117.216 M 13 144.500 L 13 152 34 152 L 55 152 55 144.500 L 55 137 34 137 L 13 137 13 144.500 M 53.237 198.263 C 45.407 206.107, 39 212.845, 39 213.236 C 39 214.179, 47.844 223, 48.789 223 C 49.781 223, 78 194.686, 78 193.691 C 78 192.510, 69.651 184.009, 68.487 184.004 C 67.930 184.002, 61.067 190.418, 53.237 198.263" stroke="none" fill="#065aa7" fill-rule="evenodd"/></svg>