<svg xmlns="http://www.w3.org/2000/svg" width="320" height="308" viewBox="0 0 320 308" version="1.1"><path d="M 193.076 242.312 C 192.330 244.066, 190.074 247.750, 188.062 250.500 C 180.589 260.715, 178.729 264.826, 179.228 270.017 C 180.025 278.320, 186.188 283.982, 194.438 283.993 C 205.769 284.009, 213.506 271.681, 208.384 261.775 C 207.495 260.056, 204.568 255.625, 201.879 251.929 C 199.191 248.233, 196.415 243.839, 195.712 242.166 L 194.433 239.125 193.076 242.312 M 244.054 244.366 C 242.709 247.190, 240.616 250.573, 239.402 251.885 C 236.291 255.246, 231 265.818, 231 268.673 C 231 269.988, 231.625 272.560, 232.389 274.389 C 236.623 284.522, 249.345 287.523, 256.934 280.180 C 264.768 272.601, 263.787 264.403, 253.430 250.920 C 251.073 247.850, 248.549 243.965, 247.822 242.285 L 246.500 239.231 244.054 244.366 M 139.972 244.055 C 138.744 246.462, 136.051 250.696, 133.986 253.465 C 128.783 260.445, 127 264.294, 127 268.549 C 127 283.670, 146.633 290.019, 154.893 277.570 C 156.874 274.583, 157.487 272.424, 157.445 268.570 C 157.398 264.187, 156.720 262.512, 152.445 256.215 C 149.725 252.208, 146.308 246.849, 144.852 244.305 L 142.204 239.680 139.972 244.055" stroke="none" fill="#fefeff" fill-rule="evenodd"/><path d="M 110.500 13 C 110.840 13.550, 110.416 14, 109.559 14 C 108.203 14, 108 16.418, 108 32.571 C 108 53.537, 108.151 54, 115 54 C 121.831 54, 122 53.493, 122 33 C 122 18.610, 121.705 14.562, 120.571 13.429 C 118.938 11.795, 109.507 11.394, 110.500 13 M 41.250 43.540 C 39.462 45.412, 38 47.410, 38 47.981 C 38 49.339, 64.666 76, 66.024 76 C 66.598 76, 68.627 74.440, 70.533 72.533 C 72.440 70.627, 74 68.598, 74 68.024 C 74 66.485, 47.233 39.988, 45.759 40.069 C 45.067 40.107, 43.038 41.669, 41.250 43.540 M 169.250 53.571 C 161.963 60.947, 156 67.451, 156 68.025 C 156 69.381, 162.620 76, 163.976 76 C 165.337 76, 192 49.337, 192 47.976 C 192 46.443, 185.281 39.987, 183.783 40.080 C 183.077 40.124, 176.537 46.195, 169.250 53.571 M 112 67 C 112 67.550, 109.750 68, 107 68 C 104.250 68, 102 68.450, 102 69 C 102 69.550, 100.088 70.007, 97.750 70.015 C 94.638 70.027, 93.901 70.290, 95 71 C 96.213 71.784, 96.069 71.972, 94.250 71.985 C 93.013 71.993, 92 72.450, 92 73 C 92 73.550, 91.199 74, 90.221 74 C 89.242 74, 87.793 74.900, 87 76 C 86.207 77.100, 84.968 78, 84.246 78 C 82.540 78, 76 84.540, 76 86.246 C 76 86.968, 75.100 88.207, 74 89 C 72.900 89.793, 72 91.242, 72 92.221 C 72 93.199, 71.550 94, 71 94 C 70.450 94, 70 94.927, 70 96.059 C 70 97.191, 69.550 97.840, 69 97.500 C 68.405 97.132, 68 98.323, 68 100.441 C 68 102.398, 67.550 104, 67 104 C 66.389 104, 66 108.667, 66 116 C 66 123.333, 66.389 128, 67 128 C 67.550 128, 68.007 129.912, 68.015 132.250 C 68.027 135.362, 68.290 136.099, 69 135 C 69.736 133.862, 69.973 134.284, 69.985 136.750 C 69.993 138.537, 70.450 140, 71 140 C 71.550 140, 72 140.682, 72 141.516 C 72 143.492, 86.508 158, 88.484 158 C 89.318 158, 90 158.450, 90 159 C 90 159.550, 90.900 160, 92 160 C 93.100 160, 94 160.450, 94 161 C 94 161.550, 95.160 162, 96.578 162 C 98.279 162, 100.465 160.639, 103 158 C 105.114 155.800, 107.553 154, 108.422 154 C 109.290 154, 110 153.550, 110 153 C 110 152.450, 110.900 152, 112 152 C 113.785 152, 114.002 151.328, 114.015 145.750 C 114.026 141.346, 114.317 139.943, 115 141 C 115.710 142.099, 115.973 141.362, 115.985 138.250 C 115.993 135.912, 116.450 134, 117 134 C 117.550 134, 118 132.749, 118 131.221 C 118 129.589, 118.826 127.847, 120 127 C 121.100 126.207, 122 124.968, 122 124.246 C 122 122.540, 128.540 116, 130.246 116 C 130.968 116, 132.207 115.100, 133 114 C 133.889 112.766, 135.602 111.994, 137.471 111.985 C 139.794 111.973, 140.151 111.744, 139 111 C 137.917 110.300, 138.835 110.026, 142.309 110.015 C 145.257 110.006, 146.879 109.613, 146.500 109 C 146.105 108.361, 149.156 108, 154.941 108 C 160.314 108, 164 107.593, 164 107 C 164 106.450, 163.550 106, 163 106 C 162.450 106, 162 104.200, 162 102 C 162 99.800, 161.550 98, 161 98 C 160.450 98, 160 97.100, 160 96 C 160 94.900, 159.550 94, 159 94 C 158.450 94, 158 93.281, 158 92.401 C 158 91.522, 156.650 89.541, 155 88 C 153.350 86.459, 152 84.683, 152 84.053 C 152 82.477, 147.390 78, 145.766 78 C 145.038 78, 143.793 77.100, 143 76 C 142.207 74.900, 140.758 74, 139.779 74 C 138.801 74, 138 73.550, 138 73 C 138 72.450, 137.100 72, 136 72 C 134.900 72, 134 71.550, 134 71 C 134 70.450, 133.100 70, 132 70 C 130.900 70, 130 69.550, 130 69 C 130 68.450, 127.750 68, 125 68 C 122.250 68, 120 67.550, 120 67 C 120 66.450, 118.200 66, 116 66 C 113.800 66, 112 66.450, 112 67 M 11.250 111.496 C 9.549 113.428, 9.668 120.811, 11.429 122.571 C 13.517 124.660, 48.483 124.660, 50.571 122.571 C 52.419 120.724, 52.419 113.276, 50.571 111.429 C 48.491 109.348, 13.088 109.409, 11.250 111.496 M 51.250 171.647 C 39.307 183.668, 36.061 188, 39 188 C 39.550 188, 40 188.900, 40 190 C 40 191.333, 40.667 192, 42 192 C 43.100 192, 44 192.450, 44 193 C 44 195.958, 48.361 192.657, 60.530 180.488 L 74.042 166.976 70.746 163.738 C 64.486 157.588, 65.715 157.089, 51.250 171.647" stroke="none" fill="#fed403" fill-rule="evenodd"/><path d="M 108 13 C 108 13.550, 108.702 14, 109.559 14 C 110.416 14, 110.840 13.550, 110.500 13 C 110.160 12.450, 109.459 12, 108.941 12 C 108.423 12, 108 12.450, 108 13 M 120 13 C 120 13.550, 120.450 14, 121 14 C 121.550 14, 122 13.550, 122 13 C 122 12.450, 121.550 12, 121 12 C 120.450 12, 120 12.450, 120 13 M 40.488 43.013 L 35.550 48.025 50.458 62.958 C 58.658 71.172, 65.824 77.608, 66.384 77.263 C 67.010 76.876, 66.886 76.462, 66.062 76.187 C 64.175 75.558, 38 49.244, 38 47.976 C 38 46.327, 44.764 40, 46.526 40 C 47.401 40, 47.840 39.550, 47.500 39 C 46.463 37.323, 45.612 37.810, 40.488 43.013 M 179.500 42 C 177.352 44.200, 175.955 46, 176.396 46 C 176.837 46, 178.459 44.650, 180 43 C 181.541 41.350, 183.312 40, 183.935 40 C 185.357 40, 192 46.570, 192 47.976 C 192 49.244, 165.825 75.558, 163.938 76.187 C 163.114 76.462, 162.990 76.876, 163.616 77.263 C 164.176 77.608, 171.342 71.172, 179.542 62.958 L 194.450 48.025 189.512 43.013 C 186.797 40.256, 184.312 38, 183.991 38 C 183.669 38, 181.648 39.800, 179.500 42 M 50 42.371 C 50 42.767, 51.125 44.216, 52.500 45.591 C 53.875 46.966, 55 47.699, 55 47.220 C 55 46.741, 53.875 45.292, 52.500 44 C 51.125 42.708, 50 41.975, 50 42.371 M 56 48.449 C 56 48.831, 56.675 49.818, 57.500 50.643 C 58.325 51.468, 59 51.716, 59 51.194 C 59 50.672, 58.325 49.685, 57.500 49 C 56.675 48.315, 56 48.067, 56 48.449 M 170.182 51.313 C 168.432 53.118, 167 54.926, 167 55.331 C 167 55.736, 168.620 54.447, 170.600 52.467 C 172.580 50.487, 174.012 48.678, 173.782 48.448 C 173.552 48.218, 171.932 49.507, 170.182 51.313 M 108 53.500 C 108 54.690, 109.444 55, 115 55 C 120.556 55, 122 54.690, 122 53.500 C 122 52.675, 121.550 52, 121 52 C 120.450 52, 120 52.450, 120 53 C 120 53.550, 117.750 54, 115 54 C 112.250 54, 110 53.550, 110 53 C 110 52.450, 109.550 52, 109 52 C 108.450 52, 108 52.675, 108 53.500 M 162.490 59.010 C 160.915 60.655, 159.955 62, 160.358 62 C 161.389 62, 166.305 56.971, 165.783 56.450 C 165.547 56.214, 164.065 57.366, 162.490 59.010 M 66 58.371 C 66 58.767, 67.125 60.216, 68.500 61.591 C 69.875 62.966, 71 63.699, 71 63.220 C 71 62.741, 69.875 61.292, 68.500 60 C 67.125 58.708, 66 57.975, 66 58.371 M 156.048 65.442 C 155.368 66.262, 155.043 67.510, 155.327 68.216 C 155.664 69.057, 155.869 68.925, 155.921 67.833 C 155.964 66.917, 156.563 65.966, 157.250 65.720 C 157.938 65.475, 158.227 64.976, 157.893 64.613 C 157.558 64.249, 156.728 64.622, 156.048 65.442 M 105.500 67 C 102.822 67.681, 103.010 67.776, 107.250 67.882 C 109.862 67.947, 112 67.550, 112 67 C 112 65.874, 109.923 65.874, 105.500 67 M 120 67.201 C 120 67.640, 121.575 68, 123.500 68 C 125.425 68, 127 67.824, 127 67.609 C 127 67.395, 125.425 67.035, 123.500 66.810 C 121.575 66.585, 120 66.761, 120 67.201 M 97.450 69.096 C 95.910 69.699, 96.183 69.874, 98.750 69.930 C 100.537 69.968, 102 69.625, 102 69.167 C 102 68.126, 100.008 68.096, 97.450 69.096 M 130 69.031 C 130 69.564, 130.675 70, 131.500 70 C 132.325 70, 133 69.823, 133 69.607 C 133 69.391, 132.325 68.955, 131.500 68.638 C 130.675 68.322, 130 68.499, 130 69.031 M 134 71.031 C 134 71.564, 134.900 72, 136 72 C 137.100 72, 138 72.450, 138 73 C 138 73.550, 138.775 74, 139.723 74 C 141.228 74, 141.196 73.832, 139.473 72.666 C 136.555 70.693, 134 69.930, 134 71.031 M 90.508 72.309 C 86.570 74.664, 82.873 78, 84.203 78 C 84.948 78, 86.207 77.100, 87 76 C 87.793 74.900, 89.242 74, 90.221 74 C 91.199 74, 92 73.581, 92 73.070 C 92 72.558, 93.013 71.944, 94.250 71.706 C 96.154 71.339, 96.192 71.260, 94.500 71.195 C 93.400 71.152, 91.604 71.654, 90.508 72.309 M 142 74.525 C 142 75.639, 144.997 78.168, 145.916 77.830 C 146.411 77.649, 145.732 76.691, 144.407 75.703 C 143.083 74.715, 142 74.185, 142 74.525 M 152 83.910 C 152 85.192, 156.881 90.452, 157.498 89.835 C 157.706 89.628, 156.553 87.944, 154.938 86.094 C 153.322 84.243, 152 83.260, 152 83.910 M 73.703 87.593 C 71.707 90.268, 72.307 90.836, 74.652 88.491 C 75.482 87.661, 76.012 86.578, 75.830 86.084 C 75.649 85.589, 74.691 86.268, 73.703 87.593 M 204.977 90.216 C 191.928 94.785, 180.076 105.086, 174.600 116.617 L 171.761 122.594 166.631 120.093 C 162.502 118.080, 160.035 117.601, 154 117.642 C 141.413 117.727, 132.254 123.491, 126.909 134.691 C 123.984 140.819, 123.795 141.866, 124.203 149.640 C 124.586 156.941, 124.431 158, 122.980 158 C 119.605 158, 108.926 164.266, 105.395 168.318 C 99.021 175.632, 96.547 182.237, 96.522 192 C 96.503 199.249, 96.900 201.314, 99.216 206.030 C 103.337 214.421, 108.224 219.493, 115.770 223.208 L 122.456 226.500 194.946 226.776 C 244.424 226.964, 269.103 226.705, 272.688 225.961 C 280.719 224.294, 289.892 219.226, 296.134 213.006 C 318.841 190.380, 312.553 152.251, 283.844 138.492 C 279.808 136.558, 275.958 135.186, 275.288 135.443 C 274.161 135.876, 272.020 130.489, 272.006 127.185 C 271.994 124.526, 267.544 115.332, 263.416 109.440 C 258.600 102.566, 250.601 95.510, 248.851 96.592 C 248.213 96.986, 247.958 96.877, 248.284 96.349 C 248.611 95.821, 247.443 94.649, 245.689 93.745 C 237.342 89.443, 234.330 88.724, 223 88.331 C 212.952 87.982, 210.676 88.220, 204.977 90.216 M 70.638 92.500 C 70.322 93.325, 70.499 94, 71.031 94 C 71.564 94, 72 93.325, 72 92.500 C 72 91.675, 71.823 91, 71.607 91 C 71.391 91, 70.955 91.675, 70.638 92.500 M 158 92.500 C 158 93.325, 158.436 94, 158.969 94 C 159.501 94, 159.678 93.325, 159.362 92.500 C 159.045 91.675, 158.609 91, 158.393 91 C 158.177 91, 158 91.675, 158 92.500 M 160 96.500 C 160 97.325, 160.436 98, 160.969 98 C 161.501 98, 161.678 97.325, 161.362 96.500 C 161.045 95.675, 160.609 95, 160.393 95 C 160.177 95, 160 95.675, 160 96.500 M 66.697 101.393 C 66.288 102.434, 66.189 103.522, 66.476 103.810 C 67.389 104.722, 68.191 103.227, 67.809 101.328 C 67.459 99.588, 67.405 99.591, 66.697 101.393 M 162 102.833 C 162 104.575, 162.420 106, 162.934 106 C 163.447 106, 163.645 104.773, 163.373 103.273 C 162.664 99.360, 162 99.148, 162 102.833 M 65.365 116.500 C 65.368 122, 65.536 124.122, 65.738 121.216 C 65.941 118.311, 65.939 113.811, 65.734 111.216 C 65.528 108.622, 65.363 111, 65.365 116.500 M 155 108 L 145.500 108.500 155 109.102 C 164.827 109.725, 165.448 109.675, 164.854 108.313 C 164.659 107.866, 160.225 107.725, 155 108 M 10 111 C 10 111.550, 10.450 112, 11 112 C 11.550 112, 12 111.550, 12 111 C 12 110.450, 11.550 110, 11 110 C 10.450 110, 10 110.450, 10 111 M 50 111 C 50 111.550, 50.450 112, 51 112 C 51.550 112, 52 111.550, 52 111 C 52 110.450, 51.550 110, 51 110 C 50.450 110, 50 110.450, 50 111 M 139.269 110.693 C 140.242 110.947, 141.592 110.930, 142.269 110.656 C 142.946 110.382, 142.150 110.175, 140.500 110.195 C 138.850 110.215, 138.296 110.439, 139.269 110.693 M 133.211 113.538 C 131.584 115.382, 132.051 115.376, 135.636 113.506 C 137.921 112.314, 138.096 112.019, 136.500 112.044 C 135.400 112.062, 133.920 112.734, 133.211 113.538 M 125.180 119.610 C 123.355 121.520, 122.005 123.402, 122.180 123.791 C 122.356 124.181, 124.360 122.588, 126.633 120.250 C 128.906 117.912, 130.256 116.031, 129.633 116.069 C 129.010 116.107, 127.006 117.700, 125.180 119.610 M 10 123.500 C 10 124.786, 13 125, 31 125 C 49 125, 52 124.786, 52 123.500 C 52 122.675, 51.550 122, 51 122 C 50.450 122, 50 122.450, 50 123 C 50 123.632, 43 124, 31 124 C 19 124, 12 123.632, 12 123 C 12 122.450, 11.550 122, 11 122 C 10.450 122, 10 122.675, 10 123.500 M 119.250 127.559 C 118.563 128.305, 118.018 129.722, 118.040 130.708 C 118.069 132.005, 118.505 131.716, 119.618 129.662 C 121.333 126.497, 121.157 125.489, 119.250 127.559 M 66.787 131 C 67.029 132.650, 67.401 134, 67.613 134 C 67.826 134, 68 132.650, 68 131 C 68 129.350, 67.628 128, 67.173 128 C 66.718 128, 66.545 129.350, 66.787 131 M 69.158 136 C 69.158 137.375, 69.385 137.938, 69.662 137.250 C 69.940 136.563, 69.940 135.438, 69.662 134.750 C 69.385 134.063, 69.158 134.625, 69.158 136 M 116.158 136 C 116.158 137.375, 116.385 137.938, 116.662 137.250 C 116.940 136.563, 116.940 135.438, 116.662 134.750 C 116.385 134.063, 116.158 134.625, 116.158 136 M 114.320 146 C 114.320 149.575, 114.502 151.037, 114.723 149.250 C 114.945 147.463, 114.945 144.537, 114.723 142.750 C 114.502 140.963, 114.320 142.425, 114.320 146 M 75 146.768 C 75 147.820, 84.840 157.515, 85.323 156.940 C 85.526 156.698, 83.287 154.129, 80.346 151.230 C 77.406 148.332, 75 146.324, 75 146.768 M 105.211 155.538 C 103.555 157.415, 104.924 157.372, 107.441 155.468 C 108.806 154.436, 108.955 154.011, 107.941 154.038 C 107.149 154.059, 105.920 154.734, 105.211 155.538 M 68.848 161.949 L 74.119 166.899 60.569 180.449 C 48.365 192.653, 44 195.960, 44 193 C 44 192.450, 43.534 192, 42.965 192 C 42.263 192, 42.274 192.644, 43 194 C 43.589 195.100, 44.623 196, 45.298 196 C 45.973 196, 53.034 189.481, 60.988 181.512 L 75.449 167.025 70.512 162.012 C 67.797 159.256, 65.125 157, 64.576 157 C 64.026 157, 65.948 159.227, 68.848 161.949 M 87 158.393 C 87 158.609, 87.675 159.045, 88.500 159.362 C 89.325 159.678, 90 159.501, 90 158.969 C 90 158.436, 89.325 158, 88.500 158 C 87.675 158, 87 158.177, 87 158.393 M 58.490 163.010 C 56.915 164.655, 55.955 166, 56.358 166 C 57.389 166, 62.305 160.971, 61.783 160.450 C 61.547 160.214, 60.065 161.366, 58.490 163.010 M 91 160.393 C 91 160.609, 91.675 161.045, 92.500 161.362 C 93.325 161.678, 94 161.501, 94 160.969 C 94 160.436, 93.325 160, 92.500 160 C 91.675 160, 91 160.177, 91 160.393 M 95 162.393 C 95 163.342, 97.993 163.820, 98.527 162.956 C 98.852 162.430, 98.191 162, 97.059 162 C 95.927 162, 95 162.177, 95 162.393 M 50.490 171.010 C 48.915 172.655, 47.955 174, 48.358 174 C 49.389 174, 54.305 168.971, 53.783 168.450 C 53.547 168.214, 52.065 169.366, 50.490 171.010 M 40.690 180.807 C 38.110 183.426, 36 186.061, 36 186.662 C 36 188.234, 38.914 190.429, 39.774 189.506 C 40.173 189.077, 39.938 188.525, 39.250 188.280 C 36.957 187.461, 37.959 184.882, 42.125 180.880 C 44.394 178.700, 46.054 176.721, 45.815 176.481 C 45.575 176.242, 43.269 178.189, 40.690 180.807 M 141.600 238.600 C 141.244 239.527, 141.178 240.511, 141.453 240.786 C 141.728 241.061, 142.244 240.527, 142.600 239.600 C 142.956 238.673, 143.022 237.689, 142.747 237.414 C 142.472 237.139, 141.956 237.673, 141.600 238.600 M 248 242.723 C 248 243.303, 248.927 244.841, 250.059 246.139 L 252.119 248.500 250.362 245.500 C 248.050 241.552, 248 241.493, 248 242.723 M 135.090 250.750 C 132.630 254.345, 132.480 254.771, 134.470 252.500 C 137.116 249.481, 139.384 246, 138.705 246 C 138.504 246, 136.877 248.137, 135.090 250.750 M 204 255 C 205.175 256.650, 206.361 258, 206.636 258 C 206.911 258, 206.175 256.650, 205 255 C 203.825 253.350, 202.639 252, 202.364 252 C 202.089 252, 202.825 253.350, 204 255 M 152.827 256.629 C 153.392 257.658, 154.583 259.400, 155.475 260.500 C 156.980 262.356, 156.986 262.271, 155.556 259.313 C 154.708 257.561, 153.516 255.819, 152.907 255.443 C 152.115 254.953, 152.092 255.290, 152.827 256.629 M 233.967 258.553 C 232.760 260.507, 231.943 262.276, 232.152 262.486 C 232.361 262.695, 233.551 261.096, 234.796 258.933 C 237.617 254.032, 236.951 253.726, 233.967 258.553 M 181.500 259 C 180.647 260.650, 180.174 262, 180.449 262 C 180.724 262, 181.647 260.650, 182.500 259 C 183.353 257.350, 183.826 256, 183.551 256 C 183.276 256, 182.353 257.350, 181.500 259 M 259.695 260.487 C 260.610 262.406, 261.536 263.797, 261.753 263.580 C 262.210 263.123, 259.175 257, 258.490 257 C 258.239 257, 258.781 258.569, 259.695 260.487 M 126.232 269 C 126.232 270.925, 126.438 271.712, 126.689 270.750 C 126.941 269.788, 126.941 268.212, 126.689 267.250 C 126.438 266.288, 126.232 267.075, 126.232 269 M 262.232 269 C 262.232 270.925, 262.438 271.712, 262.689 270.750 C 262.941 269.788, 262.941 268.212, 262.689 267.250 C 262.438 266.288, 262.232 267.075, 262.232 269 M 178.158 269 C 178.158 270.375, 178.385 270.938, 178.662 270.250 C 178.940 269.563, 178.940 268.438, 178.662 267.750 C 178.385 267.063, 178.158 267.625, 178.158 269 M 210.158 269 C 210.158 270.375, 210.385 270.938, 210.662 270.250 C 210.940 269.563, 210.940 268.438, 210.662 267.750 C 210.385 267.063, 210.158 267.625, 210.158 269 M 208.548 274.848 C 208.199 275.947, 206.471 278.317, 204.707 280.114 C 202.057 282.814, 201.935 283.111, 204 281.826 C 206.623 280.193, 210.618 274.284, 209.711 273.378 C 209.420 273.087, 208.897 273.749, 208.548 274.848 M 129.214 277.927 C 130.002 279.261, 131.739 281.004, 133.073 281.799 L 135.500 283.246 133.280 281.373 C 132.059 280.343, 130.322 278.600, 129.420 277.500 C 127.857 275.592, 127.847 275.612, 129.214 277.927 M 181.141 277.927 C 181.969 279.261, 183.739 281.004, 185.073 281.799 C 187.473 283.230, 187.478 283.225, 185.500 281.373 C 184.400 280.343, 182.630 278.600, 181.568 277.500 C 179.646 275.511, 179.644 275.514, 181.141 277.927 M 257.099 280.250 C 255.722 282.492, 255.724 282.493, 257.858 280.595 C 260.150 278.557, 260.446 278, 259.241 278 C 258.823 278, 257.859 279.012, 257.099 280.250 M 235.083 280.283 C 235.313 280.439, 236.400 281.226, 237.500 282.033 C 239.350 283.390, 239.397 283.369, 238.128 281.750 C 237.373 280.788, 236.285 280, 235.711 280 C 235.137 280, 234.854 280.127, 235.083 280.283 M 148 283 C 147.175 283.533, 146.950 283.969, 147.500 283.969 C 148.050 283.969, 149.175 283.533, 150 283 C 150.825 282.467, 151.050 282.031, 150.500 282.031 C 149.950 282.031, 148.825 282.467, 148 283 M 192.762 284.707 C 194.006 284.946, 195.806 284.937, 196.762 284.687 C 197.718 284.437, 196.700 284.241, 194.500 284.252 C 192.300 284.263, 191.518 284.468, 192.762 284.707" stroke="none" fill="#d1d2d4" fill-rule="evenodd"/><path d="M -0 154.003 L -0 308.006 160.250 307.753 L 320.500 307.500 320.753 153.750 L 321.006 0 160.503 0 L 0 0 -0 154.003 M 0.487 154.500 C 0.487 239.200, 0.606 273.702, 0.750 231.171 C 0.894 188.641, 0.894 119.341, 0.750 77.171 C 0.606 35.002, 0.487 69.800, 0.487 154.500 M 108 33.500 L 108 55 115 55 L 122 55 122 33.500 L 122 12 115 12 L 108 12 108 33.500 M 40.488 43.013 L 35.550 48.025 50.502 63.002 L 65.453 77.978 70.227 73.277 C 72.852 70.691, 75 68.254, 75 67.861 C 75 67.097, 46.615 38, 45.869 38 C 45.625 38, 43.203 40.256, 40.488 43.013 M 169.250 52.400 C 161.412 60.309, 155 67.184, 155 67.677 C 155 68.171, 157.148 70.691, 159.773 73.277 L 164.547 77.978 179.498 63.002 L 194.450 48.025 189.512 43.013 C 186.797 40.256, 184.333 38.005, 184.038 38.010 C 183.742 38.016, 177.088 44.492, 169.250 52.400 M 102.760 67.558 C 87.616 71.228, 74.534 82.638, 68.237 97.667 C 65.190 104.939, 64.090 119.990, 66.010 128.132 C 69.469 142.799, 81.178 156.721, 95.079 162.693 C 97.357 163.672, 98.056 163.434, 101.079 160.645 C 105.037 156.993, 112.487 152, 113.979 152 C 114.540 152, 115.005 150.088, 115.012 147.750 C 115.037 138.575, 119.224 128.201, 125.650 121.391 C 130.932 115.794, 134.487 113.534, 142.040 110.970 C 147.340 109.172, 149.982 108.868, 156.750 109.278 C 161.287 109.554, 165 109.460, 165 109.071 C 165 108.682, 164.282 105.919, 163.405 102.932 C 160.761 93.931, 156.101 86.324, 149.381 80.037 C 136.512 67.999, 119.608 63.474, 102.760 67.558 M 204.977 90.216 C 191.928 94.785, 180.076 105.086, 174.600 116.617 L 171.761 122.594 166.631 120.093 C 162.502 118.080, 160.035 117.601, 154 117.642 C 141.413 117.727, 132.254 123.491, 126.909 134.691 C 123.984 140.819, 123.795 141.866, 124.203 149.640 C 124.586 156.941, 124.431 158, 122.980 158 C 119.605 158, 108.926 164.266, 105.395 168.318 C 99.021 175.632, 96.547 182.237, 96.522 192 C 96.503 199.249, 96.900 201.314, 99.216 206.030 C 103.337 214.421, 108.224 219.493, 115.770 223.208 L 122.456 226.500 194.946 226.776 C 244.424 226.964, 269.103 226.705, 272.688 225.961 C 280.719 224.294, 289.892 219.226, 296.134 213.006 C 318.717 190.504, 312.547 152.248, 284.139 138.634 C 280.265 136.777, 276.222 135.030, 275.156 134.751 C 273.771 134.389, 273.013 132.995, 272.502 129.872 C 270.258 116.154, 259.200 100.990, 246.500 94.217 C 237.629 89.485, 234.633 88.735, 223 88.331 C 212.952 87.982, 210.676 88.220, 204.977 90.216 M 10 117.500 L 10 125 31 125 L 52 125 52 117.500 L 52 110 31 110 L 10 110 10 117.500 M 50.250 171.332 C 42.412 179.144, 36 185.924, 36 186.399 C 36 187.543, 44.484 196, 45.631 196 C 46.682 196, 75 167.810, 75 166.764 C 75 165.790, 66.125 156.984, 65.224 157.064 C 64.826 157.100, 58.088 163.520, 50.250 171.332 M 141.170 239.942 C 140.514 241.823, 137.060 247.704, 133.493 253.010 C 125.625 264.716, 124.620 269.068, 128.186 276 C 135.805 290.814, 158 285.554, 158 268.934 C 158 263.680, 156.048 259.215, 150.696 252.229 C 145.800 245.839, 144.048 242.825, 143.043 239.070 C 142.367 236.542, 142.353 236.549, 141.170 239.942 M 191.783 242.902 C 190.288 245.981, 187.032 251.354, 184.547 254.842 C 178.944 262.705, 177.511 267.472, 179.043 273.158 C 181.856 283.606, 193.978 287.973, 203.701 282.041 C 207.863 279.503, 210.352 274.622, 210.352 269 C 210.352 263.762, 208.595 260.009, 201.859 250.857 C 199.170 247.203, 196.414 242.659, 195.735 240.759 L 194.500 237.303 191.783 242.902 M 245.573 239.709 C 245.208 241.244, 241.929 246.882, 238.288 252.237 C 232.573 260.641, 231.605 262.716, 231.217 267.394 C 230.856 271.751, 231.219 273.617, 233.068 276.907 C 235.605 281.421, 241.616 285.015, 246.566 284.978 C 251.228 284.943, 257.752 281.455, 259.976 277.808 C 264.613 270.206, 263.556 263.908, 255.894 253.500 C 253.061 249.650, 249.728 244.344, 248.490 241.709 C 246.266 236.980, 246.229 236.955, 245.573 239.709" stroke="none" fill="#065aa7" fill-rule="evenodd"/></svg>