<svg xmlns="http://www.w3.org/2000/svg" width="224" height="265" viewBox="0 0 224 265" version="1.1"><path d="M 100.889 42.750 C 100.828 49.213, 100.861 55.513, 100.961 56.750 C 101.061 57.987, 100.785 59, 100.347 59 C 99.909 59, 96.498 55.971, 92.767 52.269 L 85.984 45.538 80.271 51.250 L 74.559 56.963 87.779 70.314 L 101 83.666 101 100.940 C 101 116.106, 100.812 118.142, 99.455 117.621 C 98.606 117.295, 91.659 113.405, 84.019 108.976 L 70.128 100.924 68.601 95.715 C 67.761 92.850, 65.595 84.748, 63.787 77.711 C 60.567 65.179, 60.449 64.928, 58 65.500 C 49.906 67.391, 45 69.214, 45 70.329 C 45 71.030, 46.101 75.391, 47.447 80.021 C 48.793 84.651, 49.804 88.530, 49.693 88.641 C 49.582 88.752, 44.093 85.766, 37.495 82.006 C 28.472 76.863, 25.226 75.458, 24.394 76.335 C 23.786 76.976, 21.854 80.064, 20.101 83.198 L 16.912 88.897 19.206 90.332 C 20.468 91.121, 25.918 94.339, 31.318 97.482 C 36.718 100.625, 40.993 103.330, 40.818 103.494 C 40.643 103.657, 36.675 104.797, 32 106.028 C 27.325 107.258, 23.150 108.578, 22.722 108.961 C 21.372 110.167, 25.202 124, 26.885 124 C 27.709 124, 35.872 121.972, 45.024 119.493 L 61.665 114.987 76.583 123.589 C 84.787 128.321, 91.634 132.320, 91.797 132.476 C 91.960 132.632, 85.283 136.704, 76.960 141.523 L 61.826 150.286 44.264 145.592 C 34.605 143.010, 26.386 141.258, 26 141.699 C 25.264 142.538, 22 153.904, 22 155.628 C 22 156.176, 26.062 157.672, 31.027 158.952 C 35.993 160.232, 40.231 161.564, 40.446 161.912 C 40.660 162.259, 35.461 165.609, 28.892 169.355 L 16.949 176.166 20.685 183.083 C 22.740 186.887, 24.750 190, 25.153 190 C 25.555 190, 30.887 187.075, 37 183.500 C 43.113 179.925, 48.484 177, 48.935 177 C 49.386 177, 48.660 180.886, 47.322 185.636 C 45.985 190.386, 45.104 194.828, 45.365 195.508 C 45.805 196.656, 59.721 200.692, 60.399 199.869 C 60.566 199.666, 62.669 191.941, 65.072 182.703 C 67.474 173.465, 69.689 165.503, 69.993 165.011 C 70.910 163.528, 99.815 147.149, 100.430 147.764 C 100.744 148.077, 101 155.790, 101 164.904 L 101 181.474 87.491 195.009 L 73.982 208.544 79.769 214.271 L 85.556 219.998 92.501 212.999 C 96.321 209.150, 99.828 206, 100.295 206 C 100.761 206, 101.061 207.012, 100.961 208.250 C 100.861 209.487, 100.828 215.787, 100.889 222.250 L 101 234 109 234 L 117 234 117 219.775 L 117 205.550 124.267 212.769 L 131.534 219.987 137.266 214.256 L 142.997 208.524 129.975 195.475 L 116.952 182.425 117.226 164.822 L 117.500 147.218 132.489 155.861 L 147.477 164.504 152.152 181.832 C 154.724 191.363, 157.070 199.403, 157.366 199.700 C 158.467 200.800, 172.502 196.297, 172.367 194.887 C 172.293 194.124, 171.283 189.935, 170.121 185.579 C 168.959 181.222, 168.196 177.471, 168.425 177.242 C 168.653 177.014, 174.002 179.791, 180.312 183.413 C 186.621 187.036, 192.019 190, 192.306 190 C 193.319 190, 200.100 176.971, 199.550 176.081 C 199.243 175.584, 194.044 172.397, 187.996 168.998 C 181.948 165.598, 177 162.493, 177 162.096 C 177 161.699, 181.062 160.328, 186.027 159.048 C 190.993 157.768, 195.202 156.446, 195.383 156.110 C 195.563 155.775, 194.798 152.200, 193.682 148.166 C 191.898 141.715, 191.404 140.887, 189.577 141.284 C 188.435 141.532, 180.230 143.658, 171.343 146.008 L 155.187 150.281 144.843 144.190 C 139.155 140.840, 132.524 136.925, 130.110 135.490 C 127.652 134.028, 126.112 132.513, 126.610 132.046 C 127.099 131.587, 133.820 127.571, 141.544 123.121 L 155.589 115.031 172.393 119.516 C 181.635 121.982, 189.760 124, 190.448 124 C 191.793 124, 196.144 109.911, 195.113 108.896 C 194.776 108.564, 190.333 107.241, 185.240 105.956 C 180.147 104.671, 176.322 103.294, 176.740 102.897 C 177.158 102.499, 179.975 100.785, 183 99.088 C 186.025 97.391, 191.088 94.548, 194.250 92.770 C 197.412 90.993, 199.999 89.080, 199.997 88.519 C 199.995 87.720, 193.672 76.457, 192.529 75.218 C 192.298 74.967, 182.420 80.544, 171.678 86.989 L 167.856 89.282 168.571 85.471 C 168.965 83.374, 170.108 78.947, 171.112 75.631 C 172.115 72.316, 172.790 69.457, 172.611 69.277 C 171.888 68.554, 157.712 64.955, 157.281 65.385 C 156.840 65.827, 151.182 86.406, 148.847 96.061 C 147.745 100.617, 147.726 100.632, 133.175 109.061 C 125.163 113.703, 118.245 117.650, 117.804 117.833 C 117.362 118.017, 117 110.223, 117 100.514 L 117 82.861 130.030 69.743 L 143.060 56.624 137.814 51.312 C 134.929 48.390, 132.114 46, 131.559 46 C 131.004 46, 127.501 49.025, 123.775 52.723 L 117 59.446 117 45.223 L 117 31 109 31 L 101 31 100.889 42.750" stroke="none" fill="#f4f9fa" fill-rule="evenodd"/><path d="M 0 132.504 L 0 265.009 112.250 264.754 L 224.500 264.500 224.754 132.250 L 225.007 0 112.504 0 L 0 0 0 132.504 M 0.485 133 C 0.485 205.875, 0.604 235.688, 0.750 199.250 C 0.895 162.813, 0.895 103.188, 0.750 66.750 C 0.604 30.313, 0.485 60.125, 0.485 133 M 100.889 42.750 C 100.828 49.213, 100.861 55.513, 100.961 56.750 C 101.061 57.987, 100.785 59, 100.347 59 C 99.909 59, 96.498 55.971, 92.767 52.269 L 85.984 45.538 80.271 51.250 L 74.559 56.963 87.779 70.314 L 101 83.666 101 100.940 C 101 116.106, 100.812 118.142, 99.455 117.621 C 98.606 117.295, 91.659 113.405, 84.019 108.976 L 70.128 100.924 68.601 95.715 C 67.761 92.850, 65.595 84.748, 63.787 77.711 C 60.567 65.179, 60.449 64.928, 58 65.500 C 49.906 67.391, 45 69.214, 45 70.329 C 45 71.030, 46.101 75.391, 47.447 80.021 C 48.793 84.651, 49.804 88.530, 49.693 88.641 C 49.582 88.752, 44.093 85.766, 37.495 82.006 C 28.472 76.863, 25.226 75.458, 24.394 76.335 C 23.786 76.976, 21.854 80.064, 20.101 83.198 L 16.912 88.897 19.206 90.332 C 20.468 91.121, 25.918 94.339, 31.318 97.482 C 36.718 100.625, 40.993 103.330, 40.818 103.494 C 40.643 103.657, 36.675 104.797, 32 106.028 C 27.325 107.258, 23.150 108.578, 22.722 108.961 C 21.372 110.167, 25.202 124, 26.885 124 C 27.709 124, 35.872 121.972, 45.024 119.493 L 61.665 114.987 76.583 123.589 C 84.787 128.321, 91.634 132.320, 91.797 132.476 C 91.960 132.632, 85.283 136.704, 76.960 141.523 L 61.826 150.286 44.264 145.592 C 34.605 143.010, 26.386 141.258, 26 141.699 C 25.264 142.538, 22 153.904, 22 155.628 C 22 156.176, 26.062 157.672, 31.027 158.952 C 35.993 160.232, 40.231 161.564, 40.446 161.912 C 40.660 162.259, 35.461 165.609, 28.892 169.355 L 16.949 176.166 20.685 183.083 C 22.740 186.887, 24.750 190, 25.153 190 C 25.555 190, 30.887 187.075, 37 183.500 C 43.113 179.925, 48.484 177, 48.935 177 C 49.386 177, 48.660 180.886, 47.322 185.636 C 45.985 190.386, 45.104 194.828, 45.365 195.508 C 45.805 196.656, 59.721 200.692, 60.399 199.869 C 60.566 199.666, 62.669 191.941, 65.072 182.703 C 67.474 173.465, 69.689 165.503, 69.993 165.011 C 70.910 163.528, 99.815 147.149, 100.430 147.764 C 100.744 148.077, 101 155.790, 101 164.904 L 101 181.474 87.491 195.009 L 73.982 208.544 79.769 214.271 L 85.556 219.998 92.501 212.999 C 96.321 209.150, 99.828 206, 100.295 206 C 100.761 206, 101.061 207.012, 100.961 208.250 C 100.861 209.487, 100.828 215.787, 100.889 222.250 L 101 234 109 234 L 117 234 117 219.775 L 117 205.550 124.267 212.769 L 131.534 219.987 137.266 214.256 L 142.997 208.524 129.975 195.475 L 116.952 182.425 117.226 164.822 L 117.500 147.218 132.489 155.861 L 147.477 164.504 152.152 181.832 C 154.724 191.363, 157.070 199.403, 157.366 199.700 C 158.467 200.800, 172.502 196.297, 172.367 194.887 C 172.293 194.124, 171.283 189.935, 170.121 185.579 C 168.959 181.222, 168.196 177.471, 168.425 177.242 C 168.653 177.014, 174.002 179.791, 180.312 183.413 C 186.621 187.036, 192.019 190, 192.306 190 C 193.319 190, 200.100 176.971, 199.550 176.081 C 199.243 175.584, 194.044 172.397, 187.996 168.998 C 181.948 165.598, 177 162.493, 177 162.096 C 177 161.699, 181.062 160.328, 186.027 159.048 C 190.993 157.768, 195.202 156.446, 195.383 156.110 C 195.563 155.775, 194.798 152.200, 193.682 148.166 C 191.898 141.715, 191.404 140.887, 189.577 141.284 C 188.435 141.532, 180.230 143.658, 171.343 146.008 L 155.187 150.281 144.843 144.190 C 139.155 140.840, 132.524 136.925, 130.110 135.490 C 127.652 134.028, 126.112 132.513, 126.610 132.046 C 127.099 131.587, 133.820 127.571, 141.544 123.121 L 155.589 115.031 172.393 119.516 C 181.635 121.982, 189.760 124, 190.448 124 C 191.793 124, 196.144 109.911, 195.113 108.896 C 194.776 108.564, 190.333 107.241, 185.240 105.956 C 180.147 104.671, 176.322 103.294, 176.740 102.897 C 177.158 102.499, 179.975 100.785, 183 99.088 C 186.025 97.391, 191.088 94.548, 194.250 92.770 C 197.412 90.993, 199.999 89.080, 199.997 88.519 C 199.995 87.720, 193.672 76.457, 192.529 75.218 C 192.298 74.967, 182.420 80.544, 171.678 86.989 L 167.856 89.282 168.571 85.471 C 168.965 83.374, 170.108 78.947, 171.112 75.631 C 172.115 72.316, 172.790 69.457, 172.611 69.277 C 171.888 68.554, 157.712 64.955, 157.281 65.385 C 156.840 65.827, 151.182 86.406, 148.847 96.061 C 147.745 100.617, 147.726 100.632, 133.175 109.061 C 125.163 113.703, 118.245 117.650, 117.804 117.833 C 117.362 118.017, 117 110.223, 117 100.514 L 117 82.861 130.030 69.743 L 143.060 56.624 137.814 51.312 C 134.929 48.390, 132.114 46, 131.559 46 C 131.004 46, 127.501 49.025, 123.775 52.723 L 117 59.446 117 45.223 L 117 31 109 31 L 101 31 100.889 42.750" stroke="none" fill="#3274b8" fill-rule="evenodd"/></svg>