<svg xmlns="http://www.w3.org/2000/svg" width="255" height="303" viewBox="0 0 255 303" version="1.1"><path d="M 62.667 192.301 C 61.182 195.161, 57.645 200.808, 54.807 204.852 C 50.553 210.913, 49.571 213.122, 49.214 217.438 C 48.015 231.896, 63.022 240.454, 75.219 232.267 C 78.570 230.018, 80.729 226.759, 80.198 224.750 C 80.089 224.338, 80.450 224, 81 224 C 81.550 224, 82 222.042, 82 219.649 C 82 214.833, 80.303 209, 78.902 209 C 78.406 209, 78 208.499, 78 207.887 C 78 207.275, 75.912 204.013, 73.360 200.637 C 70.808 197.262, 67.965 192.836, 67.043 190.801 L 65.366 187.102 62.667 192.301 M 120.578 189.756 C 120.186 190.990, 116.927 196.333, 113.335 201.631 C 105.576 213.074, 104.567 215.627, 105.456 221.558 C 106.301 227.187, 111.653 233.025, 117.750 234.967 C 121.332 236.107, 122.652 236.105, 126.152 234.950 C 134.554 232.177, 139.873 223.874, 138.365 215.885 C 138.014 214.023, 136.065 210.025, 134.035 207 C 132.005 203.975, 128.804 199.203, 126.922 196.396 C 125.040 193.588, 123.003 190.441, 122.395 189.402 C 121.339 187.597, 121.258 187.613, 120.578 189.756 M 174.571 194.131 C 172.516 197.634, 168.802 203.422, 166.317 206.992 C 161.982 213.220, 161.814 213.730, 162.182 219.492 C 162.770 228.686, 167.306 233.841, 176.294 235.527 C 181.703 236.542, 189.842 232.405, 192.803 227.137 C 197.057 219.568, 195.007 211.514, 185.891 199.982 C 183.544 197.012, 180.876 193.047, 179.964 191.172 L 178.305 187.762 174.571 194.131 M 91.119 238.289 C 89.911 240.605, 86.486 245.982, 83.509 250.238 C 75.409 261.816, 74.939 269.174, 81.858 276.093 C 88.931 283.166, 98.697 283.421, 105.149 276.701 C 108.956 272.736, 110 270.104, 110 264.470 C 110 259.428, 107.244 253.905, 99.836 244.101 C 97.176 240.581, 95 237.120, 95 236.410 C 95 233.464, 93.175 234.347, 91.119 238.289 M 147.927 237.250 C 147.204 239.037, 144.977 242.750, 142.978 245.500 C 140.980 248.250, 138.051 252.719, 136.471 255.431 C 130.819 265.131, 133.735 275.238, 143.566 280.021 C 148.594 282.468, 151.342 282.482, 156.616 280.087 C 161.991 277.646, 165.831 272.514, 166.627 266.706 C 167.354 261.402, 165.088 256.200, 157.645 246.090 C 155.281 242.878, 152.764 238.844, 152.052 237.125 C 150.412 233.166, 149.570 233.191, 147.927 237.250" stroke="none" fill="#ffffff" fill-rule="evenodd"/><path d="M 132 23.690 C 126.092 24.678, 116.698 28.396, 111.309 31.879 C 103.717 36.786, 95.017 46.493, 91.125 54.399 L 88.015 60.715 82.757 58.142 C 78.377 55.998, 76.082 55.566, 69 55.553 C 61.217 55.539, 59.967 55.825, 54.179 58.946 C 46.016 63.348, 41.058 69.051, 38.093 77.450 C 35.890 83.690, 35.540 90.868, 37.149 96.794 C 37.364 97.585, 35.442 98.825, 32.198 99.987 C 26.071 102.183, 17.372 108.192, 17.775 109.949 C 17.926 110.609, 17.623 110.885, 17.101 110.563 C 15.866 109.799, 12.609 114.433, 9.273 121.700 C 7.053 126.536, 6.627 128.829, 6.706 135.500 C 6.761 140.143, 7.483 145.388, 8.428 148 C 12.232 158.519, 21.056 167.400, 32 171.723 C 36.144 173.360, 42.386 173.524, 111 173.798 C 158.843 173.989, 188.323 173.721, 193.390 173.050 C 212.715 170.491, 229.335 156.606, 234.991 138.295 C 237.720 129.458, 237.708 116.504, 234.963 107.615 C 230.680 93.749, 218.901 81.310, 205.228 76.214 C 199.271 73.994, 197.853 73.045, 197.437 71 C 194.323 55.702, 188.474 45.457, 177.568 36.197 C 165.533 25.978, 147.658 21.072, 132 23.690 M 64.624 186.539 C 63.659 189.053, 63.943 189.702, 65.122 187.675 C 65.706 186.671, 65.973 185.639, 65.715 185.382 C 65.458 185.124, 64.966 185.645, 64.624 186.539 M 121.032 186.050 C 121.049 186.847, 121.771 188.400, 122.635 189.500 C 124.162 191.443, 124.186 191.429, 123.491 189 C 122.617 185.948, 120.987 183.992, 121.032 186.050 M 177.103 187.315 C 175.609 191.129, 175.716 191.757, 177.468 189.441 C 178.501 188.076, 178.946 187.921, 178.968 188.917 C 178.986 189.696, 179.235 190.099, 179.521 189.812 C 179.808 189.525, 179.630 188.213, 179.124 186.895 L 178.206 184.500 177.103 187.315 M 68 193 C 68.589 194.100, 69.295 195, 69.570 195 C 69.845 195, 69.589 194.100, 69 193 C 68.411 191.900, 67.705 191, 67.430 191 C 67.155 191, 67.411 191.900, 68 193 M 180.005 191.750 C 180.008 192.162, 181.141 193.850, 182.525 195.500 L 185.039 198.500 182.921 194.750 C 180.862 191.105, 179.995 190.213, 180.005 191.750 M 125.503 194.500 C 126.532 196.150, 129.202 200.029, 131.436 203.120 C 133.671 206.210, 136.072 209.585, 136.770 210.620 C 137.845 212.210, 137.863 212.114, 136.887 210 C 135.747 207.531, 126.582 194.438, 124.637 192.500 C 124.085 191.950, 124.475 192.850, 125.503 194.500 M 174 194 C 173.411 195.100, 173.155 196, 173.430 196 C 173.705 196, 174.411 195.100, 175 194 C 175.589 192.900, 175.845 192, 175.570 192 C 175.295 192, 174.589 192.900, 174 194 M 117 195 C 116.411 196.100, 116.155 197, 116.430 197 C 116.705 197, 117.411 196.100, 118 195 C 118.589 193.900, 118.845 193, 118.570 193 C 118.295 193, 117.589 193.900, 117 195 M 58.090 198.750 C 55.630 202.345, 55.480 202.771, 57.470 200.500 C 60.116 197.481, 62.384 194, 61.705 194 C 61.504 194, 59.877 196.137, 58.090 198.750 M 170.807 198.750 C 169.981 199.713, 168.924 201.175, 168.460 202 C 167.724 203.308, 167.840 203.319, 169.363 202.082 C 171.040 200.720, 173.476 197, 172.690 197 C 172.481 197, 171.634 197.787, 170.807 198.750 M 73.500 201 C 74.495 202.100, 75.535 203, 75.810 203 C 76.085 203, 75.495 202.100, 74.500 201 C 73.505 199.900, 72.465 199, 72.190 199 C 71.915 199, 72.505 199.900, 73.500 201 M 111.218 203.250 C 107.556 208.659, 106.779 210, 107.308 210 C 107.542 210, 109.032 208.096, 110.617 205.769 C 114.727 199.738, 115.160 199, 114.598 199 C 114.322 199, 112.801 200.912, 111.218 203.250 M 186 200.378 C 186 200.585, 186.787 201.373, 187.750 202.128 C 189.336 203.371, 189.371 203.336, 188.128 201.750 C 186.821 200.084, 186 199.555, 186 200.378 M 166.278 205.250 C 164.779 207.188, 163.836 209, 164.326 209 C 164.570 209, 165.507 207.875, 166.408 206.500 C 168.094 203.927, 168 203.024, 166.278 205.250 M 51 209 C 50.411 210.100, 50.155 211, 50.430 211 C 50.705 211, 51.411 210.100, 52 209 C 52.589 207.900, 52.845 207, 52.570 207 C 52.295 207, 51.589 207.900, 51 209 M 78 208 C 78 208.550, 78.477 209, 79.059 209 C 79.641 209, 79.840 208.550, 79.500 208 C 79.160 207.450, 78.684 207, 78.441 207 C 78.198 207, 78 207.450, 78 208 M 192.695 210.487 C 193.610 212.406, 194.536 213.797, 194.753 213.580 C 195.210 213.123, 192.175 207, 191.490 207 C 191.239 207, 191.781 208.569, 192.695 210.487 M 138.079 215.583 C 138.127 216.748, 138.364 216.985, 138.683 216.188 C 138.972 215.466, 138.936 214.603, 138.604 214.271 C 138.272 213.939, 138.036 214.529, 138.079 215.583 M 48.272 219 C 48.272 221.475, 48.467 222.488, 48.706 221.250 C 48.944 220.012, 48.944 217.988, 48.706 216.750 C 48.467 215.512, 48.272 216.525, 48.272 219 M 161.272 219 C 161.272 221.475, 161.467 222.488, 161.706 221.250 C 161.944 220.012, 161.944 217.988, 161.706 216.750 C 161.467 215.512, 161.272 216.525, 161.272 219 M 82.232 219 C 82.232 220.925, 82.438 221.713, 82.689 220.750 C 82.941 219.787, 82.941 218.213, 82.689 217.250 C 82.438 216.287, 82.232 217.075, 82.232 219 M 195.158 219 C 195.158 220.375, 195.385 220.938, 195.662 220.250 C 195.940 219.563, 195.940 218.438, 195.662 217.750 C 195.385 217.063, 195.158 217.625, 195.158 219 M 138.079 222.583 C 138.127 223.748, 138.364 223.985, 138.683 223.188 C 138.972 222.466, 138.936 221.603, 138.604 221.271 C 138.272 220.939, 138.036 221.529, 138.079 222.583 M 105.079 223.583 C 105.127 224.748, 105.364 224.985, 105.683 224.188 C 105.972 223.466, 105.936 222.603, 105.604 222.271 C 105.272 221.939, 105.036 222.529, 105.079 223.583 M 49.004 224.382 C 48.996 226.213, 53.265 232.067, 55.339 233.069 L 57.500 234.113 55.329 232.210 C 54.134 231.163, 52.223 228.775, 51.082 226.903 C 49.941 225.031, 49.006 223.897, 49.004 224.382 M 80.298 224.631 C 80.645 224.979, 80.471 226.216, 79.910 227.381 C 78.918 229.441, 78.933 229.446, 80.445 227.559 C 82.296 225.249, 82.432 224, 80.833 224 C 80.192 224, 79.951 224.284, 80.298 224.631 M 136.564 226.707 C 136.022 228.132, 136.136 228.247, 137.124 227.267 C 137.808 226.588, 138.115 225.781, 137.807 225.474 C 137.499 225.166, 136.940 225.721, 136.564 226.707 M 106.874 227.642 C 108.895 231.648, 117.085 237.249, 118.642 235.691 C 118.913 235.421, 117.534 234.671, 115.579 234.026 C 113.624 233.381, 110.622 231.199, 108.909 229.176 C 107.195 227.154, 106.279 226.464, 106.874 227.642 M 163.910 228.832 C 164.450 229.840, 165.685 231.302, 166.656 232.082 C 167.909 233.088, 167.760 232.556, 166.143 230.250 C 163.674 226.729, 162.327 225.873, 163.910 228.832 M 133.962 230.466 C 133.156 231.273, 130.697 232.864, 128.498 234.002 C 126.194 235.195, 125.559 235.795, 127 235.420 C 129.373 234.801, 136 230.405, 136 229.449 C 136 228.686, 135.486 228.942, 133.962 230.466 M 74.872 232.750 C 73.629 234.336, 73.664 234.371, 75.250 233.128 C 76.213 232.373, 77 231.585, 77 231.378 C 77 230.555, 76.179 231.084, 74.872 232.750 M 91.762 235.338 C 90.465 238.460, 90.404 239.015, 91.517 237.559 C 92.333 236.491, 93 235.227, 93 234.750 C 93 234.273, 93.450 234.160, 94 234.500 C 95.167 235.221, 95.295 234.012, 94.230 232.338 C 93.774 231.621, 92.828 232.770, 91.762 235.338 M 149.583 231.866 C 149.152 232.563, 149.070 233.403, 149.400 233.733 C 150.295 234.628, 151.271 233.312, 150.787 231.862 C 150.449 230.846, 150.213 230.846, 149.583 231.866 M 185.038 233.634 C 182.584 234.935, 181.234 235.998, 182.038 235.996 C 183.590 235.992, 190 232.384, 190 231.515 C 190 231.232, 189.887 231.060, 189.750 231.134 C 189.613 231.208, 187.492 232.333, 185.038 233.634 M 59 235 C 59.825 235.533, 61.175 235.945, 62 235.914 C 62.989 235.878, 62.819 235.567, 61.500 235 C 58.751 233.819, 57.172 233.819, 59 235 M 67.750 235.662 C 68.438 235.940, 69.563 235.940, 70.250 235.662 C 70.938 235.385, 70.375 235.158, 69 235.158 C 67.625 235.158, 67.063 235.385, 67.750 235.662 M 173.813 235.683 C 174.534 235.972, 175.397 235.936, 175.729 235.604 C 176.061 235.272, 175.471 235.036, 174.417 235.079 C 173.252 235.127, 173.015 235.364, 173.813 235.683 M 95 236.723 C 95 237.303, 95.927 238.841, 97.059 240.139 L 99.119 242.500 97.362 239.500 C 95.050 235.552, 95 235.493, 95 236.723 M 145.100 241.295 C 143.835 243.402, 143.857 243.423, 145.579 241.774 C 146.570 240.824, 147.166 239.832, 146.903 239.569 C 146.640 239.306, 145.829 240.083, 145.100 241.295 M 85.410 245.845 C 81.028 251.902, 79.002 255.203, 80.710 253.500 C 82.610 251.605, 90.177 240.844, 89.839 240.517 C 89.653 240.338, 87.659 242.735, 85.410 245.845 M 141 247 C 139.825 248.650, 139.089 250, 139.364 250 C 139.639 250, 140.825 248.650, 142 247 C 143.175 245.350, 143.911 244, 143.636 244 C 143.361 244, 142.175 245.350, 141 247 M 158.773 247.500 C 160.397 249.700, 162.474 252.963, 163.389 254.750 C 164.303 256.538, 165.274 258, 165.546 258 C 166.578 258, 162.016 250.352, 158.985 247 L 155.819 243.500 158.773 247.500 M 102 247.378 C 102 247.585, 102.787 248.373, 103.750 249.128 C 105.336 250.371, 105.371 250.336, 104.128 248.750 C 102.821 247.084, 102 246.555, 102 247.378 M 106 253 C 106.589 254.100, 107.295 255, 107.570 255 C 107.845 255, 107.589 254.100, 107 253 C 106.411 251.900, 105.705 251, 105.430 251 C 105.155 251, 105.411 251.900, 106 253 M 135.967 254.553 C 134.760 256.507, 133.943 258.276, 134.152 258.486 C 134.361 258.695, 135.551 257.096, 136.796 254.933 C 139.617 250.032, 138.951 249.726, 135.967 254.553 M 78.459 256.067 C 78.096 256.653, 78.014 257.348, 78.276 257.610 C 78.538 257.872, 79.019 257.392, 79.345 256.543 C 80.021 254.781, 79.445 254.471, 78.459 256.067 M 108 256.882 C 108 257.432, 108.450 258.160, 109 258.500 C 109.550 258.840, 110 258.668, 110 258.118 C 110 257.568, 109.550 256.840, 109 256.500 C 108.450 256.160, 108 256.332, 108 256.882 M 133.079 261.583 C 133.127 262.748, 133.364 262.985, 133.683 262.188 C 133.972 261.466, 133.936 260.603, 133.604 260.271 C 133.272 259.939, 133.036 260.529, 133.079 261.583 M 110.272 265 C 110.272 267.475, 110.467 268.488, 110.706 267.250 C 110.944 266.012, 110.944 263.988, 110.706 262.750 C 110.467 261.512, 110.272 262.525, 110.272 265 M 76.158 265 C 76.158 266.375, 76.385 266.938, 76.662 266.250 C 76.940 265.563, 76.940 264.438, 76.662 263.750 C 76.385 263.063, 76.158 263.625, 76.158 265 M 133.158 268 C 133.158 269.375, 133.385 269.938, 133.662 269.250 C 133.940 268.563, 133.940 267.438, 133.662 266.750 C 133.385 266.063, 133.158 266.625, 133.158 268 M 166.079 269.583 C 166.127 270.748, 166.364 270.985, 166.683 270.188 C 166.972 269.466, 166.936 268.603, 166.604 268.271 C 166.272 267.939, 166.036 268.529, 166.079 269.583 M 135.964 274.732 C 138.192 278.086, 141.692 281.005, 143.473 280.993 C 144.038 280.990, 143.328 280.202, 141.896 279.243 C 140.464 278.285, 138.061 276.150, 136.555 274.500 L 133.817 271.500 135.964 274.732 M 163.561 274.548 C 162.643 275.949, 160.453 277.972, 158.696 279.044 C 156.938 280.116, 156.028 280.994, 156.673 280.996 C 158.218 281.001, 163.771 276.296, 165.058 273.892 C 166.537 271.128, 165.505 271.580, 163.561 274.548 M 106.180 275.508 C 103.653 278.414, 103.290 279.834, 105.555 277.955 C 107.067 276.700, 109.427 273, 108.716 273 C 108.520 273, 107.380 274.128, 106.180 275.508 M 80.068 275.675 C 81.489 278.017, 87.907 282.025, 90.136 281.961 C 90.886 281.939, 89.925 281.240, 88 280.406 C 86.075 279.572, 83.206 277.677, 81.625 276.195 C 79.266 273.984, 78.987 273.891, 80.068 275.675 M 96.813 281.683 C 97.534 281.972, 98.397 281.936, 98.729 281.604 C 99.061 281.272, 98.471 281.036, 97.417 281.079 C 96.252 281.127, 96.015 281.364, 96.813 281.683" stroke="none" fill="#d8dadb" fill-rule="evenodd"/><path d="M -0 151.504 L -0 303.008 127.750 302.754 L 255.500 302.500 255.753 151.250 L 256.006 0 128.003 0 L 0 0 -0 151.504 M 0.487 152 C 0.487 235.325, 0.605 269.413, 0.750 227.750 C 0.894 186.088, 0.894 117.913, 0.750 76.250 C 0.605 34.588, 0.487 68.675, 0.487 152 M 132 23.690 C 126.092 24.678, 116.698 28.396, 111.309 31.879 C 103.717 36.786, 95.017 46.493, 91.125 54.399 L 88.015 60.715 82.757 58.142 C 78.377 55.998, 76.082 55.566, 69 55.553 C 61.217 55.539, 59.967 55.825, 54.179 58.946 C 46.016 63.348, 41.058 69.051, 38.093 77.450 C 35.890 83.690, 35.540 90.868, 37.149 96.794 C 37.363 97.582, 35.482 98.811, 32.329 99.941 C 21.619 103.781, 14.702 110.194, 9.640 120.977 C 6.997 126.606, 6.613 128.503, 6.700 135.477 C 6.758 140.127, 7.485 145.392, 8.428 148 C 12.232 158.519, 21.056 167.400, 32 171.723 C 36.144 173.360, 42.386 173.524, 111 173.798 C 158.843 173.989, 188.323 173.721, 193.390 173.050 C 212.715 170.491, 229.335 156.606, 234.991 138.295 C 237.720 129.458, 237.708 116.504, 234.963 107.615 C 230.680 93.749, 218.901 81.310, 205.228 76.214 C 199.271 73.994, 197.853 73.045, 197.437 71 C 194.323 55.702, 188.474 45.457, 177.568 36.197 C 165.533 25.978, 147.658 21.072, 132 23.690 M 64.478 187.397 C 64.055 188.990, 60.813 194.536, 57.273 199.721 C 47.180 214.502, 46.044 218.978, 50.325 227.093 C 54.931 235.824, 66.551 238.830, 74.594 233.372 C 79.468 230.064, 80.698 228.459, 82.053 223.637 C 83.617 218.067, 82.381 212.869, 77.925 206.280 C 68.408 192.212, 67.244 190.335, 66.273 187.500 L 65.247 184.500 64.478 187.397 M 121 186.603 C 121 188.663, 116.973 195.708, 112.284 201.851 C 107.012 208.757, 104.769 213.880, 104.769 219.013 C 104.769 228.824, 111.851 236, 121.533 236 C 131.144 236, 138.013 229.885, 138.779 220.648 C 139.328 214.035, 137.774 210.283, 130.115 199.724 C 126.834 195.201, 123.841 190.258, 123.464 188.741 C 122.667 185.532, 121 184.086, 121 186.603 M 177.112 187.500 C 175.634 191.438, 173.116 196.012, 171.056 198.500 C 168 202.190, 164.106 208.468, 162.546 212.218 C 157.744 223.764, 165.816 235.941, 178.300 235.984 C 183.937 236.003, 187.776 234.243, 191.342 230.005 C 197.072 223.195, 196.912 215.123, 190.871 206.198 C 181.458 192.290, 180.243 190.332, 179.269 187.500 L 178.238 184.500 177.112 187.500 M 91.739 235.315 C 90.771 237.656, 87.801 242.559, 85.140 246.210 C 76.037 258.696, 74.452 265.694, 78.926 273.654 C 85.380 285.138, 102.750 284.755, 108.821 272.996 C 113.023 264.859, 111.190 258.082, 101.307 245.205 C 99.321 242.617, 96.752 238.376, 95.598 235.780 L 93.500 231.059 91.739 235.315 M 148.561 234.533 C 147.655 236.715, 143.895 242.927, 140.207 248.339 C 133.568 258.078, 133.500 258.245, 133.500 264.916 C 133.500 270.802, 133.865 272.134, 136.382 275.434 C 137.967 277.512, 140.879 279.887, 142.852 280.712 C 147.592 282.692, 156.195 281.987, 159.791 279.322 C 169.634 272.032, 169.540 259.936, 159.544 247.500 C 154.919 241.746, 152.931 238.483, 151.483 234.274 L 150.208 230.565 148.561 234.533" stroke="none" fill="#1462ad" fill-rule="evenodd"/></svg>