<svg xmlns="http://www.w3.org/2000/svg" width="268" height="283" viewBox="0 0 268 283" version="1.1"><path d="M 126 46 L 126 71 134.500 71 L 143 71 143 46 L 143 21 134.500 21 L 126 21 126 46 M 46.169 57.416 C 43.326 60.395, 41 63.085, 41 63.395 C 41 64.437, 74.947 98, 76.001 98 C 76.574 98, 79.567 95.476, 82.652 92.391 L 88.261 86.782 70.891 69.391 C 61.338 59.826, 53.030 52, 52.430 52 C 51.829 52, 49.012 54.437, 46.169 57.416 M 201.981 66.354 C 194.016 74.249, 186.171 82.131, 184.547 83.870 L 181.595 87.032 187.526 93.027 L 193.458 99.021 210.729 81.771 C 220.228 72.284, 228 64.051, 228 63.477 C 228 62.461, 217.927 52, 216.949 52 C 216.681 52, 209.945 58.459, 201.981 66.354 M 124.500 85.583 C 115.291 87.802, 112.683 88.708, 106.815 91.733 C 88.845 100.997, 76.595 120.109, 75.329 140.857 C 73.559 169.855, 92.726 195.854, 120.825 202.572 C 127.796 204.239, 141.493 204.390, 147.807 202.871 C 150.388 202.250, 156.100 200.077, 160.500 198.042 C 173.986 191.805, 184.361 180.582, 190.582 165.500 C 193.274 158.975, 193.471 157.585, 193.483 145 C 193.494 133.389, 193.171 130.590, 191.175 125 C 184.966 107.612, 171.267 94.207, 152.809 87.455 C 148.567 85.903, 128.642 84.586, 124.500 85.583 M 10 145.500 L 10 154 35 154 L 60 154 60 145.500 L 60 137 35 137 L 10 137 10 145.500 M 209 145.500 L 209 154 234 154 L 259 154 259 145.500 L 259 137 234 137 L 209 137 209 145.500 M 187.729 197.768 C 184.578 200.953, 182 203.880, 182 204.274 C 182 205.274, 215.746 239, 216.747 239 C 217.196 239, 220.132 236.404, 223.272 233.230 L 228.982 227.461 211.220 209.720 L 193.458 191.979 187.729 197.768 M 58.119 210.084 C 48.704 219.480, 41 227.482, 41 227.865 C 41 228.249, 43.596 231.132, 46.770 234.272 L 52.539 239.982 70.332 222.169 L 88.124 204.356 82.712 198.678 C 79.735 195.555, 76.836 193, 76.269 193 C 75.702 193, 67.534 200.688, 58.119 210.084 M 126 245 L 126 270 134.500 270 L 143 270 143 245 L 143 220 134.500 220 L 126 220 126 245" stroke="none" fill="#f3d318" fill-rule="evenodd"/><path d="M -0 141.504 L -0 283.007 134.250 282.754 L 268.500 282.500 268.753 141.250 L 269.007 0 134.503 0 L 0 0 -0 141.504 M 0.486 142 C 0.486 219.825, 0.605 251.662, 0.750 212.750 C 0.895 173.837, 0.895 110.162, 0.750 71.250 C 0.605 32.337, 0.486 64.175, 0.486 142 M 126 46 L 126 71 134.500 71 L 143 71 143 46 L 143 21 134.500 21 L 126 21 126 46 M 46.169 57.416 C 43.326 60.395, 41 63.085, 41 63.395 C 41 64.437, 74.947 98, 76.001 98 C 76.574 98, 79.567 95.476, 82.652 92.391 L 88.261 86.782 70.891 69.391 C 61.338 59.826, 53.030 52, 52.430 52 C 51.829 52, 49.012 54.437, 46.169 57.416 M 201.981 66.354 C 194.016 74.249, 186.171 82.131, 184.547 83.870 L 181.595 87.032 187.526 93.027 L 193.458 99.021 210.729 81.771 C 220.228 72.284, 228 64.051, 228 63.477 C 228 62.461, 217.927 52, 216.949 52 C 216.681 52, 209.945 58.459, 201.981 66.354 M 124.500 85.583 C 115.291 87.802, 112.683 88.708, 106.815 91.733 C 88.845 100.997, 76.595 120.109, 75.329 140.857 C 73.559 169.855, 92.726 195.854, 120.825 202.572 C 127.796 204.239, 141.493 204.390, 147.807 202.871 C 150.388 202.250, 156.100 200.077, 160.500 198.042 C 173.986 191.805, 184.361 180.582, 190.582 165.500 C 193.274 158.975, 193.471 157.585, 193.483 145 C 193.494 133.389, 193.171 130.590, 191.175 125 C 184.966 107.612, 171.267 94.207, 152.809 87.455 C 148.567 85.903, 128.642 84.586, 124.500 85.583 M 10 145.500 L 10 154 35 154 L 60 154 60 145.500 L 60 137 35 137 L 10 137 10 145.500 M 209 145.500 L 209 154 234 154 L 259 154 259 145.500 L 259 137 234 137 L 209 137 209 145.500 M 187.729 197.768 C 184.578 200.953, 182 203.880, 182 204.274 C 182 205.274, 215.746 239, 216.747 239 C 217.196 239, 220.132 236.404, 223.272 233.230 L 228.982 227.461 211.220 209.720 L 193.458 191.979 187.729 197.768 M 58.119 210.084 C 48.704 219.480, 41 227.482, 41 227.865 C 41 228.249, 43.596 231.132, 46.770 234.272 L 52.539 239.982 70.332 222.169 L 88.124 204.356 82.712 198.678 C 79.735 195.555, 76.836 193, 76.269 193 C 75.702 193, 67.534 200.688, 58.119 210.084 M 126 245 L 126 270 134.500 270 L 143 270 143 245 L 143 220 134.500 220 L 126 220 126 245" stroke="none" fill="#065aa6" fill-rule="evenodd"/></svg>