<svg xmlns="http://www.w3.org/2000/svg" width="304" height="220" viewBox="0 0 304 220" version="1.1"><path d="M 101 20.396 C 89.516 22.959, 78.732 30.482, 73.333 39.695 C 71.179 43.371, 70.344 44.042, 68.608 43.496 C 64.225 42.118, 56.332 41.833, 52.335 42.910 C 40.997 45.963, 32 57.257, 32 68.435 C 32 73.604, 31.930 73.728, 28.010 75.496 C 22.874 77.811, 16.582 84.188, 13.738 89.960 C 10.476 96.578, 10.563 108.597, 13.923 115.423 C 17.018 121.712, 22.256 126.936, 28.542 130.004 C 32.883 132.122, 35.206 132.471, 47.201 132.807 L 60.902 133.190 66.240 127.723 C 69.175 124.716, 74.147 120.805, 77.288 119.032 C 82.996 115.811, 83 115.806, 83 111.010 C 83 99.278, 90.010 85.933, 100.057 78.537 C 109.853 71.326, 120.664 69.077, 134.684 71.335 L 139.868 72.170 142.519 67.971 C 143.976 65.661, 146.972 61.816, 149.175 59.426 C 153.089 55.180, 153.153 54.992, 151.970 51.290 C 146.780 35.048, 133.531 23.048, 117.520 20.088 C 110.380 18.768, 108.098 18.811, 101 20.396 M 188 47.690 C 178.793 49.230, 166.067 55.568, 158.965 62.150 C 154.234 66.536, 149.063 73.620, 146.487 79.246 L 143.921 84.853 138.701 82.464 C 121.060 74.387, 100.781 82.773, 93.876 101 C 92.176 105.486, 91.882 107.999, 92.278 114.627 L 92.763 122.754 88.632 123.964 C 71.224 129.059, 59.644 147.616, 62.708 165.506 C 64.206 174.251, 67.397 180.498, 73.451 186.539 C 78.746 191.822, 85.003 195.299, 92.209 196.961 C 94.835 197.567, 125.594 197.954, 171.500 197.958 C 232.854 197.964, 247.732 197.704, 253.270 196.531 C 276.185 191.675, 292.949 170.965, 292.988 147.460 C 293.011 133.615, 287.714 120.863, 277.899 111.139 C 272.687 105.975, 266.564 102.377, 255.750 98.124 C 253.881 97.389, 252.997 96.315, 252.989 94.771 C 252.974 91.522, 250.681 84.452, 247.387 77.500 C 243.362 69.003, 231.548 57.259, 222.912 53.171 C 211.925 47.970, 198.723 45.897, 188 47.690" stroke="none" fill="#d1d3d5" fill-rule="evenodd"/><path d="M 0 110.003 L 0 220.006 152.250 219.753 L 304.500 219.500 304.754 109.750 L 305.009 -0 152.504 -0 L 0 0 0 110.003 M 0.483 110.500 C 0.483 171, 0.603 195.603, 0.750 165.173 C 0.897 134.743, 0.897 85.243, 0.750 55.173 C 0.603 25.103, 0.483 50, 0.483 110.500 M 101 20.396 C 89.516 22.959, 78.732 30.482, 73.333 39.695 C 71.179 43.371, 70.344 44.042, 68.608 43.496 C 64.225 42.118, 56.332 41.833, 52.335 42.910 C 40.997 45.963, 32 57.257, 32 68.435 C 32 73.604, 31.930 73.728, 28.010 75.496 C 22.874 77.811, 16.582 84.188, 13.738 89.960 C 10.476 96.578, 10.563 108.597, 13.923 115.423 C 17.018 121.712, 22.256 126.936, 28.542 130.004 C 32.883 132.122, 35.206 132.471, 47.201 132.807 L 60.902 133.190 66.240 127.723 C 69.175 124.716, 74.147 120.805, 77.288 119.032 C 82.996 115.811, 83 115.806, 83 111.010 C 83 99.278, 90.010 85.933, 100.057 78.537 C 109.853 71.326, 120.664 69.077, 134.684 71.335 L 139.868 72.170 142.519 67.971 C 143.976 65.661, 146.972 61.816, 149.175 59.426 C 153.089 55.180, 153.153 54.992, 151.970 51.290 C 146.780 35.048, 133.531 23.048, 117.520 20.088 C 110.380 18.768, 108.098 18.811, 101 20.396 M 188 47.690 C 178.793 49.230, 166.067 55.568, 158.965 62.150 C 154.234 66.536, 149.063 73.620, 146.487 79.246 L 143.921 84.853 138.701 82.464 C 121.060 74.387, 100.781 82.773, 93.876 101 C 92.176 105.486, 91.882 107.999, 92.278 114.627 L 92.763 122.754 88.632 123.964 C 71.224 129.059, 59.644 147.616, 62.708 165.506 C 64.206 174.251, 67.397 180.498, 73.451 186.539 C 78.746 191.822, 85.003 195.299, 92.209 196.961 C 94.835 197.567, 125.594 197.954, 171.500 197.958 C 232.854 197.964, 247.732 197.704, 253.270 196.531 C 276.185 191.675, 292.949 170.965, 292.988 147.460 C 293.011 133.615, 287.714 120.863, 277.899 111.139 C 272.687 105.975, 266.564 102.377, 255.750 98.124 C 253.881 97.389, 252.997 96.315, 252.989 94.771 C 252.974 91.522, 250.681 84.452, 247.387 77.500 C 243.362 69.003, 231.548 57.259, 222.912 53.171 C 211.925 47.970, 198.723 45.897, 188 47.690" stroke="none" fill="#065ba9" fill-rule="evenodd"/></svg>