<svg xmlns="http://www.w3.org/2000/svg" width="263" height="261" viewBox="0 0 263 261" version="1.1"><path d="M 132.003 96 L 110.505 96.500 107.310 112 C 99.379 150.475, 97.868 157.748, 97.022 161.500 C 96.525 163.700, 95.879 166.963, 95.585 168.750 L 95.050 172 108.525 172 L 122 172 122 177.394 C 122 180.361, 121.582 187.223, 121.071 192.644 C 119.493 209.396, 117.681 237.544, 118.101 238.782 C 118.320 239.428, 120.750 235.610, 123.500 230.296 C 126.250 224.982, 131.234 215.654, 134.577 209.567 C 137.919 203.480, 143.387 193.325, 146.729 187 C 150.071 180.675, 156.561 168.525, 161.152 160 C 165.744 151.475, 170.053 143.262, 170.729 141.750 L 171.957 139 155.979 139 C 147.190 139, 140.008 138.662, 140.018 138.250 C 140.027 137.838, 144.482 128.275, 149.917 117 C 155.351 105.725, 159.693 96.387, 159.565 96.250 C 158.965 95.604, 151.822 95.539, 132.003 96" stroke="none" fill="#ffffff" fill-rule="evenodd"/><path d="M 138.568 23.482 C 123.885 27.661, 110.141 38.778, 103.620 51.750 C 101.615 55.737, 99.738 59, 99.448 59 C 99.158 59, 97.026 57.989, 94.710 56.753 C 91.193 54.876, 88.935 54.506, 81 54.508 C 72.588 54.509, 70.906 54.822, 66.313 57.240 C 59.532 60.809, 54.340 66.192, 51.109 73 C 48.884 77.690, 48.497 79.875, 48.477 87.835 L 48.453 97.170 43.119 99.048 C 30.702 103.421, 21.806 113.890, 19.011 127.420 C 15.642 143.726, 24.780 161.470, 40.218 168.599 C 46.351 171.431, 46.950 171.507, 65.509 171.807 L 84.519 172.114 89.397 148.807 C 92.080 135.988, 96.014 117.412, 98.138 107.527 C 100.262 97.642, 102 88.803, 102 87.884 C 102 86.966, 102.712 85.941, 103.582 85.607 C 105.884 84.724, 174.803 84.861, 175.311 85.750 C 175.547 86.162, 171.298 95.671, 165.870 106.880 C 160.441 118.089, 156 127.641, 156 128.107 C 156 128.572, 163.600 129.076, 172.888 129.226 L 189.777 129.500 176.897 150.750 L 164.017 172 185.327 172 C 202.011 172, 207.816 171.650, 212.068 170.388 C 230.230 165, 244.349 150.041, 248.054 132.263 C 249.678 124.467, 248.715 110.980, 246.018 103.775 C 241.253 91.044, 229.231 79.111, 216.489 74.464 L 209.437 71.891 208.303 65.925 C 204.915 48.094, 190.242 31.333, 172.254 24.743 C 164.905 22.051, 146.071 21.346, 138.568 23.482 M 109.998 95.750 C 109.997 96.162, 116.410 96.383, 124.248 96.241 C 150.981 95.755, 153.523 95.403, 131.750 95.201 C 119.787 95.091, 109.999 95.338, 109.998 95.750 M 158.231 95.686 C 159.807 96.099, 159.739 96.581, 157.481 101.037 C 156.117 103.730, 155.021 106.286, 155.047 106.717 C 155.101 107.618, 160.881 96.885, 160.953 95.750 C 160.979 95.338, 159.988 95.052, 158.750 95.116 C 157.086 95.202, 156.951 95.350, 158.231 95.686 M 107.079 109.583 C 107.127 110.748, 107.364 110.985, 107.683 110.188 C 107.972 109.466, 107.936 108.603, 107.604 108.271 C 107.272 107.939, 107.036 108.529, 107.079 109.583 M 106.079 114.583 C 106.127 115.748, 106.364 115.985, 106.683 115.188 C 106.972 114.466, 106.936 113.603, 106.604 113.271 C 106.272 112.939, 106.036 113.529, 106.079 114.583 M 105.079 119.583 C 105.127 120.748, 105.364 120.985, 105.683 120.188 C 105.972 119.466, 105.936 118.603, 105.604 118.271 C 105.272 117.939, 105.036 118.529, 105.079 119.583 M 148.564 119.707 C 148.022 121.132, 148.136 121.247, 149.124 120.267 C 149.808 119.588, 150.115 118.781, 149.807 118.474 C 149.499 118.166, 148.940 118.721, 148.564 119.707 M 144.695 127.550 C 141.023 135.036, 141.362 135.923, 145.115 128.650 C 146.775 125.432, 147.966 122.633, 147.761 122.428 C 147.557 122.223, 146.177 124.528, 144.695 127.550 M 103.158 129 C 103.158 130.375, 103.385 130.938, 103.662 130.250 C 103.940 129.563, 103.940 128.438, 103.662 127.750 C 103.385 127.063, 103.158 127.625, 103.158 129 M 102.079 133.583 C 102.127 134.748, 102.364 134.985, 102.683 134.188 C 102.972 133.466, 102.936 132.603, 102.604 132.271 C 102.272 131.939, 102.036 132.529, 102.079 133.583 M 101.079 138.583 C 101.127 139.748, 101.364 139.985, 101.683 139.188 C 101.972 138.466, 101.936 137.603, 101.604 137.271 C 101.272 136.939, 101.036 137.529, 101.079 138.583 M 139.999 138.250 C 139.999 138.662, 147.216 139, 156.035 139 C 171.579 139, 172.039 139.059, 171.035 140.934 C 170.466 141.998, 170.016 143.236, 170.035 143.684 C 170.076 144.610, 172.910 139.880, 172.965 138.797 C 172.984 138.410, 165.574 137.960, 156.499 137.797 C 147.423 137.633, 139.998 137.838, 139.999 138.250 M 100.079 143.583 C 100.127 144.748, 100.364 144.985, 100.683 144.188 C 100.972 143.466, 100.936 142.603, 100.604 142.271 C 100.272 141.939, 100.036 142.529, 100.079 143.583 M 166.564 149.707 C 166.022 151.132, 166.136 151.247, 167.124 150.267 C 167.808 149.588, 168.115 148.781, 167.807 148.474 C 167.499 148.166, 166.940 148.721, 166.564 149.707 M 98.079 152.583 C 98.127 153.748, 98.364 153.985, 98.683 153.188 C 98.972 152.466, 98.936 151.603, 98.604 151.271 C 98.272 150.939, 98.036 151.529, 98.079 152.583 M 97.158 158 C 97.158 159.375, 97.385 159.938, 97.662 159.250 C 97.940 158.563, 97.940 157.438, 97.662 156.750 C 97.385 156.063, 97.158 156.625, 97.158 158 M 161 160 C 160.411 161.100, 160.155 162, 160.430 162 C 160.705 162, 161.411 161.100, 162 160 C 162.589 158.900, 162.845 158, 162.570 158 C 162.295 158, 161.589 158.900, 161 160 M 95.116 167.168 C 95.052 168.086, 94.741 169.661, 94.424 170.668 C 93.879 172.404, 93.909 172.407, 94.992 170.719 C 95.620 169.739, 95.931 168.164, 95.683 167.219 C 95.277 165.670, 95.221 165.665, 95.116 167.168 M 153 175 C 151.878 177.200, 151.184 179, 151.459 179 C 151.734 179, 152.878 177.200, 154 175 C 155.122 172.800, 155.816 171, 155.541 171 C 155.266 171, 154.122 172.800, 153 175 M 121.286 182.500 C 121.294 185.250, 121.488 186.256, 121.718 184.736 C 121.947 183.216, 121.941 180.966, 121.704 179.736 C 121.467 178.506, 121.279 179.750, 121.286 182.500 M 148.459 183.067 C 148.096 183.653, 148.014 184.348, 148.276 184.610 C 148.538 184.872, 149.019 184.392, 149.345 183.543 C 150.021 181.781, 149.445 181.471, 148.459 183.067 M 145.500 189 C 144.647 190.650, 144.174 192, 144.449 192 C 144.724 192, 145.647 190.650, 146.500 189 C 147.353 187.350, 147.826 186, 147.551 186 C 147.276 186, 146.353 187.350, 145.500 189 M 120.272 194 C 120.272 196.475, 120.467 197.488, 120.706 196.250 C 120.944 195.012, 120.944 192.988, 120.706 191.750 C 120.467 190.512, 120.272 191.525, 120.272 194 M 138 203 C 137.411 204.100, 137.155 205, 137.430 205 C 137.705 205, 138.411 204.100, 139 203 C 139.589 201.900, 139.845 201, 139.570 201 C 139.295 201, 138.589 201.900, 138 203 M 119.272 210 C 119.272 212.475, 119.467 213.488, 119.706 212.250 C 119.944 211.012, 119.944 208.988, 119.706 207.750 C 119.467 206.512, 119.272 207.525, 119.272 210 M 131.079 215.671 C 129.390 218.789, 128.201 221.535, 128.438 221.772 C 128.675 222.009, 130.255 219.457, 131.949 216.101 C 135.830 208.413, 135.183 208.092, 131.079 215.671 M 118.252 222.500 C 118.263 224.700, 118.468 225.482, 118.707 224.238 C 118.946 222.994, 118.937 221.194, 118.687 220.238 C 118.437 219.282, 118.241 220.300, 118.252 222.500 M 124.459 228.067 C 124.096 228.653, 124.014 229.348, 124.276 229.610 C 124.538 229.872, 125.019 229.392, 125.345 228.543 C 126.021 226.781, 125.445 226.471, 124.459 228.067 M 121.500 234 C 120.647 235.650, 120.174 237, 120.449 237 C 120.724 237, 121.647 235.650, 122.500 234 C 123.353 232.350, 123.826 231, 123.551 231 C 123.276 231, 122.353 232.350, 121.500 234 M 117 237.500 C 117 240.708, 117.309 243.025, 117.686 242.647 C 118.409 241.924, 118.200 232.867, 117.442 232.109 C 117.199 231.866, 117 234.292, 117 237.500" stroke="none" fill="#d9dcde" fill-rule="evenodd"/><path d="M 0 130.504 L 0 261.007 131.750 260.754 L 263.500 260.500 263.754 130.250 L 264.007 -0 132.004 -0 L 0 0 0 130.504 M 0.485 131 C 0.485 202.775, 0.604 232.137, 0.750 196.250 C 0.895 160.362, 0.895 101.637, 0.750 65.750 C 0.604 29.862, 0.485 59.225, 0.485 131 M 138.568 23.482 C 123.885 27.661, 110.141 38.778, 103.620 51.750 C 101.615 55.737, 99.738 59, 99.448 59 C 99.158 59, 97.026 57.989, 94.710 56.753 C 91.193 54.876, 88.935 54.506, 81 54.508 C 72.588 54.509, 70.906 54.822, 66.313 57.240 C 59.532 60.809, 54.340 66.192, 51.109 73 C 48.884 77.690, 48.497 79.875, 48.477 87.835 L 48.453 97.170 43.119 99.048 C 30.702 103.421, 21.806 113.890, 19.011 127.420 C 15.642 143.726, 24.780 161.470, 40.218 168.599 C 46.351 171.431, 46.950 171.507, 65.509 171.807 L 84.519 172.114 89.397 148.807 C 92.080 135.988, 96.014 117.412, 98.138 107.527 C 100.262 97.642, 102 88.803, 102 87.884 C 102 86.966, 102.712 85.941, 103.582 85.607 C 105.884 84.724, 174.803 84.861, 175.311 85.750 C 175.547 86.162, 171.298 95.671, 165.870 106.880 C 160.441 118.089, 156 127.641, 156 128.107 C 156 128.572, 163.600 129.076, 172.888 129.226 L 189.777 129.500 176.897 150.750 L 164.017 172 185.327 172 C 202.011 172, 207.816 171.650, 212.068 170.388 C 230.230 165, 244.349 150.041, 248.054 132.263 C 249.678 124.467, 248.715 110.980, 246.018 103.775 C 241.253 91.044, 229.231 79.111, 216.489 74.464 L 209.437 71.891 208.303 65.925 C 204.915 48.094, 190.242 31.333, 172.254 24.743 C 164.905 22.051, 146.071 21.346, 138.568 23.482 M 110 95.750 C 109.999 96.773, 95.075 168.057, 94.402 170.250 C 93.908 171.860, 95.003 172, 108.048 172 L 122.230 172 121.649 177.250 C 121.330 180.137, 120.828 185.875, 120.535 190 C 120.241 194.125, 119.279 207.259, 118.396 219.186 C 117.513 231.113, 116.954 241.361, 117.153 241.960 C 117.353 242.559, 123.214 232.350, 130.179 219.274 C 142.315 196.488, 157.646 167.805, 168.088 148.348 C 170.790 143.315, 173 138.928, 173 138.598 C 173 138.269, 165.800 138, 157 138 C 148.200 138, 141 137.794, 141 137.543 C 141 137.291, 145.500 127.777, 151 116.401 C 156.500 105.025, 161 95.555, 161 95.358 C 161 95.161, 149.525 95, 135.500 95 C 121.475 95, 110 95.338, 110 95.750" stroke="none" fill="#2469b2" fill-rule="evenodd"/></svg>