<svg xmlns="http://www.w3.org/2000/svg" width="255" height="237" viewBox="0 0 255 237" version="1.1"><path d="M 71.518 174.944 C 71.136 176.147, 68.762 180.139, 66.243 183.816 C 57.436 196.666, 56 199.680, 56 205.312 C 56 209.216, 56.623 211.452, 58.463 214.161 C 61.141 218.102, 68.035 222, 72.327 222 C 77.047 222, 83.371 218.280, 86.281 213.792 C 91.242 206.142, 89.649 198.921, 80.323 186.780 C 77.906 183.634, 75.092 179.191, 74.070 176.908 C 72.398 173.173, 72.142 172.976, 71.518 174.944 M 128 174.413 C 128 175.190, 124.643 180.827, 120.540 186.940 C 116.437 193.053, 112.787 199.617, 112.429 201.527 C 110.957 209.371, 114.586 216.218, 122.299 220.152 C 127.343 222.726, 132.579 222.206, 138.044 218.590 C 142.949 215.343, 145.361 210.797, 145.291 204.929 C 145.227 199.571, 143.519 195.906, 136.879 186.885 C 134.202 183.247, 131.327 178.634, 130.492 176.635 C 128.902 172.830, 128 172.026, 128 174.413 M 183.596 176.425 C 182.731 178.495, 179.820 183.217, 177.128 186.919 C 168.990 198.107, 167.296 202.670, 168.970 208.887 C 170.765 215.554, 178.815 222, 185.346 222 C 191.219 222, 198.718 216.557, 200.936 210.685 C 203.455 204.019, 201.290 197.123, 193.500 187 C 190.986 183.733, 188.083 179.170, 187.049 176.860 L 185.169 172.661 183.596 176.425" stroke="none" fill="#fafffc" fill-rule="evenodd"/><path d="M 0 118.504 L 0 237.008 127.750 236.754 L 255.500 236.500 255.754 118.250 L 256.008 0 128.004 0 L 0 0 0 118.504 M 0.484 119 C 0.484 184.175, 0.604 210.838, 0.750 178.250 C 0.896 145.663, 0.896 92.338, 0.750 59.750 C 0.604 27.163, 0.484 53.825, 0.484 119 M 139 9.649 C 128.902 11.669, 118.768 16.561, 111.312 23.014 C 106.295 27.357, 99.540 36.318, 97.222 41.705 L 94.993 46.886 89.247 44.193 C 84.460 41.950, 82.163 41.508, 75.500 41.550 C 68.751 41.592, 66.594 42.051, 61.710 44.482 C 54.969 47.837, 48.724 54.196, 45.661 60.824 C 43.902 64.631, 43.507 67.312, 43.539 75.244 L 43.577 84.989 40.265 85.610 C 36 86.410, 26.379 92.642, 22.411 97.174 C 15.912 104.598, 12.245 116.642, 13.518 126.384 C 14.505 133.943, 20.187 145.142, 25.250 149.511 C 31.002 154.474, 37.403 157.603, 44.474 158.911 C 52.407 160.377, 192.932 160.399, 202 158.936 C 221.227 155.832, 238.603 139.721, 242.915 121 C 244.396 114.570, 244.216 102.400, 242.547 96.131 C 238.201 79.800, 224.640 65.473, 209.228 60.930 C 205.912 59.952, 204.834 59.091, 204.413 57.085 C 202.754 49.183, 199.199 40.028, 195.832 34.987 C 188.411 23.873, 176.589 14.795, 165.127 11.408 C 159.532 9.754, 143.775 8.694, 139 9.649 M 71.718 171.615 C 71.323 172.010, 71 173.055, 71 173.937 C 71 174.818, 67.642 180.612, 63.538 186.811 C 59.433 193.010, 55.783 199.639, 55.426 201.541 C 53.368 212.511, 61.195 222, 72.300 222 C 77.847 222, 80.195 220.996, 84.769 216.665 C 88.582 213.056, 90.364 207.515, 89.411 202.235 C 88.518 197.289, 87.794 195.940, 80.832 186.268 C 77.574 181.740, 74.351 176.429, 73.672 174.466 C 72.992 172.503, 72.113 171.220, 71.718 171.615 M 127.137 174.499 C 126.411 176.506, 123.455 181.603, 120.569 185.824 C 111.905 198.498, 110.351 202.771, 112.065 209.205 C 114.115 216.895, 120.692 222, 128.549 222 C 138.143 222, 145.014 215.879, 145.779 206.648 C 146.326 200.058, 144.712 196.126, 137.565 186.630 C 134.527 182.593, 131.235 177.391, 130.249 175.070 L 128.456 170.849 127.137 174.499 M 184.085 173.315 C 183.488 174.863, 183 176.370, 183 176.663 C 183 176.956, 180.583 180.639, 177.629 184.848 C 167.584 199.161, 165.968 205.096, 169.977 212.956 C 172.747 218.385, 177.205 221.270, 183.653 221.804 C 190.140 222.342, 194.028 220.871, 197.963 216.390 C 204.941 208.442, 203.854 199.873, 194.242 187.055 C 191.171 182.960, 187.874 177.560, 186.915 175.055 L 185.171 170.500 184.085 173.315" stroke="none" fill="#1362ad" fill-rule="evenodd"/><path d="M 139 9.649 C 129.110 11.627, 115.273 18.015, 116.518 20.028 C 116.840 20.550, 116.518 20.758, 115.802 20.491 C 113.047 19.463, 101.437 32.619, 97.487 41.246 L 94.921 46.853 89.210 44.177 C 84.463 41.951, 82.151 41.508, 75.500 41.550 C 68.751 41.592, 66.594 42.051, 61.710 44.482 C 54.969 47.837, 48.724 54.196, 45.661 60.824 C 43.902 64.631, 43.507 67.312, 43.539 75.244 L 43.577 84.989 40.265 85.610 C 36 86.410, 26.379 92.642, 22.411 97.174 C 15.912 104.598, 12.245 116.642, 13.518 126.384 C 14.505 133.943, 20.187 145.142, 25.250 149.511 C 31.002 154.474, 37.403 157.603, 44.474 158.911 C 52.407 160.377, 192.932 160.399, 202 158.936 C 221.227 155.832, 238.603 139.721, 242.915 121 C 244.396 114.570, 244.216 102.400, 242.547 96.131 C 238.201 79.800, 224.640 65.473, 209.228 60.930 C 205.912 59.952, 204.834 59.091, 204.413 57.085 C 201.867 44.958, 193.280 28.034, 190.050 28.775 C 189.391 28.926, 189.122 28.611, 189.454 28.075 C 191.031 25.524, 174.447 14.162, 165.127 11.408 C 159.532 9.754, 143.775 8.694, 139 9.649 M 71.667 171.667 C 71.300 172.033, 71.014 173.046, 71.030 173.917 C 71.055 175.217, 71.251 175.174, 72.122 173.675 C 73.199 171.823, 72.887 170.447, 71.667 171.667 M 128 171.941 C 128 172.459, 128.445 173.157, 128.989 173.493 C 129.555 173.843, 129.723 173.442, 129.382 172.552 C 128.717 170.820, 128 170.503, 128 171.941 M 184.667 171.667 C 184.300 172.033, 184 172.798, 184 173.367 C 184 173.993, 184.466 173.934, 185.183 173.217 C 185.834 172.566, 186.134 171.801, 185.850 171.517 C 185.566 171.232, 185.033 171.300, 184.667 171.667 M 125.695 177.513 C 124.781 179.431, 124.239 181, 124.490 181 C 125.175 181, 128.210 174.877, 127.753 174.420 C 127.536 174.203, 126.610 175.594, 125.695 177.513 M 68 180 C 67.411 181.100, 67.155 182, 67.430 182 C 67.705 182, 68.411 181.100, 69 180 C 69.589 178.900, 69.845 178, 69.570 178 C 69.295 178, 68.589 178.900, 68 180 M 177.131 185.500 C 174.251 189.625, 172.103 193, 172.359 193 C 172.615 193, 174.811 190.188, 177.240 186.750 C 182.199 179.730, 183.287 178, 182.743 178 C 182.536 178, 180.011 181.375, 177.131 185.500 M 75.600 180 C 76.718 182.168, 84.159 192, 84.682 192 C 85.159 192, 80.251 185.071, 76.890 181 C 75.755 179.625, 75.175 179.175, 75.600 180 M 189 181.378 C 189 181.585, 189.787 182.373, 190.750 183.128 C 192.336 184.371, 192.371 184.336, 191.128 182.750 C 189.821 181.084, 189 180.555, 189 181.378 M 64.872 184.750 C 63.629 186.336, 63.664 186.371, 65.250 185.128 C 66.213 184.373, 67 183.585, 67 183.378 C 67 182.555, 66.179 183.084, 64.872 184.750 M 136.437 186.329 C 137.977 188.348, 139.440 190, 139.687 190 C 140.381 190, 136.052 184.150, 134.772 183.359 C 134.148 182.973, 134.897 184.310, 136.437 186.329 M 119.872 186.750 C 118.629 188.336, 118.664 188.371, 120.250 187.128 C 121.213 186.373, 122 185.585, 122 185.378 C 122 184.555, 121.179 185.084, 119.872 186.750 M 192 185.378 C 192 185.585, 192.787 186.373, 193.750 187.128 C 195.336 188.371, 195.371 188.336, 194.128 186.750 C 192.821 185.084, 192 184.555, 192 185.378 M 195 189.378 C 195 189.585, 195.787 190.373, 196.750 191.128 C 198.336 192.371, 198.371 192.336, 197.128 190.750 C 195.821 189.084, 195 188.555, 195 189.378 M 142.313 194.919 C 143.500 197.087, 144.624 198.709, 144.810 198.524 C 145.294 198.039, 142.193 192.237, 141.084 191.552 C 140.572 191.236, 141.125 192.751, 142.313 194.919 M 57.500 196 C 56.647 197.650, 56.174 199, 56.449 199 C 56.724 199, 57.647 197.650, 58.500 196 C 59.353 194.350, 59.826 193, 59.551 193 C 59.276 193, 58.353 194.350, 57.500 196 M 86.695 196.487 C 87.610 198.406, 88.536 199.797, 88.753 199.580 C 89.210 199.123, 86.175 193, 85.490 193 C 85.239 193, 85.781 194.569, 86.695 196.487 M 198.564 194.293 C 198.940 195.279, 199.499 195.834, 199.807 195.526 C 200.115 195.219, 199.808 194.412, 199.124 193.733 C 198.136 192.753, 198.022 192.868, 198.564 194.293 M 145.158 202 C 145.158 203.375, 145.385 203.938, 145.662 203.250 C 145.940 202.563, 145.940 201.438, 145.662 200.750 C 145.385 200.063, 145.158 200.625, 145.158 202 M 168.079 201.583 C 168.127 202.748, 168.364 202.985, 168.683 202.188 C 168.972 201.466, 168.936 200.603, 168.604 200.271 C 168.272 199.939, 168.036 200.529, 168.079 201.583 M 55.272 205 C 55.272 207.475, 55.467 208.488, 55.706 207.250 C 55.944 206.012, 55.944 203.988, 55.706 202.750 C 55.467 201.512, 55.272 202.525, 55.272 205 M 89.195 205.500 C 89.215 207.150, 89.439 207.704, 89.693 206.731 C 89.947 205.758, 89.930 204.408, 89.656 203.731 C 89.382 203.054, 89.175 203.850, 89.195 205.500 M 202.158 205 C 202.158 206.375, 202.385 206.938, 202.662 206.250 C 202.940 205.563, 202.940 204.438, 202.662 203.750 C 202.385 203.063, 202.158 203.625, 202.158 205 M 111.079 205.583 C 111.127 206.748, 111.364 206.985, 111.683 206.188 C 111.972 205.466, 111.936 204.603, 111.604 204.271 C 111.272 203.939, 111.036 204.529, 111.079 205.583 M 145.079 208.583 C 145.127 209.748, 145.364 209.985, 145.683 209.188 C 145.972 208.466, 145.936 207.603, 145.604 207.271 C 145.272 206.939, 145.036 207.529, 145.079 208.583 M 168.079 208.583 C 168.127 209.748, 168.364 209.985, 168.683 209.188 C 168.972 208.466, 168.936 207.603, 168.604 207.271 C 168.272 206.939, 168.036 207.529, 168.079 208.583 M 86.224 213.792 L 83.947 217.500 86.474 214.694 C 87.863 213.151, 89 211.464, 89 210.944 C 89 209.474, 88.663 209.820, 86.224 213.792 M 143.564 212.707 C 143.022 214.132, 143.136 214.247, 144.124 213.267 C 144.808 212.588, 145.115 211.781, 144.807 211.474 C 144.499 211.166, 143.940 211.721, 143.564 212.707 M 57.884 214.783 C 59.217 217.273, 64.864 221.470, 65.724 220.609 C 66.059 220.274, 65.823 220, 65.200 220 C 64.577 220, 62.425 218.359, 60.419 216.353 C 58.389 214.323, 57.265 213.627, 57.884 214.783 M 170.836 214.680 C 172.201 217.247, 177.845 221.489, 178.724 220.609 C 179.059 220.274, 178.853 220, 178.267 220 C 177.680 220, 175.507 218.313, 173.438 216.250 C 171.138 213.956, 170.127 213.347, 170.836 214.680 M 116 216.382 C 118.609 219.313, 123.835 222.498, 124.668 221.665 C 124.934 221.400, 124.187 220.877, 123.010 220.503 C 121.832 220.129, 119.211 218.417, 117.184 216.699 C 113.727 213.766, 113.654 213.747, 116 216.382 M 196.437 217.250 L 193.500 220.500 196.750 217.563 C 199.779 214.825, 200.460 214, 199.687 214 C 199.515 214, 198.052 215.463, 196.437 217.250 M 138.601 218.068 C 136.457 219.681, 135.124 221, 135.639 221 C 136.154 221, 138.134 219.668, 140.038 218.041 C 144.468 214.254, 143.653 214.270, 138.601 218.068 M 77 221 C 76.175 221.533, 75.950 221.969, 76.500 221.969 C 77.050 221.969, 78.175 221.533, 79 221 C 79.825 220.467, 80.050 220.031, 79.500 220.031 C 78.950 220.031, 77.825 220.467, 77 221 M 190 221 C 189.175 221.533, 188.950 221.969, 189.500 221.969 C 190.050 221.969, 191.175 221.533, 192 221 C 192.825 220.467, 193.050 220.031, 192.500 220.031 C 191.950 220.031, 190.825 220.467, 190 221" stroke="none" fill="#d6d8d9" fill-rule="evenodd"/></svg>