<svg xmlns="http://www.w3.org/2000/svg" width="286" height="315" viewBox="0 0 286 315" version="1.1"><path d="M 139.848 187.667 C 139.764 188.125, 139.591 188.950, 139.463 189.500 C 139.335 190.050, 139.179 191.357, 139.115 192.405 C 139.007 194.197, 138.890 194.210, 137.143 192.630 C 135.549 191.187, 135.120 191.151, 134.106 192.373 C 133.154 193.519, 133.540 194.278, 136.089 196.272 C 138.755 198.359, 139.285 199.485, 139.456 203.421 C 139.568 205.990, 139.397 208.255, 139.076 208.453 C 138.756 208.651, 136.638 207.717, 134.370 206.378 C 130.942 204.353, 130.139 203.273, 129.611 199.971 C 128.889 195.452, 126 194.275, 126 198.500 C 126 201.382, 125.277 201.583, 122.330 199.518 C 120.547 198.270, 120.036 198.252, 119.080 199.403 C 118.187 200.480, 118.641 201.218, 121.223 202.883 C 124.381 204.921, 124.419 205.019, 122.250 205.615 C 121.013 205.955, 120 206.856, 120 207.617 C 120 209.123, 123.270 209.349, 126.500 208.064 C 128.877 207.119, 132.261 208.234, 135.129 210.906 L 137.207 212.842 134.071 214.463 C 132.346 215.355, 131.171 216.468, 131.460 216.936 C 131.947 217.724, 129.673 217.352, 122.750 215.514 C 120.541 214.927, 120 215.118, 120 216.485 C 120 217.421, 120.869 218.414, 121.931 218.692 C 122.993 218.970, 124.113 219.851, 124.419 220.650 C 124.726 221.450, 124.543 221.836, 124.012 221.508 C 123.482 221.180, 121.930 221.497, 120.564 222.212 C 118.779 223.148, 118.330 223.915, 118.964 224.942 C 119.595 225.962, 120.227 226.076, 121.174 225.341 C 121.903 224.774, 123.319 224.017, 124.321 223.659 C 125.807 223.128, 126.083 223.459, 125.821 225.458 C 125.644 226.805, 125.838 227.929, 126.250 227.954 C 126.662 227.979, 127.445 228, 127.988 228 C 128.532 228, 129.250 226.289, 129.584 224.197 C 130.093 221.014, 130.870 220.036, 134.346 218.194 C 136.631 216.984, 138.772 215.996, 139.105 215.997 C 139.590 215.999, 139.576 220.392, 139.077 225.242 C 139.034 225.651, 137.654 227.184, 136.008 228.650 C 133.670 230.733, 133.265 231.614, 134.152 232.683 C 135.107 233.834, 135.554 233.809, 136.972 232.525 C 139.171 230.535, 140.375 230.582, 139.590 232.627 C 139.246 233.521, 139.536 234.958, 140.233 235.819 C 141.292 237.127, 141.253 237.246, 140 236.545 C 138.829 235.891, 138.755 235.983, 139.663 236.966 C 141.362 238.806, 143 237.321, 143 233.941 C 143 230.687, 144.083 230.190, 146.039 232.547 C 147.060 233.777, 147.487 233.829, 148.121 232.803 C 148.632 231.977, 147.855 230.414, 145.961 228.459 C 143.730 226.158, 142.961 224.371, 142.837 221.201 C 142.746 218.887, 142.917 216.750, 143.216 216.451 C 143.515 216.152, 145.579 216.855, 147.802 218.014 C 151.195 219.782, 151.951 220.753, 152.509 224.055 C 152.875 226.219, 153.635 228.275, 154.199 228.623 C 155.600 229.489, 156.865 227.199, 156.261 224.889 C 155.658 222.586, 156.340 222.522, 159.491 224.586 C 161.740 226.060, 164 225.845, 164 224.157 C 164 223.758, 162.570 222.586, 160.822 221.554 C 157.697 219.708, 157.682 219.662, 159.905 218.839 C 161.150 218.379, 162.006 217.518, 161.809 216.926 C 161.384 215.651, 161.134 215.633, 156.047 216.492 C 152.842 217.034, 151.459 216.704, 148.502 214.695 L 144.883 212.236 148.504 209.997 C 151.493 208.150, 152.976 207.872, 156.989 208.404 C 162.546 209.141, 164.664 207.583, 160.340 205.939 L 157.559 204.882 160.724 202.878 C 162.684 201.637, 163.679 200.327, 163.337 199.437 C 162.654 197.655, 162.019 197.671, 159.559 199.532 C 156.866 201.568, 155.984 201.370, 156.262 198.791 C 156.408 197.438, 155.881 196.452, 154.901 196.247 C 153.732 196.002, 153.061 197.059, 152.401 200.187 C 151.639 203.797, 150.838 204.826, 147.250 206.806 L 143 209.150 143 204.084 C 143 199.696, 143.425 198.611, 146.175 195.983 C 148.569 193.695, 149.067 192.667, 148.198 191.798 C 147.330 190.930, 146.550 191.097, 145.024 192.479 C 143.052 194.263, 142.997 194.254, 142.875 192.155 C 142.806 190.970, 142.694 189.475, 142.625 188.833 C 142.478 187.461, 140.070 186.449, 139.848 187.667 M 208 190.500 C 208 194.269, 207.002 194.913, 204.965 192.458 C 204.078 191.389, 203.365 191.235, 202.644 191.956 C 201.924 192.676, 202.587 194.010, 204.802 196.296 C 207.354 198.929, 208 200.432, 208 203.739 C 208 206.017, 207.662 208.080, 207.250 208.323 C 206.838 208.565, 204.831 207.697, 202.792 206.394 C 200.089 204.667, 198.790 202.935, 198.003 200.012 C 196.761 195.397, 193.403 194.095, 194.256 198.558 C 194.651 200.625, 194.434 200.984, 193.122 200.429 C 187.104 197.882, 185.063 199.377, 189.750 202.900 C 192.499 204.966, 192.499 204.968, 190.250 205.600 C 188.976 205.959, 188 207.020, 188 208.047 C 188 209.582, 188.456 209.730, 190.967 209.009 C 192.600 208.541, 194.404 207.868, 194.977 207.514 C 196.347 206.668, 205.141 211.076, 204.704 212.389 C 204.518 212.947, 202.847 214.251, 200.991 215.288 C 197.764 217.091, 196.224 217.108, 190.250 215.407 C 187.334 214.577, 187.091 217.577, 190 218.500 C 191.100 218.849, 192 219.806, 192 220.626 C 192 221.447, 191.616 221.881, 191.147 221.591 C 190.678 221.301, 189.441 221.694, 188.397 222.465 C 186.949 223.534, 186.776 224.145, 187.666 225.048 C 188.562 225.958, 189.365 225.858, 191.138 224.616 C 194.373 222.350, 194.893 222.573, 194.353 226 C 193.576 230.929, 196.536 229.731, 197.993 224.526 C 198.934 221.163, 200.097 219.550, 202.680 218.026 C 204.569 216.912, 206.539 216, 207.057 216 C 207.576 216, 208 218.050, 208 220.556 C 208 224.388, 207.501 225.569, 204.863 227.978 C 202.713 229.942, 201.933 231.383, 202.384 232.558 C 202.994 234.147, 203.173 234.153, 204.850 232.636 C 207.468 230.266, 208 230.581, 208 234.500 C 208 236.425, 208.464 238, 209.031 238 C 210.719 238, 211.320 235.091, 209.969 233.463 C 209.279 232.632, 209.004 231.663, 209.357 231.309 C 209.711 230.956, 210.007 231.304, 210.015 232.083 C 210.028 233.275, 210.177 233.268, 210.954 232.040 C 211.748 230.784, 212.153 230.829, 213.840 232.355 C 215.202 233.588, 216.014 233.786, 216.499 233.002 C 217.254 231.780, 214.181 227.770, 213.033 228.480 C 212.241 228.969, 212.142 228.539, 211.366 221.250 C 211.059 218.363, 211.093 216, 211.443 216 C 211.793 216, 213.803 216.879, 215.909 217.954 C 219.078 219.570, 219.936 220.687, 220.876 224.420 C 221.677 227.601, 222.424 228.775, 223.407 228.397 C 224.175 228.103, 224.680 227.105, 224.531 226.181 C 224.077 223.375, 224.979 222.940, 227.637 224.682 C 229.776 226.083, 230.306 226.124, 231.036 224.941 C 231.655 223.940, 231.032 222.990, 228.853 221.610 L 225.805 219.680 228.383 218.590 C 232.382 216.900, 230.358 214.750, 225.955 216.013 C 221.278 217.354, 221.045 217.320, 216.597 214.627 L 212.693 212.264 217.189 209.629 C 221.115 207.329, 222.088 207.135, 224.855 208.099 C 228.187 209.261, 231 208.772, 231 207.031 C 231 206.464, 230.100 206, 229 206 C 226.243 206, 226.497 204.533, 229.652 202.235 C 233.243 199.619, 231.967 197.449, 228.034 199.483 C 226.464 200.294, 224.928 201.530, 224.619 202.229 C 224.310 202.928, 224.157 201.970, 224.279 200.099 C 224.409 198.101, 223.984 196.520, 223.251 196.266 C 221.969 195.823, 221.606 196.495, 220.571 201.222 C 220.043 203.638, 213.973 209, 211.768 209 C 211.346 209, 211 206.927, 211 204.394 C 211 200.776, 211.649 198.968, 214.025 195.968 C 216.132 193.308, 216.693 191.928, 215.873 191.422 C 215.224 191.020, 214.155 191.435, 213.488 192.347 C 211.660 194.848, 211 194.358, 211 190.500 C 211 188.056, 210.548 187, 209.500 187 C 208.452 187, 208 188.056, 208 190.500 M 78.996 192.250 C 78.993 192.938, 77.668 195.495, 76.050 197.934 C 74.432 200.372, 73.379 202.804, 73.709 203.338 C 74.039 203.872, 73.890 204.050, 73.378 203.734 C 72.069 202.925, 64.971 214.205, 63.936 218.739 C 61.319 230.208, 72.914 241.440, 83.955 238.132 C 88.991 236.623, 93.888 232.513, 95.636 228.329 C 98.547 221.361, 96.656 214.827, 88.838 204.837 C 86.401 201.722, 83.527 197.340, 82.453 195.098 C 80.524 191.073, 79.004 189.821, 78.996 192.250 M 174.527 234.250 C 174.302 234.938, 173.978 236.357, 173.809 237.406 C 173.639 238.454, 172.710 239.427, 171.745 239.568 C 170.780 239.709, 170.225 239.445, 170.512 238.981 C 170.798 238.518, 170.525 237.824, 169.905 237.441 C 169.284 237.058, 168.426 237.311, 167.998 238.003 C 167.501 238.807, 168.447 240.390, 170.610 242.375 C 173.404 244.939, 174 246.206, 174 249.576 C 174 251.826, 173.719 253.948, 173.375 254.291 C 172.458 255.208, 165.067 250.756, 164.592 249 C 164.369 248.175, 163.910 246.262, 163.574 244.750 C 162.797 241.258, 160 241.063, 160 244.500 C 160 247.384, 158.440 247.709, 155.850 245.364 C 154.170 243.844, 153.992 243.858, 153.341 245.554 C 152.955 246.560, 153.106 247.535, 153.678 247.726 C 154.249 247.916, 155.568 248.724, 156.608 249.520 C 158.440 250.921, 158.429 250.987, 156.250 251.600 C 155.012 251.948, 154 252.856, 154 253.617 C 154 255.241, 156.798 255.408, 160.492 254.003 C 162.598 253.202, 163.887 253.448, 167.040 255.253 C 170.413 257.184, 173.339 260.359, 171.214 259.782 C 170.821 259.676, 168.975 260.400, 167.112 261.392 C 163.882 263.110, 162.238 263.113, 156.250 261.407 C 154.544 260.922, 154 261.180, 154 262.477 C 154 263.418, 154.900 264.423, 156 264.710 C 158.685 265.412, 158.519 266.442, 155.500 267.818 C 154.125 268.445, 153 269.342, 153 269.812 C 153 271.639, 154.369 271.861, 157.061 270.468 C 159.782 269.061, 159.878 269.098, 160.184 271.681 C 160.696 275.997, 162.653 275.436, 163.864 270.626 C 164.709 267.269, 165.817 265.658, 168.361 264.086 C 173.202 261.094, 174 261.404, 174 266.277 C 174 269.651, 173.354 271.261, 170.941 273.903 C 169.144 275.871, 168.122 277.875, 168.462 278.762 C 168.971 280.088, 169.263 280.072, 170.850 278.636 C 173.637 276.114, 174.637 276.672, 174.190 280.500 C 173.872 283.219, 174.140 284, 175.391 284 C 176.563 284, 177 283.050, 177 280.500 C 177 276.836, 177.788 276.188, 179.800 278.200 C 180.605 279.005, 181.331 279.069, 182.007 278.393 C 182.682 277.718, 182.024 276.439, 180.007 274.506 C 177.480 272.086, 177 270.858, 177 266.813 C 177 264.166, 177.276 262, 177.614 262 C 177.951 262, 179.938 262.961, 182.028 264.136 C 184.983 265.797, 185.979 267.074, 186.505 269.878 C 187.357 274.420, 187.747 275.034, 189.384 274.406 C 190.195 274.095, 190.516 272.920, 190.217 271.355 L 189.730 268.809 192.998 270.499 C 195.686 271.889, 196.415 271.950, 197.108 270.844 C 197.702 269.897, 197.073 269.077, 194.975 268.069 C 191.325 266.312, 191.221 265.412, 194.571 264.572 C 195.985 264.217, 196.949 263.380, 196.713 262.713 C 196.292 261.521, 195.501 261.505, 189.500 262.563 C 187.395 262.935, 185.351 262.382, 182.647 260.709 L 178.794 258.325 183.112 255.775 C 187.130 253.402, 187.723 253.313, 191.653 254.496 C 195.252 255.579, 195.959 255.550, 196.438 254.302 C 197.288 252.086, 197.209 252.002, 194.250 251.973 L 191.500 251.946 194.644 249.223 C 198.611 245.788, 198.168 243.345, 193.971 245.515 C 190.359 247.383, 188.060 247.540, 189.800 245.800 C 191.600 244, 191.246 242, 189.128 242 C 187.717 242, 187.098 242.985, 186.617 245.994 C 186.097 249.245, 185.239 250.455, 182.009 252.494 C 179.826 253.872, 177.806 255, 177.520 255 C 177.234 255, 177 252.753, 177 250.008 C 177 245.721, 177.424 244.637, 180 242.342 C 182.806 239.842, 184.219 237.129, 182 238.500 C 181.450 238.840, 180.986 238.529, 180.968 237.809 C 180.947 236.940, 180.490 237.088, 179.608 238.250 C 177.644 240.837, 177 240.405, 177 236.500 C 177 233.137, 175.377 231.660, 174.527 234.250 M 107.022 238.946 C 106.330 240.617, 103.821 244.776, 101.445 248.189 C 99.070 251.603, 97.392 254.826, 97.718 255.352 C 98.043 255.878, 97.830 256.013, 97.245 255.652 C 95.525 254.588, 92 263.114, 92 268.337 C 92 284.653, 114.109 290.727, 122.345 276.674 C 127.190 268.407, 125.905 262.621, 116.363 249.751 C 113.814 246.313, 110.953 241.792, 110.004 239.705 L 108.280 235.910 107.022 238.946" stroke="none" fill="#fffff5" fill-rule="evenodd"/><path d="M 158 26.690 C 152.590 27.595, 143.047 31.218, 138.530 34.083 C 128.319 40.559, 117.419 53.496, 115.401 61.537 C 115.061 62.892, 114.691 64, 114.579 64 C 114.467 64, 112.565 63.125, 110.351 62.055 C 99.830 56.972, 90.595 56.956, 80.344 62.002 C 69.361 67.409, 62.500 78.174, 62.500 90 C 62.500 93.575, 62.725 97.578, 63 98.895 C 63.445 101.028, 62.928 101.486, 58.287 103.072 C 36.422 110.543, 26.593 134.141, 36.413 155.591 C 41.115 165.862, 51.639 173.656, 63.960 175.992 C 71.064 177.340, 211.096 177.308, 220.444 175.957 C 228.778 174.752, 239.588 169.740, 246.178 164.024 C 264.787 147.885, 268.646 118.672, 254.890 98.073 C 248.662 88.746, 236.643 79.956, 226.709 77.463 C 224.823 76.990, 223.820 75.965, 223.455 74.139 C 223.165 72.688, 222.216 69.025, 221.345 66 C 215.959 47.292, 200.359 32.581, 180.540 27.522 C 175.023 26.113, 163.904 25.703, 158 26.690 M 139 186.786 C 139 187.218, 139.900 187.571, 141 187.571 C 142.100 187.571, 143 187.218, 143 186.786 C 143 186.354, 142.100 186, 141 186 C 139.900 186, 139 186.354, 139 186.786 M 207 189.655 C 207 193.153, 206.920 193.238, 205.143 191.630 C 203.463 190.109, 203.163 190.098, 201.987 191.516 C 200.885 192.844, 201.167 193.577, 203.844 196.339 C 206.382 198.958, 207 200.429, 207 203.857 C 207 206.823, 206.649 207.901, 205.845 207.405 C 205.124 206.959, 204.963 207.131, 205.415 207.862 C 206.726 209.984, 208 207.952, 208 203.739 C 208 200.432, 207.354 198.929, 204.802 196.296 C 202.587 194.010, 201.924 192.676, 202.644 191.956 C 203.365 191.235, 204.078 191.389, 204.965 192.458 C 207.002 194.913, 208 194.269, 208 190.500 C 208 188.056, 208.452 187, 209.500 187 C 210.548 187, 211 188.056, 211 190.500 C 211 194.358, 211.660 194.848, 213.488 192.347 C 214.155 191.435, 215.224 191.020, 215.873 191.422 C 216.693 191.928, 216.132 193.308, 214.025 195.968 C 211.649 198.968, 211 200.776, 211 204.394 C 211 206.927, 211.338 208.997, 211.750 208.993 C 212.162 208.990, 213.850 208.093, 215.500 207 C 217.150 205.907, 218.147 205.010, 217.715 205.007 C 217.283 205.003, 215.820 205.727, 214.465 206.615 L 212 208.230 212 203.913 C 212 200.409, 212.604 198.972, 215.205 196.288 C 218.187 193.211, 218.295 192.867, 216.755 191.327 C 215.389 189.960, 214.830 189.896, 213.550 190.958 C 212.206 192.074, 212 191.829, 212 189.122 C 212 186.459, 211.633 186, 209.500 186 C 207.289 186, 207 186.423, 207 189.655 M 79.583 188.866 C 79.152 189.563, 79.070 190.403, 79.400 190.733 C 80.295 191.628, 81.271 190.312, 80.787 188.862 C 80.449 187.846, 80.213 187.846, 79.583 188.866 M 133.559 191.532 C 132.491 192.339, 132.127 193, 132.750 193 C 133.373 193, 134.178 192.521, 134.540 191.935 C 134.970 191.240, 135.946 191.500, 137.349 192.685 L 139.500 194.500 137.595 192.250 C 136.547 191.012, 135.647 190.014, 135.595 190.032 C 135.543 190.049, 134.626 190.724, 133.559 191.532 M 144.405 192.250 L 142.500 194.500 144.774 192.574 C 146.488 191.121, 147.330 190.930, 148.198 191.798 C 149.067 192.667, 148.549 193.714, 146.094 196.061 C 144.303 197.772, 143.018 199.351, 143.238 199.571 C 143.457 199.790, 145.139 198.420, 146.975 196.526 C 149.784 193.628, 150.110 192.838, 149.034 191.541 C 147.329 189.487, 146.657 189.590, 144.405 192.250 M 77.144 194.750 C 76.053 197.300, 76.078 197.359, 77.484 195.559 C 78.318 194.491, 79 193.254, 79 192.809 C 79 191.289, 78.322 191.999, 77.144 194.750 M 81 192.941 C 81 193.459, 81.445 194.157, 81.989 194.493 C 82.555 194.843, 82.723 194.442, 82.382 193.552 C 81.717 191.820, 81 191.503, 81 192.941 M 125.345 196.543 C 125.019 197.392, 125.034 198.367, 125.376 198.710 C 125.719 199.053, 126 198.616, 126 197.740 C 126 196.864, 126.787 195.941, 127.750 195.689 C 129.390 195.261, 129.388 195.225, 127.719 195.116 C 126.739 195.052, 125.671 195.694, 125.345 196.543 M 154.500 196 C 157.249 197.181, 158.828 197.181, 157 196 C 156.175 195.467, 154.825 195.055, 154 195.086 C 153.011 195.122, 153.181 195.433, 154.500 196 M 196.211 196.399 C 196.920 197.169, 197.658 197.649, 197.850 197.466 C 198.443 196.902, 196.940 195, 195.902 195 C 195.362 195, 195.501 195.630, 196.211 196.399 M 221 196.059 C 221 196.641, 221.470 196.828, 222.044 196.473 C 222.618 196.118, 223.743 196.372, 224.544 197.036 C 225.403 197.749, 226 197.828, 226 197.229 C 226 196.235, 223.739 195, 221.918 195 C 221.413 195, 221 195.477, 221 196.059 M 193.079 197.583 C 193.127 198.748, 193.364 198.985, 193.683 198.188 C 193.972 197.466, 193.936 196.603, 193.604 196.271 C 193.272 195.939, 193.036 196.529, 193.079 197.583 M 84.620 199.250 C 85.455 200.663, 91.900 208.972, 93.347 210.500 C 95.127 212.380, 92.694 208.591, 88.693 203.250 C 85.090 198.441, 82.833 196.224, 84.620 199.250 M 187.813 198.683 C 188.534 198.972, 189.397 198.936, 189.729 198.604 C 190.061 198.272, 189.471 198.036, 188.417 198.079 C 187.252 198.127, 187.015 198.364, 187.813 198.683 M 227.507 198.989 C 227.157 199.555, 227.558 199.723, 228.448 199.382 C 230.180 198.717, 230.497 198, 229.059 198 C 228.541 198, 227.843 198.445, 227.507 198.989 M 156 200 C 156 200.550, 156.477 201, 157.059 201 C 157.641 201, 157.840 200.550, 157.500 200 C 157.160 199.450, 156.684 199, 156.441 199 C 156.198 199, 156 199.450, 156 200 M 220.079 199.668 C 220.036 200.311, 219.741 201.661, 219.424 202.668 C 218.877 204.409, 218.906 204.412, 219.995 202.712 C 220.626 201.729, 220.920 200.379, 220.650 199.712 C 220.295 198.837, 220.136 198.825, 220.079 199.668 M 224 200.941 C 224 203.356, 224.556 203.599, 225.349 201.532 C 225.659 200.725, 225.482 199.798, 224.956 199.473 C 224.430 199.148, 224 199.809, 224 200.941 M 186 200.801 C 186 201.275, 187.134 202.269, 188.519 203.010 C 190.350 203.990, 190.691 204.579, 189.769 205.164 C 188.854 205.745, 188.832 205.974, 189.691 205.985 C 192.155 206.016, 191.819 204.243, 188.961 202.129 C 187.332 200.925, 186 200.328, 186 200.801 M 229.750 202.115 C 226.940 204.211, 226.162 206, 228.059 206 C 228.641 206, 228.841 205.552, 228.503 205.004 C 228.164 204.457, 229.038 203.484, 230.444 202.844 C 231.850 202.203, 233 201.301, 233 200.839 C 233 199.718, 232.921 199.749, 229.750 202.115 M 72.543 201.931 C 72.226 202.443, 72.350 203.098, 72.817 203.387 C 73.284 203.676, 73.667 203.257, 73.667 202.456 C 73.667 200.770, 73.351 200.623, 72.543 201.931 M 130 202.441 C 130 203.234, 130.408 204.134, 130.907 204.442 C 131.405 204.751, 131.578 204.102, 131.290 203.001 C 130.679 200.666, 130 200.371, 130 202.441 M 149 204.830 C 146.736 207.038, 146.707 207.160, 148.694 206.128 C 149.901 205.502, 151.184 204.512, 151.544 203.928 C 152.775 201.937, 151.504 202.387, 149 204.830 M 69.232 206.750 C 66.643 210.489, 65.802 212, 66.308 212 C 66.542 212, 67.925 210.200, 69.381 208 C 72.340 203.529, 72.211 202.448, 69.232 206.750 M 122 205 C 121.099 205.582, 120.975 205.975, 121.691 205.985 C 122.346 205.993, 123.160 205.550, 123.500 205 C 124.267 203.758, 123.921 203.758, 122 205 M 158.483 204.973 C 158.750 205.405, 159.876 205.996, 160.986 206.286 C 162.095 206.576, 162.784 206.460, 162.517 206.027 C 162.250 205.595, 161.124 205.004, 160.014 204.714 C 158.905 204.424, 158.216 204.540, 158.483 204.973 M 119.319 207.489 C 119.439 208.654, 120.346 209.561, 121.511 209.681 C 122.954 209.829, 123.036 209.747, 121.811 209.381 C 120.883 209.104, 119.896 208.117, 119.619 207.189 C 119.253 205.964, 119.171 206.046, 119.319 207.489 M 231 206.866 C 231 207.525, 229.988 208.471, 228.750 208.969 C 226.525 209.863, 226.524 209.874, 228.643 209.937 C 230.649 209.996, 232.683 207.350, 231.524 206.190 C 231.236 205.902, 231 206.206, 231 206.866 M 194 208 C 193.175 208.533, 192.950 208.969, 193.500 208.969 C 194.050 208.969, 195.175 208.533, 196 208 C 196.825 207.467, 197.050 207.031, 196.500 207.031 C 195.950 207.031, 194.825 207.467, 194 208 M 131 209 C 131.825 209.533, 132.950 209.969, 133.500 209.969 C 134.050 209.969, 133.825 209.533, 133 209 C 132.175 208.467, 131.050 208.031, 130.500 208.031 C 129.950 208.031, 130.175 208.467, 131 209 M 155.813 208.683 C 156.534 208.972, 157.397 208.936, 157.729 208.604 C 158.061 208.272, 157.471 208.036, 156.417 208.079 C 155.252 208.127, 155.015 208.364, 155.813 208.683 M 160.500 209 C 158.592 209.820, 158.603 209.863, 160.750 209.930 C 161.988 209.968, 163 209.550, 163 209 C 163 208.450, 162.887 208.032, 162.750 208.070 C 162.613 208.109, 161.600 208.527, 160.500 209 M 198 208.393 C 198 208.609, 198.698 209.054, 199.552 209.382 C 200.442 209.723, 200.843 209.555, 200.493 208.989 C 199.906 208.038, 198 207.583, 198 208.393 M 217.441 209.555 C 215.577 211.049, 215.589 211.067, 217.750 210.020 C 218.988 209.420, 220 208.720, 220 208.465 C 220 207.700, 219.481 207.921, 217.441 209.555 M 189.813 209.683 C 190.534 209.972, 191.397 209.936, 191.729 209.604 C 192.061 209.272, 191.471 209.036, 190.417 209.079 C 189.252 209.127, 189.015 209.364, 189.813 209.683 M 135.318 211.651 C 135.676 212.009, 135.188 212.934, 134.234 213.706 C 132.682 214.963, 132.739 214.994, 134.778 214.005 C 136.739 213.053, 137.079 211, 135.274 211 C 134.940 211, 134.960 211.293, 135.318 211.651 M 202.750 213.167 C 201.787 214.175, 201.395 215, 201.878 215 C 202.886 215, 205.483 212.108, 204.893 211.643 C 204.677 211.472, 203.713 212.158, 202.750 213.167 M 94.564 213.293 C 94.940 214.279, 95.499 214.834, 95.807 214.526 C 96.115 214.219, 95.808 213.412, 95.124 212.733 C 94.136 211.753, 94.022 211.868, 94.564 213.293 M 64.459 214.067 C 64.096 214.653, 64.014 215.348, 64.276 215.610 C 64.538 215.872, 65.019 215.392, 65.345 214.543 C 66.021 212.781, 65.445 212.471, 64.459 214.067 M 149 214.859 C 150.375 216.012, 152.625 216.904, 154 216.842 L 156.500 216.728 154.073 216.271 C 152.739 216.020, 150.489 215.128, 149.073 214.289 L 146.500 212.763 149 214.859 M 215 213.430 C 215 213.705, 215.900 214.411, 217 215 C 218.100 215.589, 219 215.845, 219 215.570 C 219 215.295, 218.100 214.589, 217 214 C 215.900 213.411, 215 213.155, 215 213.430 M 161.356 216.506 C 161.435 217.877, 161.838 218.999, 162.250 218.999 C 163.309 219, 163.186 215.233, 162.106 214.566 C 161.615 214.262, 161.277 215.135, 161.356 216.506 M 230.373 215.702 C 230.601 216.913, 230.273 218.115, 229.644 218.373 C 228.818 218.712, 228.831 218.864, 229.691 218.921 C 231.439 219.037, 231.870 217.769, 230.854 215.500 C 230.017 213.630, 229.986 213.643, 230.373 215.702 M 128.500 215.923 L 125.500 216.610 128.583 217.107 C 130.704 217.449, 131.667 217.198, 131.667 216.302 C 131.667 215.586, 131.629 215.053, 131.583 215.118 C 131.537 215.183, 130.150 215.546, 128.500 215.923 M 157.813 215.683 C 158.534 215.972, 159.397 215.936, 159.729 215.604 C 160.061 215.272, 159.471 215.036, 158.417 215.079 C 157.252 215.127, 157.015 215.364, 157.813 215.683 M 196.500 216 L 193.500 216.763 196.191 216.882 C 197.671 216.947, 199.160 216.550, 199.500 216 C 199.840 215.450, 199.979 215.053, 199.809 215.118 C 199.639 215.183, 198.150 215.580, 196.500 216 M 225.813 215.683 C 226.534 215.972, 227.397 215.936, 227.729 215.604 C 228.061 215.272, 227.471 215.036, 226.417 215.079 C 225.252 215.127, 225.015 215.364, 225.813 215.683 M 119 217.500 C 119 218.325, 119.436 219, 119.969 219 C 120.501 219, 120.678 218.325, 120.362 217.500 C 120.045 216.675, 119.609 216, 119.393 216 C 119.177 216, 119 216.675, 119 217.500 M 136.632 216.786 C 136.365 217.218, 137.014 217.571, 138.073 217.571 C 139.133 217.571, 140 217.218, 140 216.786 C 140 216.354, 139.352 216, 138.559 216 C 137.766 216, 136.900 216.354, 136.632 216.786 M 143.083 216.365 C 143.313 216.565, 144.625 217.265, 146 217.920 C 148.357 219.042, 148.389 219.022, 146.559 217.555 C 144.966 216.279, 141.711 215.164, 143.083 216.365 M 187 217.333 C 187 218.260, 187.777 218.993, 188.750 218.985 C 189.749 218.976, 190.071 218.649, 189.500 218.223 C 188.950 217.813, 188.162 217.069, 187.750 216.572 C 187.338 216.074, 187 216.417, 187 217.333 M 204.507 216.989 C 204.157 217.555, 204.558 217.723, 205.448 217.382 C 207.621 216.548, 207.604 224.253, 205.429 226.429 C 204.564 227.293, 204.323 228, 204.893 228 C 206.592 228, 208 224.404, 208 220.066 C 208 217.192, 207.577 216, 206.559 216 C 205.766 216, 204.843 216.445, 204.507 216.989 M 211.079 220.750 C 211.166 225.978, 211.651 225.555, 212.227 219.750 C 212.431 217.688, 212.239 216, 211.799 216 C 211.360 216, 211.036 218.137, 211.079 220.750 M 220.750 216.662 C 221.438 216.940, 222.563 216.940, 223.250 216.662 C 223.938 216.385, 223.375 216.158, 222 216.158 C 220.625 216.158, 220.063 216.385, 220.750 216.662 M 63.158 219 C 63.158 220.375, 63.385 220.938, 63.662 220.250 C 63.940 219.563, 63.940 218.438, 63.662 217.750 C 63.385 217.063, 63.158 217.625, 63.158 219 M 216 218.243 C 216 218.415, 216.900 219.326, 218 220.268 C 219.100 221.210, 220 221.551, 220 221.025 C 220 220.500, 219.100 219.589, 218 219 C 216.900 218.411, 216 218.070, 216 218.243 M 122.178 220.286 C 121.374 221.254, 121.563 221.571, 122.942 221.571 C 124.023 221.571, 124.571 221.045, 124.279 220.286 C 124.008 219.579, 123.664 219, 123.515 219 C 123.367 219, 122.765 219.579, 122.178 220.286 M 131.152 219.885 C 130.410 220.355, 129.960 221.467, 130.152 222.357 C 130.415 223.578, 130.783 223.364, 131.656 221.487 C 132.292 220.119, 132.742 219.007, 132.656 219.015 C 132.570 219.024, 131.893 219.415, 131.152 219.885 M 149.600 219.674 C 150.205 220.128, 150.985 221.175, 151.332 222 C 151.777 223.054, 151.896 222.930, 151.732 221.583 C 151.605 220.528, 150.825 219.482, 150 219.257 C 149.035 218.994, 148.893 219.143, 149.600 219.674 M 158.500 220 C 158.840 220.550, 159.316 221, 159.559 221 C 159.802 221, 160 220.550, 160 220 C 160 219.450, 159.523 219, 158.941 219 C 158.359 219, 158.160 219.450, 158.500 220 M 191.079 220.583 C 191.127 221.748, 191.364 221.985, 191.683 221.188 C 191.972 220.466, 191.936 219.603, 191.604 219.271 C 191.272 218.939, 191.036 219.529, 191.079 220.583 M 226.500 220 C 226.840 220.550, 227.316 221, 227.559 221 C 227.802 221, 228 220.550, 228 220 C 228 219.450, 227.523 219, 226.941 219 C 226.359 219, 226.160 219.450, 226.500 220 M 97.079 222.583 C 97.127 223.748, 97.364 223.985, 97.683 223.188 C 97.972 222.466, 97.936 221.603, 97.604 221.271 C 97.272 220.939, 97.036 221.529, 97.079 222.583 M 230.156 222.237 C 231.357 223.213, 231.550 224.053, 230.857 225.292 C 230.331 226.231, 230.132 227, 230.415 227 C 230.698 227, 231.401 226.119, 231.978 225.042 C 232.840 223.430, 232.625 222.890, 230.763 221.987 C 228.795 221.033, 228.716 221.066, 230.156 222.237 M 186.441 223.096 C 186.068 223.699, 186.579 224.936, 187.577 225.846 C 189.270 227.390, 189.306 227.387, 188.109 225.794 C 187.404 224.855, 187.118 223.618, 187.473 223.044 C 187.828 222.470, 187.893 222, 187.618 222 C 187.343 222, 186.813 222.493, 186.441 223.096 M 156.079 224.750 C 156.127 225.806, 156.359 226.002, 156.664 225.244 C 156.943 224.553, 157.652 224.285, 158.240 224.648 C 158.872 225.039, 159.017 224.837, 158.595 224.155 C 157.517 222.410, 155.990 222.771, 156.079 224.750 M 191.441 224.555 C 189.611 226.022, 189.643 226.042, 192 224.920 C 195.061 223.462, 195.628 223, 194.358 223 C 193.821 223, 192.509 223.700, 191.441 224.555 M 224.603 223.833 C 224.320 224.292, 224.723 224.667, 225.500 224.667 C 226.277 224.667, 226.680 224.292, 226.397 223.833 C 226.114 223.375, 225.710 223, 225.500 223 C 225.290 223, 224.886 223.375, 224.603 223.833 M 63.079 225.583 C 63.127 226.748, 63.364 226.985, 63.683 226.188 C 63.972 225.466, 63.936 224.603, 63.604 224.271 C 63.272 223.939, 63.036 224.529, 63.079 225.583 M 120.559 225.532 C 119.491 226.339, 119.068 227, 119.618 227 C 120.168 227, 121.491 226.339, 122.559 225.532 C 123.626 224.724, 124.050 224.064, 123.500 224.064 C 122.950 224.064, 121.626 224.724, 120.559 225.532 M 143 224.646 C 143 225.185, 144.334 226.904, 145.964 228.466 C 147.595 230.028, 148.650 231.757, 148.310 232.308 C 147.945 232.898, 148.200 232.994, 148.932 232.542 C 149.827 231.989, 149.242 230.762, 146.837 228.148 C 145.002 226.154, 143.387 224.330, 143.250 224.094 C 143.113 223.859, 143 224.107, 143 224.646 M 135.172 228.323 L 131.951 231.646 134.226 233.573 L 136.500 235.500 134.698 233.364 C 132.947 231.288, 132.963 231.174, 135.245 229.364 C 137.456 227.610, 139.555 225, 138.755 225 C 138.556 225, 136.943 226.495, 135.172 228.323 M 161.014 226.414 C 161.662 227.062, 162.338 227.062, 162.986 226.414 C 163.633 225.767, 163.295 225.429, 162 225.429 C 160.705 225.429, 160.367 225.767, 161.014 226.414 M 193.345 226.543 C 193.019 227.392, 192.976 228.310, 193.249 228.583 C 193.523 228.856, 193.986 228.161, 194.279 227.040 C 194.903 224.657, 194.210 224.289, 193.345 226.543 M 196.731 227.920 C 196.296 229.583, 196.426 229.974, 197.168 229.232 C 197.750 228.650, 198.028 227.585, 197.788 226.863 C 197.538 226.114, 197.085 226.568, 196.731 227.920 M 212.333 227.595 C 212.333 228.368, 212.562 228.771, 212.842 228.491 C 213.123 228.211, 214.474 228.998, 215.846 230.241 L 218.339 232.500 216.420 229.792 C 214.158 226.602, 212.333 225.621, 212.333 227.595 M 224.352 226.760 C 224.715 227.348, 224.447 228.057, 223.756 228.336 C 222.998 228.641, 223.194 228.873, 224.250 228.921 C 226.229 229.010, 226.590 227.483, 224.845 226.405 C 224.163 225.983, 223.961 226.128, 224.352 226.760 M 64 228.941 C 64 229.459, 64.445 230.157, 64.989 230.493 C 65.555 230.843, 65.723 230.442, 65.382 229.552 C 64.717 227.820, 64 227.503, 64 228.941 M 92.405 233.141 C 91.357 234.319, 88.700 236.109, 86.500 237.119 C 84.300 238.130, 83.085 238.966, 83.800 238.978 C 85.879 239.013, 90.298 236.406, 92.924 233.595 C 94.258 232.168, 95.115 231, 94.829 231 C 94.544 231, 93.453 231.964, 92.405 233.141 M 137.603 231.833 C 137.320 232.292, 137.743 232.667, 138.544 232.667 C 139.345 232.667, 140 232.292, 140 231.833 C 140 231.375, 139.577 231, 139.059 231 C 138.541 231, 137.886 231.375, 137.603 231.833 M 143.083 231.283 C 143.313 231.439, 144.400 232.226, 145.500 233.033 C 147.350 234.390, 147.397 234.369, 146.128 232.750 C 145.373 231.787, 144.285 231, 143.711 231 C 143.137 231, 142.854 231.127, 143.083 231.283 M 201 231.686 C 201 232.274, 201.615 233.266, 202.367 233.890 C 203.413 234.758, 204.060 234.631, 205.117 233.350 C 206.362 231.842, 206.562 232.016, 207.118 235.087 L 207.737 238.500 207.868 234.750 C 208.009 230.736, 207.049 230.031, 204.925 232.590 C 203.725 234.036, 203.487 234.019, 202.303 232.399 C 201.586 231.419, 201 231.099, 201 231.686 M 209.079 231.691 C 209.036 232.346, 209.489 233.184, 210.087 233.554 C 210.685 233.923, 210.952 235.075, 210.681 236.113 C 210.409 237.151, 210.595 238, 211.094 238 C 211.592 238, 212 236.595, 212 234.878 C 212 232.068, 212.176 231.887, 213.750 233.073 C 215.346 234.275, 215.343 234.220, 213.714 232.445 C 212.271 230.874, 211.766 230.762, 211.085 231.863 C 210.373 233.014, 210.158 233.014, 209.700 231.863 C 209.358 231.003, 209.129 230.939, 209.079 231.691 M 69.218 235.250 C 70.765 236.762, 72.587 237.986, 73.266 237.970 C 73.945 237.953, 73.600 237.441, 72.500 236.833 C 71.400 236.225, 69.578 235.001, 68.452 234.113 C 67.325 233.226, 67.670 233.738, 69.218 235.250 M 173 235.585 L 173 239.310 170.767 237.405 C 169.399 236.238, 169.009 236.117, 169.759 237.092 C 170.432 237.968, 170.720 238.946, 170.400 239.267 C 170.079 239.588, 170.645 239.729, 171.658 239.581 C 172.797 239.414, 173.691 238.233, 174 236.488 C 174.765 232.167, 177 232.114, 177 236.417 C 177 240.186, 178.327 241.196, 179.447 238.278 C 180.013 236.803, 180.241 236.767, 181.038 238.028 C 181.550 238.838, 181.983 239.050, 182 238.500 C 182.017 237.950, 182.467 238.175, 183 239 C 183.533 239.825, 183.976 239.993, 183.985 239.372 C 183.993 238.752, 183.325 237.685, 182.500 237 C 181.341 236.038, 180.676 236.024, 179.572 236.940 C 178.400 237.913, 178.087 237.622, 177.822 235.312 C 177.590 233.281, 176.875 232.411, 175.250 232.180 C 173.262 231.898, 173 232.295, 173 235.585 M 107.624 235.539 C 106.659 238.053, 106.943 238.702, 108.122 236.675 C 108.706 235.671, 108.973 234.639, 108.715 234.382 C 108.458 234.124, 107.966 234.645, 107.624 235.539 M 139.333 236.456 C 139.333 237.257, 139.716 237.676, 140.183 237.387 C 140.650 237.098, 140.774 236.443, 140.457 235.931 C 139.649 234.623, 139.333 234.770, 139.333 236.456 M 168 240.378 C 168 240.585, 168.787 241.373, 169.750 242.128 C 171.336 243.371, 171.371 243.336, 170.128 241.750 C 168.821 240.084, 168 239.555, 168 240.378 M 159.373 242.469 C 159.032 243.359, 159.034 244.367, 159.376 244.710 C 159.719 245.053, 160 244.583, 160 243.667 C 160 241.852, 162.520 241.368, 163.342 243.025 C 163.621 243.589, 163.734 243.476, 163.592 242.775 C 163.203 240.851, 160.081 240.625, 159.373 242.469 M 179.189 243.039 C 177.505 244.607, 177 246.223, 177 250.039 C 177 254.775, 178.060 256.330, 179.595 253.845 C 180.038 253.130, 179.870 252.962, 179.155 253.405 C 176.884 254.807, 177.790 245.853, 180.174 243.314 C 182.860 240.456, 182.169 240.263, 179.189 243.039 M 187.813 241.683 C 188.534 241.972, 189.397 241.936, 189.729 241.604 C 190.061 241.272, 189.471 241.036, 188.417 241.079 C 187.252 241.127, 187.015 241.364, 187.813 241.683 M 156.152 245.545 C 157.060 246.473, 158.349 247.050, 159.015 246.828 C 159.682 246.606, 158.938 245.847, 157.363 245.141 C 154.683 243.940, 154.606 243.966, 156.152 245.545 M 172.853 249.184 C 173.202 254.129, 173.181 254.168, 170.853 253.035 C 168.642 251.959, 168.615 251.982, 170.397 253.413 C 171.441 254.251, 172.678 254.699, 173.147 254.409 C 174.198 253.760, 174.287 245.296, 173.250 244.653 C 172.838 244.397, 172.659 246.436, 172.853 249.184 M 186.079 245.583 C 186.127 246.748, 186.364 246.985, 186.683 246.188 C 186.972 245.466, 186.936 244.603, 186.604 244.271 C 186.272 243.939, 186.036 244.529, 186.079 245.583 M 193.507 244.989 C 193.157 245.555, 193.558 245.723, 194.448 245.382 C 196.180 244.717, 196.497 244, 195.059 244 C 194.541 244, 193.843 244.445, 193.507 244.989 M 189.500 246 C 189.160 246.550, 189.610 247, 190.500 247 C 191.390 247, 191.840 246.550, 191.500 246 C 191.160 245.450, 190.710 245, 190.500 245 C 190.290 245, 189.840 245.450, 189.500 246 M 197.241 245.498 C 197.649 245.948, 197.473 246.930, 196.850 247.681 C 195.955 248.760, 196.061 248.914, 197.359 248.416 C 199.313 247.666, 199.478 246.393, 197.750 245.399 C 197.063 245.003, 196.834 245.048, 197.241 245.498 M 164.079 247.583 C 164.127 248.748, 164.364 248.985, 164.683 248.188 C 164.972 247.466, 164.936 246.603, 164.604 246.271 C 164.272 245.939, 164.036 246.529, 164.079 247.583 M 117.437 251.329 C 118.977 253.348, 120.440 255, 120.687 255 C 121.381 255, 117.052 249.150, 115.772 248.359 C 115.148 247.973, 115.897 249.310, 117.437 251.329 M 183 250.830 C 180.736 253.038, 180.707 253.160, 182.694 252.128 C 183.901 251.502, 185.184 250.512, 185.544 249.928 C 186.775 247.937, 185.504 248.387, 183 250.830 M 98.872 250.750 C 97.629 252.336, 97.664 252.371, 99.250 251.128 C 100.916 249.821, 101.445 249, 100.622 249 C 100.415 249, 99.627 249.787, 98.872 250.750 M 156.352 249.760 C 156.715 250.348, 156.447 251.057, 155.756 251.336 C 154.857 251.698, 154.839 251.865, 155.691 251.921 C 157.412 252.035, 158.239 250.265, 156.862 249.415 C 156.164 248.983, 155.958 249.123, 156.352 249.760 M 192.750 251.662 C 193.438 251.940, 194.563 251.940, 195.250 251.662 C 195.938 251.385, 195.375 251.158, 194 251.158 C 192.625 251.158, 192.063 251.385, 192.750 251.662 M 153.318 253.500 C 153.455 254.858, 154.320 255.553, 156.010 255.664 C 158.097 255.801, 158.146 255.751, 156.311 255.352 C 155.108 255.091, 153.896 254.117, 153.619 253.189 C 153.256 251.973, 153.172 252.061, 153.318 253.500 M 96.278 254.250 C 94.623 256.390, 93.715 258.667, 95.275 256.766 C 96.057 255.812, 96.916 255.249, 97.182 255.516 C 97.449 255.782, 97.667 255.325, 97.667 254.500 C 97.667 252.678, 97.515 252.650, 96.278 254.250 M 164.774 255.004 C 169.020 257.592, 170.410 257.589, 166.500 255 C 164.850 253.907, 163.050 253.012, 162.500 253.010 C 161.950 253.009, 162.973 253.906, 164.774 255.004 M 189.813 254.683 C 190.534 254.972, 191.397 254.936, 191.729 254.604 C 192.061 254.272, 191.471 254.036, 190.417 254.079 C 189.252 254.127, 189.015 254.364, 189.813 254.683 M 122 258 C 122.589 259.100, 123.295 260, 123.570 260 C 123.845 260, 123.589 259.100, 123 258 C 122.411 256.900, 121.705 256, 121.430 256 C 121.155 256, 121.411 256.900, 122 258 M 170 257.759 C 170 258.894, 165.908 261.245, 162.500 262.070 C 160.047 262.663, 159.919 262.814, 161.800 262.898 C 163.064 262.954, 165.539 262.232, 167.300 261.294 C 169.060 260.356, 170.821 259.676, 171.214 259.782 C 171.607 259.889, 171.671 259.306, 171.357 258.488 C 170.749 256.903, 170 256.501, 170 257.759 M 181 259.430 C 181 259.705, 181.900 260.411, 183 261 C 184.100 261.589, 185 261.845, 185 261.570 C 185 261.295, 184.100 260.589, 183 260 C 181.900 259.411, 181 259.155, 181 259.430 M 188.500 262 C 185.778 262.693, 185.732 262.768, 188 262.811 C 189.375 262.838, 191.400 262.473, 192.500 262 C 194.966 260.940, 192.664 260.940, 188.500 262 M 153 263.500 C 153 264.325, 153.436 265, 153.969 265 C 154.501 265, 154.678 264.325, 154.362 263.500 C 154.045 262.675, 153.609 262, 153.393 262 C 153.177 262, 153 262.675, 153 263.500 M 169.441 263.555 C 167.566 265.057, 167.574 265.074, 169.684 264.055 C 172.865 262.518, 173 262.630, 173 266.813 C 173 269.744, 172.306 271.290, 170 273.500 C 166.915 276.455, 166.255 278.422, 167.989 279.493 C 168.537 279.832, 168.733 279.468, 168.430 278.678 C 168.129 277.894, 169.259 275.745, 170.941 273.903 C 173.354 271.261, 174 269.651, 174 266.277 C 174 261.617, 172.774 260.885, 169.441 263.555 M 180 263.430 C 180 263.705, 180.900 264.411, 182 265 C 183.100 265.589, 184 265.845, 184 265.570 C 184 265.295, 183.100 264.589, 182 264 C 180.900 263.411, 180 263.155, 180 263.430 M 91.272 268 C 91.272 270.475, 91.467 271.488, 91.706 270.250 C 91.944 269.012, 91.944 266.988, 91.706 265.750 C 91.467 264.512, 91.272 265.525, 91.272 268 M 177.175 267.436 C 177.049 270.278, 177.610 272.020, 179.195 273.707 C 181.482 276.142, 182.441 279, 180.971 279 C 180.502 279, 179.840 278.550, 179.500 278 C 179.160 277.450, 178.358 277, 177.718 277 C 177.079 277, 177.519 277.675, 178.696 278.500 C 180.705 279.907, 184 279.646, 184 278.080 C 184 277.692, 182.673 276.103, 181.051 274.549 C 178.942 272.528, 177.994 270.551, 177.725 267.612 L 177.349 263.500 177.175 267.436 M 125.232 268 C 125.232 269.925, 125.438 270.712, 125.689 269.750 C 125.941 268.788, 125.941 267.212, 125.689 266.250 C 125.438 265.288, 125.232 266.075, 125.232 268 M 155.981 266.523 C 154.924 267.796, 154.986 267.943, 156.359 267.416 C 157.261 267.069, 158 266.384, 158 265.893 C 158 264.607, 157.421 264.788, 155.981 266.523 M 192 265.819 C 192 266.269, 193.339 267.281, 194.975 268.069 C 197.084 269.083, 197.704 269.894, 197.103 270.853 C 196.432 271.923, 195.756 271.964, 193.877 271.048 C 191.619 269.948, 191.597 269.967, 193.441 271.445 C 195.981 273.480, 196.711 273.408, 198.002 270.996 C 198.910 269.300, 198.684 268.813, 196.538 267.835 C 195.142 267.199, 194 266.301, 194 265.839 C 194 265.378, 193.550 265, 193 265 C 192.450 265, 192 265.368, 192 265.819 M 152.556 268.910 C 151.895 269.979, 152.899 273, 153.916 273 C 154.302 273, 155.491 272.300, 156.559 271.445 C 158.433 269.943, 158.425 269.926, 156.311 270.948 C 154.005 272.062, 152.327 270.899, 153.500 269 C 153.840 268.450, 153.893 268, 153.618 268 C 153.343 268, 152.865 268.409, 152.556 268.910 M 190.245 271.500 C 190.683 273.790, 189.985 274.495, 187.676 274.094 C 187.222 274.015, 187.137 274.413, 187.486 274.978 C 188.751 277.024, 191.773 274.261, 191.252 271.535 C 190.985 270.141, 190.542 269, 190.267 269 C 189.992 269, 189.982 270.125, 190.245 271.500 M 159 273.500 C 159 274.325, 159.436 275, 159.969 275 C 160.501 275, 160.678 274.325, 160.362 273.500 C 160.045 272.675, 159.609 272, 159.393 272 C 159.177 272, 159 272.675, 159 273.500 M 122.643 276.250 L 120.854 279.500 122.927 277.139 C 124.718 275.100, 125.625 273, 124.716 273 C 124.559 273, 123.626 274.462, 122.643 276.250 M 93.462 276.671 C 95.243 280.418, 99.459 283.650, 103.561 284.415 C 106.319 284.928, 106.299 284.893, 103.235 283.832 C 99.740 282.622, 96.581 280.020, 93.727 275.998 C 91.962 273.509, 91.961 273.512, 93.462 276.671 M 170.872 278.750 C 169.641 280.321, 169.672 280.365, 171.182 279.184 C 172.676 278.015, 172.901 278.239, 173.202 281.184 L 173.540 284.500 174.069 280.750 C 174.651 276.628, 173.233 275.741, 170.872 278.750 M 177.158 281 C 177.158 282.375, 177.385 282.938, 177.662 282.250 C 177.940 281.563, 177.940 280.438, 177.662 279.750 C 177.385 279.063, 177.158 279.625, 177.158 281 M 113 284 C 112.175 284.533, 111.950 284.969, 112.500 284.969 C 113.050 284.969, 114.175 284.533, 115 284 C 115.825 283.467, 116.050 283.031, 115.500 283.031 C 114.950 283.031, 113.825 283.467, 113 284" stroke="none" fill="#d6d9db" fill-rule="evenodd"/><path d="M 0 157.503 L 0 315.007 143.250 314.753 L 286.500 314.500 286.753 157.250 L 287.006 0 143.503 0 L 0 0 0 157.503 M 0.488 158 C 0.488 244.625, 0.606 280.063, 0.750 236.750 C 0.894 193.438, 0.894 122.563, 0.750 79.250 C 0.606 35.938, 0.488 71.375, 0.488 158 M 158 26.690 C 152.590 27.595, 143.047 31.218, 138.530 34.083 C 128.319 40.559, 117.419 53.496, 115.401 61.537 C 115.061 62.892, 114.691 64, 114.579 64 C 114.467 64, 112.565 63.125, 110.351 62.055 C 99.830 56.972, 90.595 56.956, 80.344 62.002 C 69.361 67.409, 62.500 78.174, 62.500 90 C 62.500 93.575, 62.725 97.578, 63 98.895 C 63.445 101.028, 62.928 101.486, 58.287 103.072 C 36.422 110.543, 26.593 134.141, 36.413 155.591 C 41.115 165.862, 51.639 173.656, 63.960 175.992 C 71.064 177.340, 211.096 177.308, 220.444 175.957 C 228.778 174.752, 239.588 169.740, 246.178 164.024 C 264.787 147.885, 268.646 118.672, 254.890 98.073 C 248.662 88.746, 236.643 79.956, 226.709 77.463 C 224.823 76.990, 223.820 75.965, 223.455 74.139 C 223.165 72.688, 222.216 69.025, 221.345 66 C 215.959 47.292, 200.359 32.581, 180.540 27.522 C 175.023 26.113, 163.904 25.703, 158 26.690 M 139 189.655 C 139 193.071, 138.885 193.207, 137.250 191.731 C 135.815 190.437, 135.191 190.380, 133.783 191.412 C 132.213 192.564, 132.363 192.960, 135.533 196.032 C 138.431 198.841, 139 200.098, 139 203.696 C 139 206.063, 138.801 208, 138.557 208 C 138.314 208, 136.563 207.085, 134.667 205.966 C 131.998 204.391, 130.963 202.910, 130.079 199.399 C 129.212 195.954, 128.525 194.949, 127.219 195.214 C 126.182 195.424, 125.532 196.443, 125.579 197.781 C 125.670 200.309, 124.833 200.533, 121.956 198.750 C 120.293 197.720, 119.771 197.764, 118.985 199 C 117.621 201.144, 117.707 201.359, 120.659 203.150 C 123.307 204.757, 123.309 204.767, 121.103 205.467 C 119.745 205.898, 119.017 206.816, 119.224 207.835 C 119.578 209.577, 121.472 209.790, 126.500 208.656 C 128.679 208.165, 130.437 208.555, 132.922 210.080 L 136.344 212.180 133.053 214.263 C 130.181 216.082, 129.147 216.220, 124.919 215.354 C 121.015 214.554, 119.971 214.634, 119.538 215.763 C 118.577 218.266, 118.960 218.999, 121.250 219.036 C 123.432 219.071, 123.415 219.141, 120.712 221.354 C 118.836 222.889, 118.134 224.187, 118.569 225.318 C 119.360 227.381, 120.065 227.418, 122.559 225.532 C 125.293 223.464, 125.791 223.643, 125.245 226.500 C 124.859 228.517, 125.168 229, 126.843 229 C 128.411 229, 129.223 227.986, 130.159 224.864 C 130.987 222.100, 132.410 220.112, 134.449 218.868 C 138.645 216.309, 139 216.460, 139 220.804 C 139 223.836, 138.292 225.294, 135.512 227.988 C 132.272 231.129, 132.138 231.495, 133.627 233.141 C 135.115 234.785, 135.348 234.794, 136.865 233.266 C 138.381 231.741, 138.523 231.853, 138.813 234.810 C 139.068 237.403, 139.567 238, 141.476 238 C 143.525 238, 143.765 237.616, 143.353 235 C 142.861 231.877, 143.776 231.176, 145.758 233.158 C 146.634 234.034, 147.290 234.004, 148.461 233.032 C 149.822 231.903, 149.589 231.288, 146.503 227.872 C 143.906 224.997, 143 223.090, 143 220.497 C 143 216.448, 142.881 216.499, 147.376 218.642 C 150.085 219.934, 151.080 221.214, 152.040 224.642 C 152.923 227.797, 153.776 229, 155.130 229 C 156.480 229, 157 228.273, 157 226.385 C 157 223.818, 157.046 223.800, 159.528 225.427 C 160.919 226.338, 162.494 226.813, 163.028 226.483 C 164.655 225.477, 164.117 223.133, 162 222 C 159.647 220.741, 159.357 219, 161.500 219 C 162.891 219, 163.626 215.959, 162.505 214.839 C 162.233 214.567, 159.871 214.781, 157.255 215.315 C 153.169 216.148, 152.034 216, 149.185 214.264 L 145.871 212.243 149.397 210.064 C 152.440 208.183, 153.442 208.029, 156.711 208.937 C 158.795 209.515, 161.063 209.991, 161.750 209.994 C 163.836 210.004, 163.159 205.994, 160.935 205.172 C 158.938 204.433, 158.955 204.362, 161.435 203.035 C 162.846 202.280, 164 201.049, 164 200.300 C 164 198.439, 161.126 197.474, 159.733 198.867 C 157.979 200.621, 156.713 200.207, 157.273 198.065 C 157.733 196.306, 156.353 195, 154.037 195 C 153.597 195, 152.737 196.986, 152.126 199.414 C 151.291 202.729, 150.174 204.347, 147.639 205.914 C 145.783 207.061, 143.980 208, 143.632 208 C 143.284 208, 143 206.331, 143 204.292 C 143 201.364, 143.780 199.785, 146.709 196.786 C 150.179 193.232, 150.310 192.881, 148.740 191.311 C 147.170 189.741, 146.932 189.752, 145.031 191.472 C 143.025 193.288, 143 193.265, 143 189.655 C 143 186.667, 142.635 186, 141 186 C 139.365 186, 139 186.667, 139 189.655 M 207 189.655 C 207 193.153, 206.920 193.238, 205.143 191.630 C 203.463 190.109, 203.163 190.098, 201.987 191.516 C 200.885 192.844, 201.167 193.577, 203.844 196.339 C 206.364 198.939, 207 200.438, 207 203.781 L 207 207.968 203.482 206.290 C 200.769 204.996, 199.701 203.685, 198.814 200.556 C 197.372 195.475, 196.768 194.768, 194.587 195.605 C 193.459 196.038, 193.019 196.964, 193.346 198.217 C 193.741 199.727, 193.482 200.004, 192.177 199.466 C 188.359 197.889, 187.249 197.908, 186.614 199.563 C 186.251 200.511, 186.076 201.371, 186.226 201.475 C 186.377 201.578, 187.552 202.371, 188.837 203.237 C 191.151 204.795, 191.154 204.816, 189.087 205.472 C 186.786 206.203, 186.588 206.800, 187.937 208.932 C 188.689 210.121, 189.521 210.161, 192.849 209.163 C 196.248 208.145, 197.396 208.221, 200.427 209.667 C 202.392 210.604, 204 211.744, 204 212.201 C 204 212.658, 202.436 213.778, 200.524 214.690 C 197.701 216.036, 196.206 216.155, 192.573 215.324 C 188.932 214.491, 187.996 214.567, 187.549 215.732 C 186.595 218.219, 186.942 219, 189 219 C 190.100 219, 191 219.450, 191 220 C 191 220.550, 190.636 221, 190.191 221 C 189.746 221, 188.526 221.626, 187.479 222.392 C 185.876 223.564, 185.783 224.033, 186.888 225.365 C 188.069 226.788, 188.496 226.795, 191.130 225.433 C 194.010 223.943, 194.049 223.958, 193.455 226.323 C 192.985 228.197, 193.309 228.848, 194.925 229.270 C 197.385 229.913, 197.603 229.635, 198.538 224.649 C 199.064 221.846, 200.097 220.302, 202.379 218.911 C 206.662 216.299, 207 216.444, 207 220.894 C 207 223.841, 206.270 225.570, 204 228 C 200.650 231.586, 200.492 232.092, 202.186 233.786 C 203.101 234.701, 203.787 234.597, 205.186 233.331 C 206.901 231.779, 207 231.861, 207 234.845 C 207 237.544, 207.362 238, 209.500 238 C 211.633 238, 212 237.541, 212 234.878 C 212 232.171, 212.206 231.926, 213.550 233.042 C 214.823 234.098, 215.364 234.065, 216.574 232.855 C 217.872 231.556, 217.691 231.031, 215.052 228.440 C 212.669 226.103, 212.050 224.629, 212.028 221.250 C 212.013 218.912, 212.268 217, 212.596 217 C 212.923 217, 214.529 217.787, 216.164 218.750 C 218.243 219.974, 219.478 221.776, 220.275 224.750 C 221.199 228.196, 221.852 229, 223.726 229 C 225.715 229, 225.947 228.638, 225.387 226.406 L 224.736 223.812 227.830 225.412 C 230.765 226.930, 230.978 226.909, 231.999 225.002 C 232.910 223.299, 232.687 222.814, 230.538 221.835 C 227.505 220.453, 227.304 219.415, 229.935 218.727 C 231.265 218.380, 231.713 217.617, 231.366 216.293 C 230.908 214.542, 230.387 214.452, 225.662 215.308 C 221.181 216.120, 220.006 215.974, 217.179 214.255 L 213.896 212.259 217.636 210.052 C 221.037 208.046, 221.776 207.957, 225.782 209.079 C 229.455 210.107, 230.337 210.079, 231.079 208.906 C 232.415 206.795, 232.214 206.293, 229.750 205.600 C 227.571 204.987, 227.560 204.921, 229.392 203.520 C 230.432 202.724, 231.696 201.935, 232.199 201.767 C 232.703 201.599, 232.816 200.683, 232.450 199.731 C 231.731 197.856, 228.502 197.379, 227.500 199 C 226.466 200.673, 224.742 200.115, 225.427 198.330 C 226.053 196.699, 224.563 195.046, 222.439 195.015 C 221.856 195.007, 220.821 197.137, 220.140 199.750 C 219.136 203.602, 218.249 204.827, 215.451 206.229 L 212 207.958 212 203.776 C 212 200.426, 212.637 198.938, 215.205 196.288 C 218.187 193.211, 218.295 192.867, 216.755 191.327 C 215.389 189.960, 214.830 189.896, 213.550 190.958 C 212.206 192.074, 212 191.829, 212 189.122 C 212 186.459, 211.633 186, 209.500 186 C 207.289 186, 207 186.423, 207 189.655 M 78.320 192.043 C 77.207 194.542, 73.417 200.818, 69.898 205.991 C 63.623 215.215, 63.500 215.523, 63.500 222.026 C 63.500 227.791, 63.876 229.148, 66.382 232.434 C 69.810 236.929, 74.269 239, 80.518 239 C 91.513 239, 99.364 229.050, 96.933 218.199 C 95.997 214.023, 94.051 210.706, 85.460 198.642 C 83.558 195.969, 81.628 192.369, 81.173 190.642 L 80.345 187.500 78.320 192.043 M 173 235.585 C 173 239.151, 172.921 239.238, 171.143 237.630 C 169.463 236.109, 169.163 236.098, 167.987 237.516 C 166.885 238.844, 167.167 239.577, 169.844 242.339 C 172.373 244.948, 173 246.434, 173 249.818 L 173 254.041 169.154 252.079 C 165.939 250.438, 165.160 249.411, 164.400 245.808 C 163.696 242.474, 163.040 241.500, 161.496 241.500 C 160.069 241.500, 159.523 242.142, 159.579 243.750 C 159.672 246.382, 159.822 246.332, 156.475 244.807 C 154.340 243.834, 153.688 243.880, 152.944 245.057 C 151.584 247.206, 151.748 247.562, 154.750 248.960 L 157.500 250.242 155.250 251.274 C 152.686 252.449, 152.278 254.786, 154.487 255.634 C 155.306 255.948, 157.443 255.692, 159.237 255.065 C 161.939 254.122, 163.143 254.233, 166.239 255.713 C 168.295 256.696, 169.982 257.767, 169.989 258.093 C 169.995 258.418, 168.460 259.515, 166.577 260.529 C 163.693 262.082, 162.440 262.209, 158.626 261.336 C 154.932 260.491, 153.998 260.564, 153.549 261.732 C 152.576 264.268, 152.953 264.999, 155.250 265.036 C 157.432 265.071, 157.415 265.141, 154.712 267.354 C 152.836 268.889, 152.134 270.187, 152.569 271.318 C 153.360 273.381, 154.065 273.418, 156.559 271.532 C 159.334 269.433, 160.123 269.661, 159.445 272.364 C 158.985 274.195, 159.321 274.851, 160.934 275.273 C 162.715 275.738, 163.182 275.163, 164.153 271.306 C 164.988 267.991, 166.113 266.293, 168.395 264.901 C 172.651 262.306, 173 262.450, 173 266.813 C 173 269.744, 172.306 271.290, 170 273.500 C 168.350 275.081, 167 276.979, 167 277.718 C 167 279.655, 169.770 280.435, 171.513 278.989 C 172.776 277.941, 173 278.235, 173 280.947 C 173 283.685, 173.320 284.094, 175.250 283.820 C 176.973 283.575, 177.491 282.855, 177.461 280.750 C 177.421 277.972, 178.364 277.162, 179.500 279 C 180.263 280.234, 181.070 280.241, 182.988 279.028 C 184.230 278.243, 183.956 277.540, 181.339 274.794 C 179.068 272.410, 178.097 270.326, 177.824 267.250 C 177.399 262.453, 177.625 262.315, 181.935 264.750 C 184.109 265.979, 185.355 267.692, 186.117 270.500 C 187.573 275.866, 187.827 276.163, 189.970 275.016 C 191.243 274.335, 191.642 273.346, 191.249 271.844 C 190.696 269.730, 190.753 269.714, 193.062 271.331 C 196.117 273.471, 196.699 273.431, 198.002 270.996 C 198.910 269.300, 198.684 268.813, 196.538 267.835 C 193.734 266.558, 193.164 265, 195.500 265 C 196.891 265, 197.626 261.959, 196.505 260.839 C 196.233 260.567, 193.871 260.781, 191.255 261.315 C 187.173 262.148, 186.033 262, 183.198 260.272 L 179.896 258.259 183.541 256.108 C 186.629 254.286, 187.746 254.113, 190.843 254.973 C 192.854 255.532, 195.063 255.991, 195.750 255.994 C 197.881 256.004, 197.148 251.990, 194.864 251.145 C 192.854 250.402, 192.912 250.279, 195.864 249.056 C 199.401 247.591, 199.692 246.819, 197.419 244.933 C 196.179 243.903, 195.427 243.877, 193.932 244.810 C 191.270 246.473, 190.688 246.303, 191.281 244.035 C 191.635 242.678, 191.183 241.876, 189.822 241.443 C 187.436 240.686, 187.606 240.497, 185.891 245.819 C 184.945 248.756, 183.460 250.787, 181.250 252.167 L 178 254.196 178.005 249.848 C 178.008 246.360, 178.627 244.841, 181.134 242.165 C 183.982 239.127, 184.119 238.691, 182.680 237.251 C 181.415 235.986, 180.806 235.916, 179.623 236.898 C 178.385 237.925, 178.092 237.667, 177.822 235.312 C 177.590 233.281, 176.875 232.411, 175.250 232.180 C 173.262 231.898, 173 232.295, 173 235.585 M 107.084 237.256 C 106.400 239.321, 103.335 244.496, 100.271 248.756 C 90.758 261.981, 89.238 267.522, 92.905 275.599 C 95.521 281.358, 100.059 284.304, 107.096 284.813 C 117.790 285.587, 125.467 278.595, 125.467 268.084 C 125.467 261.872, 123.720 258.238, 115.574 247.500 C 113.071 244.200, 110.416 239.700, 109.675 237.500 L 108.327 233.500 107.084 237.256" stroke="none" fill="#2469b2" fill-rule="evenodd"/></svg>