<svg xmlns="http://www.w3.org/2000/svg" width="292" height="227" viewBox="0 0 292 227" version="1.1"><path d="M 188.500 27.596 C 175.939 29.819, 163.702 33.611, 148 40.146 C 120.082 51.764, 109.121 54.376, 88 54.445 C 79.479 54.472, 70.613 53.921, 66.500 53.107 C 58.371 51.498, 43.920 46.650, 39.316 43.987 L 36.132 42.145 31.969 48.785 L 27.806 55.425 29.943 57.155 C 32.753 59.430, 45.567 64.335, 55.494 66.935 C 79.380 73.192, 108.049 71.759, 134 63.013 C 137.575 61.809, 146.125 58.413, 153 55.468 C 176.798 45.273, 194.772 41.466, 215 42.336 C 229.898 42.976, 237.602 44.788, 249 50.331 C 253.675 52.605, 257.760 54.473, 258.078 54.483 C 258.396 54.492, 260.794 51.875, 263.407 48.668 C 268.847 41.989, 269.067 42.541, 258.745 36.979 C 251.014 32.813, 240.287 29.248, 230.119 27.468 C 219.707 25.644, 199.166 25.708, 188.500 27.596 M 197.352 59.062 C 181.245 60.623, 166.465 65.049, 137.609 76.956 C 105.847 90.061, 71.731 90.669, 43.877 78.626 L 36.071 75.251 31.840 81.746 C 26.872 89.371, 26.667 89.009, 38.824 94.070 C 56.402 101.388, 79.303 104.865, 98.160 103.078 C 117.883 101.209, 129.067 98.193, 151.871 88.592 C 176.012 78.428, 191.114 74.841, 210 74.786 C 227.305 74.735, 242.125 78.213, 252.932 84.863 L 257.962 87.958 263.080 81.808 L 268.198 75.658 265.849 73.803 C 261.664 70.498, 247.705 64.328, 239.496 62.154 C 231.448 60.023, 215.512 57.932, 209 58.154 C 207.075 58.219, 201.833 58.628, 197.352 59.062 M 197.500 91.601 C 178.245 94.380, 164.556 98.220, 147 105.766 C 121.327 116.802, 109.626 119.502, 87.500 119.495 C 66.753 119.490, 57.158 117.362, 37.288 108.364 C 36.225 107.883, 28 119.070, 28 120.997 C 28 122.249, 43.359 128.868, 52 131.340 C 65.114 135.093, 77.037 136.354, 93.226 135.703 C 115.598 134.803, 124.910 132.360, 158.977 118.455 C 194.171 104.088, 226.119 103.495, 251.322 116.738 L 258.218 120.362 259.859 118.292 C 260.762 117.153, 262.976 114.402, 264.780 112.179 L 268.060 108.137 263.780 105.260 C 251.190 96.795, 233.551 91.909, 214 91.471 C 206.575 91.305, 199.150 91.363, 197.500 91.601 M 188.500 125.596 C 176.806 127.666, 163.982 131.487, 151.500 136.620 C 123.774 148.022, 112.296 151.226, 94.329 152.583 C 77.854 153.826, 55.610 149.797, 41.824 143.071 L 36.026 140.242 31.898 146.780 L 27.769 153.317 30.134 155.139 C 31.435 156.141, 36.058 158.332, 40.407 160.008 C 75.772 173.635, 112.154 171.562, 152.638 153.612 C 190.579 136.790, 226.051 135.503, 252.778 149.979 C 255.838 151.636, 258.402 152.882, 258.476 152.746 C 258.550 152.611, 260.790 149.898, 263.454 146.719 C 269.051 140.036, 269.297 140.581, 258 134.656 C 243.798 127.207, 228.730 123.950, 209.119 124.090 C 202.179 124.139, 192.900 124.817, 188.500 125.596 M 200 156.635 C 183.526 158.180, 170.360 161.821, 145.769 171.632 C 124.147 180.259, 111.760 183.669, 98.163 184.740 C 78.127 186.316, 60.141 183.605, 43.685 176.526 L 35.870 173.164 32.296 178.752 C 30.330 181.825, 28.671 185.025, 28.611 185.861 C 28.457 187.974, 43.539 194.491, 55.745 197.587 C 85.997 205.261, 117.718 201.643, 151.539 186.660 C 187.553 170.706, 220.961 168.248, 246.756 179.656 C 249.866 181.031, 253.628 183.023, 255.116 184.082 L 257.820 186.008 262.991 179.820 L 268.162 173.631 265.831 171.799 C 259.713 166.993, 241.960 160.075, 230.500 158.032 C 223.573 156.797, 206.575 156.019, 200 156.635" stroke="none" fill="#f4f9fa" fill-rule="evenodd"/><path d="M 0 113.503 L 0 227.007 146.250 226.753 L 292.500 226.500 292.754 113.250 L 293.009 0 146.504 0 L 0 0 0 113.503 M 0.483 114 C 0.483 176.425, 0.603 201.963, 0.750 170.750 C 0.897 139.538, 0.897 88.463, 0.750 57.250 C 0.603 26.038, 0.483 51.575, 0.483 114 M 188.500 27.596 C 175.939 29.819, 163.702 33.611, 148 40.146 C 120.082 51.764, 109.121 54.376, 88 54.445 C 79.479 54.472, 70.613 53.921, 66.500 53.107 C 58.371 51.498, 43.920 46.650, 39.316 43.987 L 36.132 42.145 31.969 48.785 L 27.806 55.425 29.943 57.155 C 32.753 59.430, 45.567 64.335, 55.494 66.935 C 79.380 73.192, 108.049 71.759, 134 63.013 C 137.575 61.809, 146.125 58.413, 153 55.468 C 176.798 45.273, 194.772 41.466, 215 42.336 C 229.898 42.976, 237.602 44.788, 249 50.331 C 253.675 52.605, 257.760 54.473, 258.078 54.483 C 258.396 54.492, 260.794 51.875, 263.407 48.668 C 268.847 41.989, 269.067 42.541, 258.745 36.979 C 251.014 32.813, 240.287 29.248, 230.119 27.468 C 219.707 25.644, 199.166 25.708, 188.500 27.596 M 197.352 59.062 C 181.245 60.623, 166.465 65.049, 137.609 76.956 C 105.847 90.061, 71.731 90.669, 43.877 78.626 L 36.071 75.251 31.840 81.746 C 26.872 89.371, 26.667 89.009, 38.824 94.070 C 56.402 101.388, 79.303 104.865, 98.160 103.078 C 117.883 101.209, 129.067 98.193, 151.871 88.592 C 176.012 78.428, 191.114 74.841, 210 74.786 C 227.305 74.735, 242.125 78.213, 252.932 84.863 L 257.962 87.958 263.080 81.808 L 268.198 75.658 265.849 73.803 C 261.664 70.498, 247.705 64.328, 239.496 62.154 C 231.448 60.023, 215.512 57.932, 209 58.154 C 207.075 58.219, 201.833 58.628, 197.352 59.062 M 197.500 91.601 C 178.245 94.380, 164.556 98.220, 147 105.766 C 121.327 116.802, 109.626 119.502, 87.500 119.495 C 66.753 119.490, 57.158 117.362, 37.288 108.364 C 36.225 107.883, 28 119.070, 28 120.997 C 28 122.249, 43.359 128.868, 52 131.340 C 65.114 135.093, 77.037 136.354, 93.226 135.703 C 115.598 134.803, 124.910 132.360, 158.977 118.455 C 194.171 104.088, 226.119 103.495, 251.322 116.738 L 258.218 120.362 259.859 118.292 C 260.762 117.153, 262.976 114.402, 264.780 112.179 L 268.060 108.137 263.780 105.260 C 251.190 96.795, 233.551 91.909, 214 91.471 C 206.575 91.305, 199.150 91.363, 197.500 91.601 M 188.500 125.596 C 176.806 127.666, 163.982 131.487, 151.500 136.620 C 123.774 148.022, 112.296 151.226, 94.329 152.583 C 77.854 153.826, 55.610 149.797, 41.824 143.071 L 36.026 140.242 31.898 146.780 L 27.769 153.317 30.134 155.139 C 31.435 156.141, 36.058 158.332, 40.407 160.008 C 75.772 173.635, 112.154 171.562, 152.638 153.612 C 190.579 136.790, 226.051 135.503, 252.778 149.979 C 255.838 151.636, 258.402 152.882, 258.476 152.746 C 258.550 152.611, 260.790 149.898, 263.454 146.719 C 269.051 140.036, 269.297 140.581, 258 134.656 C 243.798 127.207, 228.730 123.950, 209.119 124.090 C 202.179 124.139, 192.900 124.817, 188.500 125.596 M 200 156.635 C 183.526 158.180, 170.360 161.821, 145.769 171.632 C 124.147 180.259, 111.760 183.669, 98.163 184.740 C 78.127 186.316, 60.141 183.605, 43.685 176.526 L 35.870 173.164 32.296 178.752 C 30.330 181.825, 28.671 185.025, 28.611 185.861 C 28.457 187.974, 43.539 194.491, 55.745 197.587 C 85.997 205.261, 117.718 201.643, 151.539 186.660 C 187.553 170.706, 220.961 168.248, 246.756 179.656 C 249.866 181.031, 253.628 183.023, 255.116 184.082 L 257.820 186.008 262.991 179.820 L 268.162 173.631 265.831 171.799 C 259.713 166.993, 241.960 160.075, 230.500 158.032 C 223.573 156.797, 206.575 156.019, 200 156.635" stroke="none" fill="#3273b6" fill-rule="evenodd"/></svg>