<svg xmlns="http://www.w3.org/2000/svg" width="118" height="118" viewBox="0 0 118 118" version="1.1"><path d="M 0 59.008 L 0 118.016 59.250 117.758 L 118.500 117.500 118.758 58.750 L 119.016 0 59.508 0 L 0 0 0 59.008 M 0.469 59.500 C 0.469 91.950, 0.595 105.080, 0.750 88.678 C 0.904 72.277, 0.904 45.727, 0.749 29.678 C 0.595 13.630, 0.469 27.050, 0.469 59.500 M 68 17 C 65.212 19.788, 65.504 22.657, 68.923 26.077 C 72.343 29.496, 75.212 29.788, 78 27 C 80.724 24.276, 80.512 20.603, 77.455 17.545 C 74.397 14.488, 70.724 14.276, 68 17 M 9.997 20.006 C 7.512 24.648, 14.678 29.503, 18.038 25.454 C 19.102 24.172, 18.977 23.445, 17.310 21.204 C 14.725 17.728, 11.499 17.200, 9.997 20.006 M 25.250 18.662 C 23.353 19.428, 23.756 23.469, 25.926 25.433 C 28.177 27.470, 30.841 27.206, 32.359 24.795 C 33.206 23.451, 32.927 22.551, 31.042 20.545 C 28.670 18.020, 27.657 17.691, 25.250 18.662 M 39.964 20.067 C 38.447 22.902, 41.121 27, 44.488 27 C 48.220 27, 49.426 23.811, 46.905 20.607 C 44.440 17.472, 41.476 17.242, 39.964 20.067 M 55.250 18.662 C 52.981 19.578, 53.786 24.547, 56.433 25.964 C 61.383 28.613, 64.756 24.498, 60.952 20.449 C 58.666 18.016, 57.645 17.696, 55.250 18.662 M 84.660 19.482 C 83.132 21.011, 83.504 25, 85.176 25 C 87.257 25, 84.776 26.890, 81.853 27.532 C 77.788 28.425, 70.597 35.662, 69.016 40.451 C 67.396 45.359, 68.108 55.251, 70.233 57.376 C 71.343 58.486, 73.621 59, 77.429 59 C 80.493 59, 83 58.826, 83 58.614 C 83 58.402, 82.328 56.940, 81.506 55.364 C 79.472 51.463, 79.627 48.124, 82.026 44.190 C 84.825 39.599, 90.206 37.446, 95.166 38.932 C 99.842 40.333, 102 43.297, 102 48.318 C 102 53.327, 99.565 57.360, 95.318 59.385 C 92.367 60.793, 86.506 61, 49.666 61 C 18.126 61, 7.095 61.305, 6.200 62.200 C 4.433 63.967, 4.740 67.454, 6.829 69.345 C 8.472 70.832, 13.133 71, 52.869 71 C 94.410 71, 97.304 70.885, 100.790 69.092 C 111.370 63.649, 115.936 51.024, 111.129 40.500 C 108.735 35.258, 101.230 28.449, 96.180 26.936 C 93.397 26.102, 92.332 25.298, 92.709 24.316 C 93.318 22.729, 89.341 18, 87.397 18 C 86.707 18, 85.476 18.667, 84.660 19.482 M 99.250 18.662 C 97.389 19.413, 97.739 23.454, 99.829 25.345 C 102.146 27.442, 105.602 27.480, 106.393 25.418 C 107.345 22.937, 107.140 22.140, 105 20 C 103.013 18.013, 101.646 17.695, 99.250 18.662 M 24 31 C 21.214 33.786, 21.505 37.152, 24.805 40.313 C 28.139 43.507, 31.260 43.740, 34 41 C 36.788 38.212, 36.496 35.343, 33.077 31.923 C 29.657 28.504, 26.788 28.212, 24 31 M 10.571 33.571 C 8.428 35.715, 8.582 36.673, 11.546 39.637 C 13.857 41.948, 14.291 42.051, 16.241 40.756 C 19.242 38.764, 19.363 37.731, 16.954 34.669 C 14.556 31.620, 12.821 31.322, 10.571 33.571 M 40.571 33.571 C 38.428 35.715, 38.582 36.673, 41.546 39.637 C 43.857 41.948, 44.291 42.051, 46.241 40.756 C 49.242 38.764, 49.363 37.731, 46.954 34.669 C 44.556 31.620, 42.821 31.322, 40.571 33.571 M 55.250 32.662 C 53.657 33.305, 53.622 38.222, 55.200 39.800 C 55.860 40.460, 57.630 41, 59.133 41 C 63.003 41, 63.923 37.612, 60.920 34.415 C 58.665 32.014, 57.641 31.698, 55.250 32.662 M 10.960 47.832 C 9.075 49.357, 8.911 49.965, 9.890 51.794 C 12.128 55.976, 17.066 56.877, 18.419 53.350 C 19.150 51.445, 17.503 48.339, 15.070 47.037 C 13.650 46.277, 12.638 46.473, 10.960 47.832 M 41.155 47.604 C 38.370 49.555, 38.434 51.120, 41.415 53.920 C 45.349 57.616, 50.430 54.540, 47.973 49.950 C 46.292 46.809, 43.609 45.885, 41.155 47.604 M 55.724 47.134 C 53.212 48.541, 53.568 52.671, 56.359 54.500 C 59.114 56.305, 61.666 55.628, 62.545 52.860 C 63.625 49.456, 58.805 45.410, 55.724 47.134 M 7.053 76.901 C 5.508 79.787, 5.729 80.820, 8.477 83.568 L 10.955 86.046 48.130 85.976 C 70.097 85.934, 85.690 86.290, 86.245 86.845 C 87.621 88.221, 85.300 92, 83.080 92 C 82.062 92, 80.493 90.875, 79.592 89.500 C 78.208 87.388, 77.182 87, 72.977 87 C 68.202 87, 68 87.113, 68 89.777 C 68 92.826, 70.087 96.290, 73.977 99.695 C 83.837 108.328, 99.185 98.180, 95.080 85.743 C 94.465 83.880, 92.371 80.813, 90.427 78.928 L 86.891 75.500 47.498 75.217 C 9.196 74.942, 8.077 74.988, 7.053 76.901" stroke="none" fill="#ffffff" fill-rule="evenodd"/><path d="M 68 17 C 65.212 19.788, 65.504 22.657, 68.923 26.077 C 72.343 29.496, 75.212 29.788, 78 27 C 80.724 24.276, 80.512 20.603, 77.455 17.545 C 74.397 14.488, 70.724 14.276, 68 17 M 9.997 20.006 C 7.512 24.648, 14.678 29.503, 18.038 25.454 C 19.102 24.172, 18.977 23.445, 17.310 21.204 C 14.725 17.728, 11.499 17.200, 9.997 20.006 M 25.250 18.662 C 23.353 19.428, 23.756 23.469, 25.926 25.433 C 28.177 27.470, 30.841 27.206, 32.359 24.795 C 33.206 23.451, 32.927 22.551, 31.042 20.545 C 28.670 18.020, 27.657 17.691, 25.250 18.662 M 39.964 20.067 C 38.447 22.902, 41.121 27, 44.488 27 C 48.220 27, 49.426 23.811, 46.905 20.607 C 44.440 17.472, 41.476 17.242, 39.964 20.067 M 55.250 18.662 C 52.981 19.578, 53.786 24.547, 56.433 25.964 C 61.383 28.613, 64.756 24.498, 60.952 20.449 C 58.666 18.016, 57.645 17.696, 55.250 18.662 M 84.660 19.482 C 83.132 21.011, 83.504 25, 85.176 25 C 87.257 25, 84.776 26.890, 81.853 27.532 C 77.788 28.425, 70.597 35.662, 69.016 40.451 C 67.396 45.359, 68.108 55.251, 70.233 57.376 C 71.343 58.486, 73.621 59, 77.429 59 C 80.493 59, 83 58.826, 83 58.614 C 83 58.402, 82.328 56.940, 81.506 55.364 C 79.472 51.463, 79.627 48.124, 82.026 44.190 C 84.825 39.599, 90.206 37.446, 95.166 38.932 C 99.842 40.333, 102 43.297, 102 48.318 C 102 53.327, 99.565 57.360, 95.318 59.385 C 92.367 60.793, 86.506 61, 49.666 61 C 18.126 61, 7.095 61.305, 6.200 62.200 C 4.433 63.967, 4.740 67.454, 6.829 69.345 C 8.472 70.832, 13.133 71, 52.869 71 C 94.410 71, 97.304 70.885, 100.790 69.092 C 111.370 63.649, 115.936 51.024, 111.129 40.500 C 108.735 35.258, 101.230 28.449, 96.180 26.936 C 93.397 26.102, 92.332 25.298, 92.709 24.316 C 93.318 22.729, 89.341 18, 87.397 18 C 86.707 18, 85.476 18.667, 84.660 19.482 M 99.250 18.662 C 97.389 19.413, 97.739 23.454, 99.829 25.345 C 102.146 27.442, 105.602 27.480, 106.393 25.418 C 107.345 22.937, 107.140 22.140, 105 20 C 103.013 18.013, 101.646 17.695, 99.250 18.662 M 24 31 C 21.214 33.786, 21.505 37.152, 24.805 40.313 C 28.139 43.507, 31.260 43.740, 34 41 C 36.788 38.212, 36.496 35.343, 33.077 31.923 C 29.657 28.504, 26.788 28.212, 24 31 M 10.571 33.571 C 8.428 35.715, 8.582 36.673, 11.546 39.637 C 13.857 41.948, 14.291 42.051, 16.241 40.756 C 19.242 38.764, 19.363 37.731, 16.954 34.669 C 14.556 31.620, 12.821 31.322, 10.571 33.571 M 40.571 33.571 C 38.428 35.715, 38.582 36.673, 41.546 39.637 C 43.857 41.948, 44.291 42.051, 46.241 40.756 C 49.242 38.764, 49.363 37.731, 46.954 34.669 C 44.556 31.620, 42.821 31.322, 40.571 33.571 M 55.250 32.662 C 53.657 33.305, 53.622 38.222, 55.200 39.800 C 55.860 40.460, 57.630 41, 59.133 41 C 63.003 41, 63.923 37.612, 60.920 34.415 C 58.665 32.014, 57.641 31.698, 55.250 32.662 M 10.960 47.832 C 9.075 49.357, 8.911 49.965, 9.890 51.794 C 12.128 55.976, 17.066 56.877, 18.419 53.350 C 19.150 51.445, 17.503 48.339, 15.070 47.037 C 13.650 46.277, 12.638 46.473, 10.960 47.832 M 41.155 47.604 C 38.370 49.555, 38.434 51.120, 41.415 53.920 C 45.349 57.616, 50.430 54.540, 47.973 49.950 C 46.292 46.809, 43.609 45.885, 41.155 47.604 M 55.724 47.134 C 53.212 48.541, 53.568 52.671, 56.359 54.500 C 59.114 56.305, 61.666 55.628, 62.545 52.860 C 63.625 49.456, 58.805 45.410, 55.724 47.134 M 7.053 76.901 C 5.508 79.787, 5.729 80.820, 8.477 83.568 L 10.955 86.046 48.130 85.976 C 70.097 85.934, 85.690 86.290, 86.245 86.845 C 87.621 88.221, 85.300 92, 83.080 92 C 82.062 92, 80.493 90.875, 79.592 89.500 C 78.208 87.388, 77.182 87, 72.977 87 C 68.202 87, 68 87.113, 68 89.777 C 68 92.826, 70.087 96.290, 73.977 99.695 C 83.837 108.328, 99.185 98.180, 95.080 85.743 C 94.465 83.880, 92.371 80.813, 90.427 78.928 L 86.891 75.500 47.498 75.217 C 9.196 74.942, 8.077 74.988, 7.053 76.901" stroke="none" fill="#f0831c" fill-rule="evenodd"/></svg>