<svg xmlns="http://www.w3.org/2000/svg" width="255" height="237" viewBox="0 0 255 237" version="1.1"><path d="M 71.036 175.912 C 70.353 177.563, 69.739 179.271, 69.673 179.707 C 69.558 180.464, 68.807 181.456, 64.658 186.334 C 48.178 205.707, 59.323 229.482, 80.233 219.560 C 91.483 214.221, 91.588 201.410, 80.500 187 C 77.986 183.733, 75.108 179.226, 74.104 176.985 C 72.280 172.910, 72.280 172.910, 71.036 175.912 M 183.584 176.454 C 182.725 178.508, 179.820 183.217, 177.128 186.919 C 165.004 203.587, 165.831 214.315, 179.718 220.554 C 197.196 228.407, 207.874 207.816, 195.451 190.215 C 192.456 185.972, 188.911 180.299, 187.575 177.609 C 185.144 172.718, 185.144 172.718, 183.584 176.454 M 128.059 174.632 C 128.026 175.254, 124.632 180.839, 120.515 187.043 C 110.775 201.721, 109.700 207.924, 115.666 215.014 C 124.813 225.886, 141.378 222.552, 144.958 209.119 C 146.681 202.652, 144.827 197.996, 134.719 183.413 C 132.399 180.065, 129.964 176.465, 129.309 175.413 C 128.654 174.361, 128.091 174.009, 128.059 174.632" stroke="none" fill="#ffffff" fill-rule="evenodd"/><path d="M 0 118.504 C 0 237.008, 0 237.008, 127.750 236.754 C 255.500 236.500, 255.500 236.500, 255.754 118.250 C 256.008 0, 256.008 0, 128.004 0 C 0 0, 0 0, 0 118.504 M 0.484 119 C 0.484 184.175, 0.604 210.838, 0.750 178.250 C 0.896 145.663, 0.896 92.338, 0.750 59.750 C 0.604 27.163, 0.484 53.825, 0.484 119 M 139 9.649 C 120.682 13.313, 103.895 26.194, 97.222 41.705 C 94.993 46.886, 94.993 46.886, 89.247 44.193 C 67.137 33.831, 43.438 49.931, 43.539 75.244 C 43.577 84.989, 43.577 84.989, 40.265 85.610 C 2.942 92.612, 6.345 151.862, 44.474 158.911 C 52.407 160.377, 192.932 160.399, 202 158.936 C 253.281 150.658, 258.820 75.550, 209.228 60.930 C 205.912 59.952, 204.834 59.091, 204.413 57.085 C 197.689 25.060, 168.343 3.779, 139 9.649 M 71.718 171.615 C 71.323 172.010, 71 173.055, 71 173.937 C 71 174.818, 67.642 180.612, 63.538 186.811 C 49.040 208.708, 59.406 231.089, 79.316 220.880 C 92.614 214.061, 93.086 203.294, 80.832 186.268 C 77.574 181.740, 74.351 176.429, 73.672 174.466 C 72.992 172.503, 72.113 171.220, 71.718 171.615 M 127.137 174.499 C 126.411 176.506, 123.455 181.603, 120.569 185.824 C 111.905 198.498, 110.351 202.771, 112.065 209.205 C 116.992 227.691, 144.205 225.627, 145.779 206.648 C 146.326 200.058, 144.712 196.126, 137.565 186.630 C 134.527 182.593, 131.235 177.391, 130.249 175.070 C 128.456 170.849, 128.456 170.849, 127.137 174.499 M 184.085 173.315 C 183.488 174.863, 183 176.370, 183 176.663 C 183 176.956, 180.583 180.639, 177.629 184.848 C 163.269 205.309, 165.715 220.317, 183.653 221.804 C 202.646 223.379, 208.088 205.519, 194.242 187.055 C 191.171 182.960, 187.874 177.560, 186.915 175.055 C 185.171 170.500, 185.171 170.500, 184.085 173.315" stroke="none" fill="#1362ad" fill-rule="evenodd"/><path d="M 139 9.649 C 120.682 13.313, 103.895 26.194, 97.222 41.705 C 94.993 46.886, 94.993 46.886, 89.247 44.193 C 67.137 33.831, 43.438 49.931, 43.539 75.244 C 43.577 84.989, 43.577 84.989, 40.265 85.610 C 2.942 92.612, 6.345 151.862, 44.474 158.911 C 52.407 160.377, 192.932 160.399, 202 158.936 C 253.281 150.658, 258.820 75.550, 209.228 60.930 C 205.912 59.952, 204.834 59.091, 204.413 57.085 C 197.689 25.060, 168.343 3.779, 139 9.649 M 71.667 171.667 C 71.300 172.033, 71.014 173.046, 71.030 173.917 C 71.055 175.217, 71.251 175.174, 72.122 173.675 C 73.199 171.823, 72.887 170.447, 71.667 171.667 M 126.301 176.148 C 125.092 178.847, 124.471 180.827, 124.921 180.549 C 125.371 180.271, 126.300 178.689, 126.986 177.034 C 127.671 175.379, 128.630 174.271, 129.116 174.572 C 130.183 175.231, 130.252 173.935, 129.235 172.371 C 128.795 171.695, 127.617 173.213, 126.301 176.148 M 184.667 171.667 C 184.300 172.033, 184 172.798, 184 173.367 C 184 173.993, 184.466 173.934, 185.183 173.217 C 185.834 172.566, 186.134 171.801, 185.850 171.517 C 185.566 171.232, 185.033 171.300, 184.667 171.667 M 66.736 182 C 65.296 184.200, 64.541 186, 65.059 186 C 65.576 186, 66 185.635, 66 185.189 C 66 184.742, 66.787 183.487, 67.750 182.400 C 69.337 180.606, 70.479 178, 69.678 178 C 69.500 178, 68.177 179.800, 66.736 182 M 177.131 185.500 C 174.251 189.625, 172.103 193, 172.359 193 C 172.784 193, 180.661 182.199, 182.386 179.250 C 184.532 175.584, 181.716 178.933, 177.131 185.500 M 75.600 180 C 76.718 182.168, 84.159 192, 84.682 192 C 85.159 192, 80.251 185.071, 76.890 181 C 75.755 179.625, 75.175 179.175, 75.600 180 M 189 181.378 C 189 181.585, 189.787 182.373, 190.750 183.128 C 192.336 184.371, 192.371 184.336, 191.128 182.750 C 189.821 181.084, 189 180.555, 189 181.378 M 136.437 186.329 C 137.977 188.348, 139.440 190, 139.687 190 C 140.381 190, 136.052 184.150, 134.772 183.359 C 134.148 182.973, 134.897 184.310, 136.437 186.329 M 119.872 186.750 C 118.629 188.336, 118.664 188.371, 120.250 187.128 C 121.213 186.373, 122 185.585, 122 185.378 C 122 184.555, 121.179 185.084, 119.872 186.750 M 192 185.378 C 192 185.585, 192.787 186.373, 193.750 187.128 C 195.336 188.371, 195.371 188.336, 194.128 186.750 C 192.821 185.084, 192 184.555, 192 185.378 M 197.094 192 C 199.991 196.490, 200.001 196.501, 199.995 195.417 C 199.992 194.912, 198.830 193.150, 197.412 191.500 C 194.835 188.500, 194.835 188.500, 197.094 192 M 142.313 194.919 C 143.500 197.087, 144.624 198.709, 144.810 198.524 C 145.294 198.039, 142.193 192.237, 141.084 191.552 C 140.572 191.236, 141.125 192.751, 142.313 194.919 M 115 194 C 114.411 195.100, 114.155 196, 114.430 196 C 114.705 196, 115.411 195.100, 116 194 C 116.589 192.900, 116.845 192, 116.570 192 C 116.295 192, 115.589 192.900, 115 194 M 57.500 196 C 56.647 197.650, 56.174 199, 56.449 199 C 56.724 199, 57.647 197.650, 58.500 196 C 59.353 194.350, 59.826 193, 59.551 193 C 59.276 193, 58.353 194.350, 57.500 196 M 86.824 196.954 C 87.746 199.128, 88.640 200.509, 88.811 200.022 C 89.126 199.122, 86.282 193, 85.549 193 C 85.329 193, 85.903 194.779, 86.824 196.954 M 145.158 202 C 145.158 203.375, 145.385 203.938, 145.662 203.250 C 145.940 202.563, 145.940 201.438, 145.662 200.750 C 145.385 200.063, 145.158 200.625, 145.158 202 M 168.079 201.583 C 168.127 202.748, 168.364 202.985, 168.683 202.188 C 168.972 201.466, 168.936 200.603, 168.604 200.271 C 168.272 199.939, 168.036 200.529, 168.079 201.583 M 55.272 205 C 55.272 207.475, 55.467 208.488, 55.706 207.250 C 55.944 206.012, 55.944 203.988, 55.706 202.750 C 55.467 201.512, 55.272 202.525, 55.272 205 M 89.195 205.500 C 89.215 207.150, 89.439 207.704, 89.693 206.731 C 89.947 205.758, 89.930 204.408, 89.656 203.731 C 89.382 203.054, 89.175 203.850, 89.195 205.500 M 202.158 205 C 202.158 206.375, 202.385 206.938, 202.662 206.250 C 202.940 205.563, 202.940 204.438, 202.662 203.750 C 202.385 203.063, 202.158 203.625, 202.158 205 M 111.079 205.583 C 111.127 206.748, 111.364 206.985, 111.683 206.188 C 111.972 205.466, 111.936 204.603, 111.604 204.271 C 111.272 203.939, 111.036 204.529, 111.079 205.583 M 168.158 208 C 168.158 209.375, 168.385 209.938, 168.662 209.250 C 168.940 208.563, 168.940 207.438, 168.662 206.750 C 168.385 206.063, 168.158 206.625, 168.158 208 M 145.079 208.583 C 145.127 209.748, 145.364 209.985, 145.683 209.188 C 145.972 208.466, 145.936 207.603, 145.604 207.271 C 145.272 206.939, 145.036 207.529, 145.079 208.583 M 86.224 213.792 C 83.947 217.500, 83.947 217.500, 86.474 214.694 C 87.863 213.151, 89 211.464, 89 210.944 C 89 209.474, 88.663 209.820, 86.224 213.792 M 143.564 212.707 C 143.022 214.132, 143.136 214.247, 144.124 213.267 C 144.808 212.588, 145.115 211.781, 144.807 211.474 C 144.499 211.166, 143.940 211.721, 143.564 212.707 M 57.909 214.680 C 59.205 217.281, 63.528 220.478, 67 221.404 C 68.375 221.771, 67.700 221.153, 65.500 220.030 C 63.300 218.908, 60.448 216.754, 59.161 215.244 C 57.380 213.155, 57.082 213.020, 57.909 214.680 M 170.943 214.680 C 171.937 216.738, 177.021 221, 178.481 221 C 178.851 221, 177.656 219.765, 175.827 218.256 C 173.997 216.747, 171.913 214.835, 171.195 214.006 C 170.094 212.736, 170.055 212.842, 170.943 214.680 M 116 216.382 C 118.609 219.313, 123.835 222.498, 124.668 221.665 C 124.934 221.400, 124.187 220.877, 123.010 220.503 C 121.832 220.129, 119.211 218.417, 117.184 216.699 C 113.727 213.766, 113.654 213.747, 116 216.382 M 197.076 216.420 C 195.825 217.750, 193.482 219.386, 191.869 220.054 C 190.256 220.722, 189.133 221.467, 189.375 221.708 C 190.126 222.460, 195.382 219.317, 197.924 216.595 C 199.258 215.168, 200.124 214, 199.849 214 C 199.574 214, 198.326 215.089, 197.076 216.420 M 140.962 216.466 C 140.156 217.273, 137.697 218.864, 135.498 220.002 C 133.194 221.195, 132.559 221.795, 134 221.420 C 136.373 220.801, 143 216.405, 143 215.449 C 143 214.686, 142.486 214.942, 140.962 216.466 M 76.500 221 C 75.181 221.567, 75.011 221.878, 76 221.914 C 76.825 221.945, 78.175 221.533, 79 221 C 80.828 219.819, 79.249 219.819, 76.500 221" stroke="none" fill="#d6d8d9" fill-rule="evenodd"/></svg>