<svg xmlns="http://www.w3.org/2000/svg" width="213" height="259" viewBox="0 0 213 259" version="1.1"><path d="M 12 28.500 L 12 37 98 37 L 184 37 184 28.500 L 184 20 98 20 L 12 20 12 28.500 M 32 56.250 L 32 64.500 110 64.238 L 188 63.976 188 55.988 L 188 48 110 48 L 32 48 32 56.250 M 54 84 L 54 92 115.500 92 L 177 92 177 84 L 177 76 115.500 76 L 54 76 54 84 M 47 111.500 L 47 120 102 120 L 157 120 157 111.500 L 157 103 102 103 L 47 103 47 111.500 M 40 139.500 L 40 148 84 148 L 128 148 128 139.500 L 128 131 84 131 L 40 131 40 139.500 M 50 167.500 L 50 176 84 176 L 118 176 117.986 169.750 C 117.979 166.313, 117.701 162.488, 117.370 161.250 L 116.767 159 83.383 159 L 50 159 50 167.500 M 63 195.519 L 63 204.038 85.750 203.769 L 108.500 203.500 108.790 195.250 L 109.081 187 86.040 187 L 63 187 63 195.519 M 85 223 L 85 231 99.500 231 L 114 231 114 223 L 114 215 99.500 215 L 85 215 85 223" stroke="none" fill="#f5fafb" fill-rule="evenodd"/><path d="M 0 129.505 L 0 259.009 106.750 258.755 L 213.500 258.500 213.754 129.250 L 214.008 -0 107.004 -0 L 0 0 0 129.505 M 0.485 130 C 0.485 201.225, 0.604 230.362, 0.750 194.750 C 0.895 159.137, 0.895 100.862, 0.750 65.250 C 0.604 29.637, 0.485 58.775, 0.485 130 M 12 28.500 L 12 37 98 37 L 184 37 184 28.500 L 184 20 98 20 L 12 20 12 28.500 M 32 56.250 L 32 64.500 110 64.238 L 188 63.976 188 55.988 L 188 48 110 48 L 32 48 32 56.250 M 54 84 L 54 92 115.500 92 L 177 92 177 84 L 177 76 115.500 76 L 54 76 54 84 M 47 111.500 L 47 120 102 120 L 157 120 157 111.500 L 157 103 102 103 L 47 103 47 111.500 M 40 139.500 L 40 148 84 148 L 128 148 128 139.500 L 128 131 84 131 L 40 131 40 139.500 M 50 167.500 L 50 176 84 176 L 118 176 117.986 169.750 C 117.979 166.313, 117.701 162.488, 117.370 161.250 L 116.767 159 83.383 159 L 50 159 50 167.500 M 63 195.519 L 63 204.038 85.750 203.769 L 108.500 203.500 108.790 195.250 L 109.081 187 86.040 187 L 63 187 63 195.519 M 85 223 L 85 231 99.500 231 L 114 231 114 223 L 114 215 99.500 215 L 85 215 85 223" stroke="none" fill="#3273b8" fill-rule="evenodd"/></svg>