<svg xmlns="http://www.w3.org/2000/svg" width="330" height="274" viewBox="0 0 330 274" version="1.1"><path d="M 259 28.017 C 252.204 29.199, 242.867 32.976, 243.643 34.231 C 244.035 34.866, 243.842 35.020, 243.172 34.606 C 240.994 33.261, 226.351 45.142, 227.633 47.215 C 228.005 47.817, 227.861 48.032, 227.314 47.694 C 225.556 46.608, 219.831 55.853, 216.499 65.157 C 215.644 67.546, 214.671 73.334, 214.339 78.020 L 213.734 86.540 219.617 90.426 C 232.382 98.857, 242.448 112.003, 246.987 126.174 C 248.834 131.942, 249.557 133.008, 252.312 134.033 C 257.114 135.818, 275.073 136.469, 280.708 135.062 C 287.248 133.429, 297.080 128.939, 296.428 127.884 C 296.136 127.410, 296.503 127.256, 297.245 127.541 C 299.123 128.261, 311.260 117.121, 310.567 115.314 C 310.268 114.534, 310.433 114.150, 310.935 114.460 C 311.792 114.990, 316 110.022, 316 108.481 C 316 108.090, 314.988 108.428, 313.750 109.231 C 310.298 111.474, 302.151 113.847, 295.500 114.549 C 288.279 115.310, 278.453 113.251, 270.206 109.250 C 264.113 106.293, 253.527 96.516, 251.962 92.400 C 251.435 91.014, 250.649 90.099, 250.216 90.366 C 249.783 90.634, 249.368 90.099, 249.294 89.177 C 249.220 88.254, 248.196 84.350, 247.019 80.500 C 243.054 67.535, 245.483 52.791, 253.507 41.126 C 255.364 38.426, 256.685 35.943, 256.442 35.609 C 256.199 35.274, 256.263 35.188, 256.585 35.418 C 256.906 35.648, 257.918 35.217, 258.835 34.460 C 259.751 33.703, 262.249 31.715, 264.388 30.042 C 267.886 27.304, 268.036 27.012, 265.888 27.118 C 264.574 27.182, 261.475 27.587, 259 28.017 M 69.032 58.282 L 64.681 72.582 54.591 75.729 C 49.041 77.460, 42.560 79.434, 40.190 80.115 C 34.732 81.682, 35.315 82.026, 51.808 86.966 L 64.500 90.768 68.970 105.470 C 74.140 122.473, 73.439 122.652, 79.479 102.796 L 83.040 91.093 97.766 86.433 L 112.491 81.773 97.996 77.273 C 90.023 74.799, 83.363 72.651, 83.196 72.500 C 83.029 72.349, 81.069 66.213, 78.840 58.863 C 76.611 51.513, 74.471 45.159, 74.085 44.741 C 73.698 44.324, 71.425 50.417, 69.032 58.282 M 19.996 124.296 L 17.775 131.777 9.967 134.134 C 5.672 135.431, 2.380 136.713, 2.651 136.984 C 2.922 137.256, 6.350 138.423, 10.268 139.579 L 17.391 141.680 20.013 149.540 C 21.455 153.862, 22.874 156.972, 23.166 156.449 C 23.458 155.927, 24.546 152.464, 25.585 148.753 L 27.473 142.007 35.487 139.312 L 43.500 136.617 38.500 135.271 C 28.493 132.577, 27.561 131.829, 25.522 124.857 C 24.499 121.361, 23.337 118.121, 22.939 117.658 C 22.542 117.195, 21.217 120.182, 19.996 124.296" stroke="none" fill="#fefff9" fill-rule="evenodd"/><path d="M 265.500 29.318 C 263.850 31.005, 263.400 31.687, 264.500 30.833 C 265.600 29.979, 267.345 28.829, 268.378 28.278 C 269.412 27.727, 269.862 27.046, 269.378 26.763 C 268.895 26.481, 267.150 27.630, 265.500 29.318 M 259.750 27.662 C 260.438 27.940, 261.563 27.940, 262.250 27.662 C 262.938 27.385, 262.375 27.158, 261 27.158 C 259.625 27.158, 259.063 27.385, 259.750 27.662 M 259.295 33.940 C 258.150 35.007, 256.940 35.682, 256.606 35.440 C 256.273 35.198, 256.223 35.298, 256.495 35.662 C 256.768 36.026, 255.938 37.713, 254.651 39.412 C 251.918 43.020, 249.709 47, 250.439 47 C 250.719 47, 251.590 45.763, 252.374 44.250 C 253.158 42.737, 255.682 39.362, 257.984 36.750 C 262.323 31.826, 262.907 30.575, 259.295 33.940 M 231.437 41.250 L 228.500 44.500 231.750 41.563 C 233.537 39.948, 235 38.485, 235 38.313 C 235 37.540, 234.175 38.221, 231.437 41.250 M 73 42.882 C 73 43.432, 73.450 44.160, 74 44.500 C 74.550 44.840, 75 44.668, 75 44.118 C 75 43.568, 74.550 42.840, 74 42.500 C 73.450 42.160, 73 42.332, 73 42.882 M 225.860 46.750 C 223.477 49.627, 222.353 51.754, 224.382 49.547 C 225.417 48.421, 226.580 47.587, 226.966 47.694 C 227.351 47.801, 227.667 47.239, 227.667 46.444 C 227.667 44.624, 227.614 44.633, 225.860 46.750 M 218.954 57.086 C 218.340 58.233, 218.026 59.360, 218.257 59.590 C 218.487 59.820, 219.189 58.882, 219.816 57.504 C 221.194 54.480, 220.523 54.154, 218.954 57.086 M 245.343 67.500 C 245.346 71.900, 245.522 73.576, 245.733 71.224 C 245.945 68.872, 245.942 65.272, 245.727 63.224 C 245.512 61.176, 245.339 63.100, 245.343 67.500 M 90.500 75 C 93.249 76.181, 94.828 76.181, 93 75 C 92.175 74.467, 90.825 74.055, 90 74.086 C 89.011 74.122, 89.181 74.433, 90.500 75 M 48.500 77 C 47.181 77.567, 47.011 77.878, 48 77.914 C 48.825 77.945, 50.175 77.533, 51 77 C 52.828 75.819, 51.249 75.819, 48.500 77 M 103.500 79 C 106.249 80.181, 107.828 80.181, 106 79 C 105.175 78.467, 103.825 78.055, 103 78.086 C 102.011 78.122, 102.181 78.433, 103.500 79 M 213.158 82 C 213.158 83.375, 213.385 83.938, 213.662 83.250 C 213.940 82.563, 213.940 81.438, 213.662 80.750 C 213.385 80.063, 213.158 80.625, 213.158 82 M 34.550 81.888 C 35.072 82.376, 36.625 83.070, 38 83.429 L 40.500 84.083 38 82.577 C 35.214 80.898, 33.023 80.460, 34.550 81.888 M 111 82 C 109.707 82.835, 109.734 82.971, 111.191 82.985 C 112.121 82.993, 113.160 82.550, 113.500 82 C 114.282 80.734, 112.958 80.734, 111 82 M 248.485 85.500 C 248.927 86.600, 249.320 88.213, 249.359 89.083 C 249.397 89.954, 249.980 90.667, 250.654 90.667 C 251.547 90.667, 251.454 89.831, 250.312 87.583 C 248.456 83.929, 247.345 82.663, 248.485 85.500 M 214 87.430 C 214 87.705, 214.900 88.411, 216 89 C 217.100 89.589, 218 89.845, 218 89.570 C 218 89.295, 217.100 88.589, 216 88 C 214.900 87.411, 214 87.155, 214 87.430 M 62 90.668 C 62.825 91.015, 63.872 91.795, 64.326 92.400 C 64.857 93.107, 65.006 92.965, 64.743 92 C 64.518 91.175, 63.472 90.395, 62.417 90.268 C 61.070 90.104, 60.946 90.223, 62 90.668 M 170.156 91.463 C 167.217 92.174, 161.476 94.449, 157.400 96.518 C 148.064 101.257, 137.939 111.569, 133.260 121.102 L 130.020 127.704 124.836 125.138 C 118.241 121.875, 109.304 121.188, 101.802 123.369 C 86.644 127.776, 76.122 144.254, 78.745 159.478 C 79.591 164.386, 79.504 165.238, 78.113 165.679 C 65.203 169.769, 57.757 175.682, 52.781 185.800 C 49.702 192.059, 49.500 193.115, 49.507 202.984 C 49.513 212.563, 49.764 213.976, 52.320 218.840 C 56.284 226.386, 62.439 232.670, 69.463 236.343 L 75.500 239.500 156.495 239.773 C 235.210 240.039, 237.676 239.990, 244.115 238.034 C 267.372 230.969, 282.765 206.432, 279.009 182.408 C 276.173 164.275, 262.141 147.594, 244.912 141.876 C 240.832 140.522, 239 138.463, 239 135.229 C 239 131.562, 234.129 120.144, 229.885 113.861 C 222.657 103.160, 210.628 94.851, 197.540 91.518 C 190.409 89.702, 177.542 89.676, 170.156 91.463 M 252 92.678 C 252 93.235, 253.012 94.547, 254.250 95.595 L 256.500 97.500 254.511 95 C 253.417 93.625, 252.404 92.313, 252.261 92.083 C 252.117 91.854, 252 92.122, 252 92.678 M 230 99.500 C 231.866 101.425, 233.617 103, 233.892 103 C 234.167 103, 232.866 101.425, 231 99.500 C 229.134 97.575, 227.383 96, 227.108 96 C 226.833 96, 228.134 97.575, 230 99.500 M 256 98.313 C 256 98.485, 257.462 99.948, 259.250 101.563 L 262.500 104.500 259.563 101.250 C 256.825 98.221, 256 97.540, 256 98.313 M 263.433 104.891 C 264.146 106.045, 268 108.374, 268 107.650 C 268 107.419, 266.820 106.457, 265.377 105.511 C 263.934 104.566, 263.059 104.287, 263.433 104.891 M 236.997 107.750 C 238.305 109.537, 239.532 111, 239.723 111 C 240.483 111, 238.003 107.249, 236.363 105.918 C 235.283 105.040, 235.525 105.739, 236.997 107.750 M 314.554 107.912 C 314.244 108.414, 314.655 108.727, 315.466 108.608 C 317.608 108.294, 318.621 107, 316.726 107 C 315.841 107, 314.864 107.410, 314.554 107.912 M 309.500 110.535 C 306.988 111.745, 306.906 111.882, 309 111.378 C 310.375 111.046, 311.928 110.376, 312.450 109.888 C 313.746 108.677, 313.034 108.833, 309.500 110.535 M 241 114 C 241.589 115.100, 242.295 116, 242.570 116 C 242.845 116, 242.589 115.100, 242 114 C 241.411 112.900, 240.705 112, 240.430 112 C 240.155 112, 240.411 112.900, 241 114 M 299.750 113.662 C 300.438 113.940, 301.563 113.940, 302.250 113.662 C 302.938 113.385, 302.375 113.158, 301 113.158 C 299.625 113.158, 299.063 113.385, 299.750 113.662 M 312.490 114.016 C 312.144 114.575, 311.373 114.731, 310.776 114.362 C 310.113 113.952, 309.980 114.159, 310.435 114.894 C 311.004 115.815, 311.509 115.823, 312.589 114.926 C 314.004 113.752, 314.383 113, 313.559 113 C 313.316 113, 312.835 113.457, 312.490 114.016 M 289.264 114.718 C 290.784 114.947, 293.034 114.941, 294.264 114.704 C 295.494 114.467, 294.250 114.279, 291.500 114.286 C 288.750 114.294, 287.744 114.488, 289.264 114.718 M 22 115.882 C 22 116.432, 22.450 117.160, 23 117.500 C 23.550 117.840, 24 117.668, 24 117.118 C 24 116.568, 23.550 115.840, 23 115.500 C 22.450 115.160, 22 115.332, 22 115.882 M 243.031 117.500 C 243.031 118.050, 243.467 119.175, 244 120 C 244.533 120.825, 244.969 121.050, 244.969 120.500 C 244.969 119.950, 244.533 118.825, 244 118 C 243.467 117.175, 243.031 116.950, 243.031 117.500 M 304.500 122.716 C 301.200 125.810, 299.850 127.404, 301.500 126.258 C 304.377 124.259, 311.870 116.952, 310.946 117.045 C 310.701 117.070, 307.800 119.622, 304.500 122.716 M 73.600 119.600 C 73.244 120.527, 73.178 121.511, 73.453 121.786 C 73.728 122.061, 74.244 121.527, 74.600 120.600 C 74.956 119.673, 75.022 118.689, 74.747 118.414 C 74.472 118.139, 73.956 118.673, 73.600 119.600 M 245.031 122.500 C 245.031 123.050, 245.467 124.175, 246 125 C 246.533 125.825, 246.969 126.050, 246.969 125.500 C 246.969 124.950, 246.533 123.825, 246 123 C 245.467 122.175, 245.031 121.950, 245.031 122.500 M 292 131 C 290.075 132.054, 288.860 132.935, 289.300 132.958 C 290.359 133.014, 296 130.081, 296 129.474 C 296 128.820, 295.941 128.842, 292 131 M 248 131.902 C 248 132.940, 249.902 134.443, 250.466 133.850 C 250.649 133.658, 250.169 132.920, 249.399 132.211 C 248.630 131.501, 248 131.362, 248 131.902 M 31 133 C 31.825 133.533, 33.175 133.945, 34 133.914 C 34.989 133.878, 34.819 133.567, 33.500 133 C 30.751 131.819, 29.172 131.819, 31 133 M 255.750 135.662 C 256.438 135.940, 257.563 135.940, 258.250 135.662 C 258.938 135.385, 258.375 135.158, 257 135.158 C 255.625 135.158, 255.063 135.385, 255.750 135.662 M 39 138.049 C 33.861 140.153, 34.430 140.551, 40.134 138.842 C 42.260 138.205, 44 137.305, 44 136.842 C 44 136.379, 43.888 136.047, 43.750 136.104 C 43.612 136.161, 41.475 137.036, 39 138.049 M 264.776 136.733 C 267.128 136.945, 270.728 136.942, 272.776 136.727 C 274.824 136.512, 272.900 136.339, 268.500 136.343 C 264.100 136.346, 262.424 136.522, 264.776 136.733 M 14 141.383 C 14 141.594, 14.901 142.002, 16.001 142.290 C 17.102 142.578, 17.751 142.405, 17.442 141.907 C 16.904 141.036, 14 140.594, 14 141.383 M 22.667 156.667 C 22.300 157.033, 22 157.798, 22 158.367 C 22 158.993, 22.466 158.934, 23.183 158.217 C 23.834 157.566, 24.134 156.801, 23.850 156.517 C 23.566 156.232, 23.033 156.300, 22.667 156.667" stroke="none" fill="#d8dadc" fill-rule="evenodd"/><path d="M -0 137.003 L -0 274.006 165.250 273.753 L 330.500 273.500 330.754 136.750 L 331.007 0 165.504 0 L 0 0 -0 137.003 M 0.486 137.500 C 0.486 212.850, 0.605 243.788, 0.750 206.250 C 0.963 151.099, 1.263 138, 2.312 138 C 3.026 138, 6.670 139.032, 10.409 140.293 L 17.207 142.587 19.968 151.043 C 21.567 155.942, 22.975 158.869, 23.316 158 C 23.639 157.175, 24.852 153.292, 26.012 149.372 L 28.121 142.243 36.060 139.983 C 40.427 138.739, 44 137.400, 44 137.007 C 44 136.613, 40.445 135.218, 36.101 133.907 L 28.202 131.522 25.919 124.011 C 24.663 119.880, 23.360 116.165, 23.023 115.755 C 22.685 115.345, 21.188 118.760, 19.695 123.343 L 16.981 131.677 10.741 133.455 C 7.308 134.433, 3.716 135.457, 2.757 135.731 C 1.114 136.201, 0.999 132.346, 0.750 68.365 C 0.605 31.039, 0.486 62.150, 0.486 137.500 M 262.161 27.137 C 253.848 28.135, 247.582 30.282, 240.379 34.597 C 225.251 43.661, 216.253 57.586, 214.017 75.394 C 212.771 85.314, 213.415 87.467, 218.524 90.461 C 231.659 98.159, 242.410 112.869, 247.728 130.419 C 248.872 134.195, 253.640 135.925, 265.008 136.691 C 280.612 137.743, 297.971 131.273, 307.594 120.819 C 312.146 115.873, 318.439 107, 317.395 107 C 317.009 107, 314.349 108.109, 311.485 109.464 C 288.319 120.423, 261.341 110.665, 250.252 87.315 C 247.032 80.534, 246.524 78.432, 246.174 70.429 C 245.430 53.422, 252.435 38.862, 265.536 30.184 C 268.038 28.527, 269.729 26.992, 269.293 26.773 C 268.857 26.554, 265.648 26.718, 262.161 27.137 M 69.031 56.287 C 66.678 64.104, 64.245 71.007, 63.626 71.626 C 63.007 72.245, 56.104 74.678, 48.287 77.031 C 40.470 79.385, 34.254 81.603, 34.475 81.959 C 34.695 82.316, 41.435 84.578, 49.452 86.986 L 64.028 91.364 67.955 103.932 C 70.115 110.844, 72.187 117.758, 72.561 119.297 C 72.935 120.835, 73.499 121.834, 73.815 121.518 C 74.131 121.202, 76.458 114.323, 78.986 106.230 L 83.582 91.517 98.541 86.805 C 106.768 84.213, 113.725 82.040, 114 81.975 C 114.607 81.832, 106.955 79.273, 93.425 75.094 L 83.350 71.982 78.979 57.429 C 76.574 49.424, 74.316 42.695, 73.959 42.475 C 73.603 42.254, 71.385 48.470, 69.031 56.287 M 170.156 91.463 C 167.217 92.174, 161.476 94.449, 157.400 96.518 C 148.064 101.257, 137.939 111.569, 133.260 121.102 L 130.020 127.704 124.836 125.138 C 118.241 121.875, 109.304 121.188, 101.802 123.369 C 86.644 127.776, 76.122 144.254, 78.745 159.478 C 79.591 164.386, 79.504 165.238, 78.113 165.679 C 65.203 169.769, 57.757 175.682, 52.781 185.800 C 49.702 192.059, 49.500 193.115, 49.507 202.984 C 49.513 212.563, 49.764 213.976, 52.320 218.840 C 56.284 226.386, 62.439 232.670, 69.463 236.343 L 75.500 239.500 156.495 239.773 C 235.210 240.039, 237.676 239.990, 244.115 238.034 C 267.372 230.969, 282.765 206.432, 279.009 182.408 C 276.173 164.275, 262.141 147.594, 244.912 141.876 C 240.832 140.522, 239 138.463, 239 135.229 C 239 131.562, 234.129 120.144, 229.885 113.861 C 222.657 103.160, 210.628 94.851, 197.540 91.518 C 190.409 89.702, 177.542 89.676, 170.156 91.463" stroke="none" fill="#1263ad" fill-rule="evenodd"/></svg>