<svg xmlns="http://www.w3.org/2000/svg" width="267" height="256" viewBox="0 0 267 256" version="1.1"><path d="M 172.379 90.770 L 151.258 91.039 150.698 94.770 C 150.389 96.821, 148.476 106.375, 146.446 116 C 136.933 161.108, 136.142 165.469, 137.331 166.226 C 137.974 166.635, 144.074 166.976, 150.886 166.985 L 163.273 167 162.630 177.750 C 161.870 190.448, 160.163 213.844, 159.074 226.500 C 158.648 231.450, 158.345 235.565, 158.400 235.645 C 158.455 235.725, 160.157 232.904, 162.182 229.378 C 164.208 225.851, 165.333 223.276, 164.682 223.655 C 164.032 224.034, 164.271 223.461, 165.214 222.383 C 166.157 221.304, 168.469 217.514, 170.353 213.961 C 172.237 210.407, 175.011 205.250, 176.520 202.500 C 178.028 199.750, 180.988 194.244, 183.098 190.265 C 185.208 186.286, 187.660 181.922, 188.548 180.567 C 189.435 179.213, 190.255 177.518, 190.370 176.802 C 190.485 176.086, 191.292 174.375, 192.163 173 C 193.035 171.625, 195.440 167.350, 197.507 163.500 C 199.574 159.650, 203.681 152.034, 206.633 146.575 C 209.585 141.116, 212 136.054, 212 135.325 C 212 134.283, 208.730 134, 196.667 134 C 188.233 134, 181.140 133.806, 180.903 133.570 C 180.667 133.333, 185.046 123.771, 190.635 112.320 C 196.224 100.869, 200.730 91.435, 200.648 91.354 C 200.022 90.740, 190.375 90.540, 172.379 90.770 M 52.059 181.889 C 52.026 182.654, 50.639 185.491, 48.975 188.195 C 47.312 190.899, 46.256 193.605, 46.630 194.210 C 47.024 194.848, 46.852 195.026, 46.220 194.636 C 43.205 192.773, 34.691 210.468, 36.542 214.748 C 36.959 215.711, 37.470 217.384, 37.677 218.464 C 38.543 222.986, 47.229 229, 52.895 229 C 61.967 229, 69.973 220.570, 69.994 210.996 C 70 208.554, 66.621 202.456, 58.500 190.254 C 56.300 186.948, 53.964 183.401, 53.309 182.372 C 52.500 181.101, 52.099 180.946, 52.059 181.889 M 108.570 182.780 C 108.192 183.972, 106.360 187.160, 104.499 189.865 C 102.639 192.570, 101.428 195.129, 101.808 195.552 C 102.189 195.975, 102.019 196.048, 101.432 195.714 C 100.836 195.375, 98.738 197.935, 96.682 201.509 C 91.959 209.721, 91.763 214.658, 95.902 221.184 C 104.672 235.014, 126 228.513, 126 212.010 C 126 207.228, 123.931 202.835, 117.679 194.348 C 115.187 190.964, 112.273 186.489, 111.203 184.404 C 109.418 180.926, 109.201 180.791, 108.570 182.780" stroke="none" fill="#feffff" fill-rule="evenodd"/><path d="M 144 18.427 C 128.044 22.851, 113.105 35.501, 107.372 49.440 C 106.343 51.944, 105.145 53.994, 104.710 53.996 C 104.276 53.998, 102.026 52.989, 99.710 51.753 C 96.193 49.876, 93.935 49.506, 86 49.508 C 77.656 49.509, 75.891 49.832, 71.500 52.155 C 64.861 55.668, 59.574 61.132, 56.234 67.932 C 53.794 72.901, 53.510 74.549, 53.590 83.250 C 53.672 92.196, 53.522 93, 51.778 93 C 47.605 93, 39.015 98.217, 33.657 104.004 C 16.002 123.073, 22.003 152.675, 45.782 163.820 L 51.500 166.500 88.500 166.793 L 125.500 167.085 134.570 123.793 L 143.639 80.500 179.507 80.237 C 199.234 80.093, 215.683 80.318, 216.060 80.737 C 216.436 81.157, 212.302 90.662, 206.872 101.860 C 201.443 113.058, 197 122.610, 197 123.086 C 197 123.563, 204.621 124.076, 213.935 124.226 L 230.870 124.500 218.036 145.500 C 203.857 168.702, 203.944 168.191, 214.517 165.997 C 223.488 164.134, 232.923 158.792, 239.694 151.740 C 249.390 141.642, 254 130.458, 254 117.029 C 254 103.356, 249.998 92.767, 241.075 82.831 C 235.262 76.358, 229.012 72.206, 220.297 69.028 C 214.388 66.874, 214.227 66.718, 213.737 62.660 C 211.414 43.427, 193.371 23.909, 172.869 18.453 C 166.354 16.719, 150.211 16.704, 144 18.427 M 161.250 90.746 C 167.162 90.923, 176.838 90.923, 182.750 90.746 C 188.662 90.569, 183.825 90.425, 172 90.425 C 160.175 90.425, 155.338 90.569, 161.250 90.746 M 197.250 90.689 C 198.213 90.941, 199.787 90.941, 200.750 90.689 C 201.713 90.438, 200.925 90.232, 199 90.232 C 197.075 90.232, 196.287 90.438, 197.250 90.689 M 199.144 94.750 C 198.053 97.300, 198.078 97.359, 199.484 95.559 C 200.318 94.491, 201 93.254, 201 92.809 C 201 91.289, 200.322 91.999, 199.144 94.750 M 150.079 95.583 C 150.127 96.748, 150.364 96.985, 150.683 96.188 C 150.972 95.466, 150.936 94.603, 150.604 94.271 C 150.272 93.939, 150.036 94.529, 150.079 95.583 M 149.079 99.583 C 149.127 100.748, 149.364 100.985, 149.683 100.188 C 149.972 99.466, 149.936 98.603, 149.604 98.271 C 149.272 97.939, 149.036 98.529, 149.079 99.583 M 196.162 100.543 C 194.487 104.220, 194.807 105.005, 196.618 101.662 C 197.464 100.100, 197.969 98.636, 197.741 98.407 C 197.512 98.179, 196.802 99.140, 196.162 100.543 M 148.079 104.583 C 148.127 105.748, 148.364 105.985, 148.683 105.188 C 148.972 104.466, 148.936 103.603, 148.604 103.271 C 148.272 102.939, 148.036 103.529, 148.079 104.583 M 192.954 107.086 C 192.340 108.233, 192.026 109.360, 192.257 109.590 C 192.487 109.820, 193.189 108.882, 193.816 107.504 C 195.194 104.480, 194.523 104.154, 192.954 107.086 M 147.079 109.583 C 147.127 110.748, 147.364 110.985, 147.683 110.188 C 147.972 109.466, 147.936 108.603, 147.604 108.271 C 147.272 107.939, 147.036 108.529, 147.079 109.583 M 186.564 120.707 C 186.022 122.132, 186.136 122.247, 187.124 121.267 C 187.808 120.588, 188.115 119.781, 187.807 119.474 C 187.499 119.166, 186.940 119.721, 186.564 120.707 M 144.079 123.583 C 144.127 124.748, 144.364 124.985, 144.683 124.188 C 144.972 123.466, 144.936 122.603, 144.604 122.271 C 144.272 121.939, 144.036 122.529, 144.079 123.583 M 182.866 128.033 C 181.431 130.723, 180.500 133.166, 180.795 133.462 C 181.091 133.758, 188.233 134, 196.667 134 C 210.597 134, 212.001 134.160, 212.015 135.750 C 212.028 137.246, 212.172 137.282, 213 136 C 213.533 135.175, 213.976 134.162, 213.985 133.750 C 213.993 133.338, 206.800 133, 198 133 C 189.200 133, 182 132.757, 182 132.460 C 182 132.163, 182.931 130.095, 184.070 127.863 C 187.039 122.042, 185.981 122.191, 182.866 128.033 M 142.625 130.125 C 141.791 134.293, 142.599 135.101, 143.500 131 C 143.880 129.271, 143.982 127.649, 143.727 127.394 C 143.472 127.139, 142.976 128.368, 142.625 130.125 M 141.079 138.583 C 141.127 139.748, 141.364 139.985, 141.683 139.188 C 141.972 138.466, 141.936 137.603, 141.604 137.271 C 141.272 136.939, 141.036 137.529, 141.079 138.583 M 209.500 141 C 208.647 142.650, 208.174 144, 208.449 144 C 208.724 144, 209.647 142.650, 210.500 141 C 211.353 139.350, 211.826 138, 211.551 138 C 211.276 138, 210.353 139.350, 209.500 141 M 140.079 142.583 C 140.127 143.748, 140.364 143.985, 140.683 143.188 C 140.972 142.466, 140.936 141.603, 140.604 141.271 C 140.272 140.939, 140.036 141.529, 140.079 142.583 M 139.079 147.583 C 139.127 148.748, 139.364 148.985, 139.683 148.188 C 139.972 147.466, 139.936 146.603, 139.604 146.271 C 139.272 145.939, 139.036 146.529, 139.079 147.583 M 138.158 152 C 138.158 153.375, 138.385 153.938, 138.662 153.250 C 138.940 152.563, 138.940 151.438, 138.662 150.750 C 138.385 150.063, 138.158 150.625, 138.158 152 M 202 155 C 201.411 156.100, 201.155 157, 201.430 157 C 201.705 157, 202.411 156.100, 203 155 C 203.589 153.900, 203.845 153, 203.570 153 C 203.295 153, 202.589 153.900, 202 155 M 137.158 157 C 137.158 158.375, 137.385 158.938, 137.662 158.250 C 137.940 157.563, 137.940 156.438, 137.662 155.750 C 137.385 155.063, 137.158 155.625, 137.158 157 M 199.459 159.067 C 199.096 159.653, 199.014 160.348, 199.276 160.610 C 199.538 160.872, 200.019 160.392, 200.345 159.543 C 201.021 157.781, 200.445 157.471, 199.459 159.067 M 136.158 162 C 136.158 163.375, 136.385 163.938, 136.662 163.250 C 136.940 162.563, 136.940 161.438, 136.662 160.750 C 136.385 160.063, 136.158 160.625, 136.158 162 M 195.500 167 C 194.106 169.750, 193.191 172, 193.466 172 C 193.741 172, 195.106 169.750, 196.500 167 C 197.894 164.250, 198.809 162, 198.534 162 C 198.259 162, 196.894 164.250, 195.500 167 M 135 166.031 C 135 166.564, 135.675 167, 136.500 167 C 137.325 167, 138 166.823, 138 166.607 C 138 166.391, 137.325 165.955, 136.500 165.638 C 135.675 165.322, 135 165.499, 135 166.031 M 162.272 175 C 162.272 177.475, 162.467 178.488, 162.706 177.250 C 162.944 176.012, 162.944 173.988, 162.706 172.750 C 162.467 171.512, 162.272 172.525, 162.272 175 M 191 174.500 C 190.282 175.365, 190.185 176, 190.771 176 C 191.329 176, 192.045 175.325, 192.362 174.500 C 192.678 173.675, 192.781 173, 192.591 173 C 192.401 173, 191.685 173.675, 191 174.500 M 106.491 184.520 C 104.836 187.999, 103.979 190.433, 104.586 189.928 C 105.194 189.424, 106.511 187.192, 107.514 184.969 C 108.783 182.155, 109.585 181.318, 110.153 182.213 C 111.125 183.745, 111.143 182.188, 110.180 179.848 C 109.682 178.638, 108.694 179.890, 106.491 184.520 M 52.032 179.750 C 52.049 180.162, 52.785 181.400, 53.666 182.500 C 55.075 184.258, 55.192 184.278, 54.635 182.668 C 54.286 181.661, 54 180.423, 54 179.918 C 54 179.413, 53.550 179, 53 179 C 52.450 179, 52.014 179.338, 52.032 179.750 M 186.980 182.524 C 186.284 183.362, 185.968 184.301, 186.276 184.610 C 186.585 184.919, 187.340 184.233, 187.954 183.086 C 189.264 180.638, 188.778 180.358, 186.980 182.524 M 56 187 C 56.589 188.100, 57.295 189, 57.570 189 C 57.845 189, 57.589 188.100, 57 187 C 56.411 185.900, 55.705 185, 55.430 185 C 55.155 185, 55.411 185.900, 56 187 M 112.970 187.944 C 113.543 189.014, 114.505 190.194, 115.109 190.567 C 115.713 190.941, 115.434 190.066, 114.489 188.623 C 112.487 185.568, 111.451 185.105, 112.970 187.944 M 184.564 187.707 C 184.022 189.132, 184.136 189.247, 185.124 188.267 C 185.808 187.588, 186.115 186.781, 185.807 186.474 C 185.499 186.166, 184.940 186.721, 184.564 187.707 M 161.286 191.500 C 161.294 194.250, 161.488 195.256, 161.718 193.736 C 161.947 192.216, 161.941 189.966, 161.704 188.736 C 161.467 187.506, 161.279 188.750, 161.286 191.500 M 45.860 191.750 C 45.063 192.713, 43.764 194.400, 42.973 195.500 C 41.576 197.442, 41.594 197.449, 43.598 195.748 C 44.734 194.784, 46.035 194.334, 46.491 194.748 C 46.948 195.162, 46.985 194.918, 46.574 194.206 C 46.164 193.495, 46.372 192.257, 47.036 191.456 C 47.701 190.655, 48.035 190, 47.777 190 C 47.520 190, 46.658 190.787, 45.860 191.750 M 59.978 192.970 C 61.142 194.603, 62.604 196.255, 63.228 196.641 C 63.852 197.027, 63.103 195.690, 61.563 193.671 C 58.220 189.289, 56.960 188.731, 59.978 192.970 M 101.074 193.411 C 100.172 194.498, 100.201 194.994, 101.201 195.571 C 101.916 195.983, 102.166 195.952, 101.759 195.502 C 101.351 195.052, 101.519 194.080, 102.131 193.342 C 102.744 192.604, 103.020 192, 102.745 192 C 102.470 192, 101.718 192.635, 101.074 193.411 M 116 192.378 C 116 192.585, 116.787 193.373, 117.750 194.128 C 119.336 195.371, 119.371 195.336, 118.128 193.750 C 116.821 192.084, 116 191.555, 116 192.378 M 179.571 196.652 C 178.141 199.211, 177.172 201.505, 177.418 201.752 C 177.664 201.998, 179.028 199.904, 180.450 197.099 C 183.682 190.720, 183.063 190.405, 179.571 196.652 M 96.440 200.094 C 95.019 202.346, 94.062 204.395, 94.313 204.647 C 94.565 204.898, 95.916 203.056, 97.315 200.552 C 100.481 194.887, 99.915 194.591, 96.440 200.094 M 120.511 198.377 C 121.457 199.820, 122.419 201, 122.650 201 C 123.374 201, 121.045 197.146, 119.891 196.433 C 119.287 196.059, 119.566 196.934, 120.511 198.377 M 66.135 201.813 C 67.418 204.042, 68.620 205.713, 68.807 205.526 C 69.335 204.998, 66.149 199.210, 64.908 198.443 C 64.300 198.067, 64.852 199.583, 66.135 201.813 M 160.272 203 C 160.272 205.475, 160.467 206.488, 160.706 205.250 C 160.944 204.012, 160.944 201.988, 160.706 200.750 C 160.467 199.512, 160.272 200.525, 160.272 203 M 38.667 201.667 C 38.300 202.033, 38 202.798, 38 203.367 C 38 203.993, 38.466 203.934, 39.183 203.217 C 39.834 202.566, 40.134 201.801, 39.850 201.517 C 39.566 201.232, 39.033 201.300, 38.667 201.667 M 123.564 203.293 C 123.940 204.279, 124.499 204.834, 124.807 204.526 C 125.115 204.219, 124.808 203.412, 124.124 202.733 C 123.136 201.753, 123.022 201.868, 123.564 203.293 M 36.624 206.539 C 36.281 207.432, 36.029 208.689, 36.063 209.332 C 36.098 209.974, 36.558 209.422, 37.085 208.105 C 37.612 206.787, 37.864 205.531, 37.645 205.312 C 37.426 205.093, 36.966 205.645, 36.624 206.539 M 173.790 207.250 C 172.104 209.885, 170.869 213, 171.511 213 C 171.758 213, 172.878 211.200, 174 209 C 176.218 204.652, 176.098 203.644, 173.790 207.250 M 92.252 212.500 C 92.263 214.700, 92.468 215.482, 92.707 214.238 C 92.946 212.994, 92.937 211.194, 92.687 210.238 C 92.437 209.282, 92.241 210.300, 92.252 212.500 M 126.252 212.500 C 126.263 214.700, 126.468 215.482, 126.707 214.238 C 126.946 212.994, 126.937 211.194, 126.687 210.238 C 126.437 209.282, 126.241 210.300, 126.252 212.500 M 159.300 218 C 159.300 221.025, 159.487 222.262, 159.716 220.750 C 159.945 219.238, 159.945 216.762, 159.716 215.250 C 159.487 213.738, 159.300 214.975, 159.300 218 M 169.459 215.067 C 169.096 215.653, 169.014 216.348, 169.276 216.610 C 169.538 216.872, 170.019 216.392, 170.345 215.543 C 171.021 213.781, 170.445 213.471, 169.459 215.067 M 36.015 216.083 C 36.024 216.863, 36.475 218.175, 37.018 219 C 37.802 220.190, 37.942 220.041, 37.695 218.276 C 37.338 215.718, 35.992 213.961, 36.015 216.083 M 69.079 216.583 C 69.127 217.748, 69.364 217.985, 69.683 217.188 C 69.972 216.466, 69.936 215.603, 69.604 215.271 C 69.272 214.939, 69.036 215.529, 69.079 216.583 M 93.013 217.500 C 92.992 221.231, 101.130 229.021, 105 228.974 C 105.825 228.964, 104.640 228.112, 102.367 227.079 C 99.586 225.817, 97.381 223.779, 95.627 220.851 C 94.192 218.458, 93.016 216.950, 93.013 217.500 M 124.494 219.018 C 124.115 220.212, 122.162 222.773, 120.153 224.710 C 118.144 226.648, 117.405 227.772, 118.511 227.209 C 121.868 225.500, 126.899 218.566, 125.672 217.339 C 125.403 217.070, 124.873 217.825, 124.494 219.018 M 166.404 220.750 C 165.400 222.262, 164.493 224.031, 164.388 224.679 C 164.283 225.328, 163.060 227.766, 161.669 230.098 L 159.141 234.338 158.726 230.419 C 158.446 227.774, 158.329 228.342, 158.367 232.166 L 158.423 237.833 161.862 231.666 C 163.753 228.275, 165.308 224.938, 165.317 224.250 C 165.326 223.563, 165.636 223, 166.006 223 C 166.376 223, 167.192 221.875, 167.818 220.500 C 169.317 217.210, 168.680 217.323, 166.404 220.750 M 38.595 220.847 C 37.669 222.345, 46.055 229.089, 48.684 228.960 C 49.133 228.938, 48.150 228.208, 46.500 227.338 C 42.464 225.211, 38.941 221.905, 39.590 220.855 C 39.880 220.385, 39.893 220, 39.618 220 C 39.343 220, 38.882 220.381, 38.595 220.847 M 64.635 223.583 C 61.743 226.126, 61.224 227.833, 64.002 225.668 C 65.622 224.405, 68.481 220.980, 67.872 221.032 C 67.668 221.049, 66.211 222.197, 64.635 223.583 M 113.813 228.683 C 114.534 228.972, 115.397 228.936, 115.729 228.604 C 116.061 228.272, 115.471 228.036, 114.417 228.079 C 113.252 228.127, 113.015 228.364, 113.813 228.683 M 51.750 229.662 C 52.438 229.940, 53.563 229.940, 54.250 229.662 C 54.938 229.385, 54.375 229.158, 53 229.158 C 51.625 229.158, 51.063 229.385, 51.750 229.662 M 108.750 229.662 C 109.438 229.940, 110.563 229.940, 111.250 229.662 C 111.938 229.385, 111.375 229.158, 110 229.158 C 108.625 229.158, 108.063 229.385, 108.750 229.662" stroke="none" fill="#dcdfe1" fill-rule="evenodd"/><path d="M 0 128.004 L 0 256.007 133.750 255.754 L 267.500 255.500 267.754 127.750 L 268.008 0 134.004 0 L 0 0 0 128.004 M 0.485 128.500 C 0.485 198.900, 0.604 227.553, 0.750 192.172 C 0.896 156.792, 0.896 99.192, 0.750 64.172 C 0.604 29.153, 0.485 58.100, 0.485 128.500 M 144 18.427 C 128.044 22.851, 113.105 35.501, 107.372 49.440 C 106.343 51.944, 105.145 53.994, 104.710 53.996 C 104.276 53.998, 102.026 52.989, 99.710 51.753 C 96.193 49.876, 93.935 49.506, 86 49.508 C 77.656 49.509, 75.891 49.832, 71.500 52.155 C 64.861 55.668, 59.574 61.132, 56.234 67.932 C 53.794 72.901, 53.510 74.549, 53.590 83.250 C 53.672 92.196, 53.522 93, 51.778 93 C 47.605 93, 39.015 98.217, 33.657 104.004 C 16.002 123.073, 22.003 152.675, 45.782 163.820 L 51.500 166.500 88.500 166.793 L 125.500 167.085 134.570 123.793 L 143.639 80.500 179.507 80.237 C 199.234 80.093, 215.683 80.318, 216.060 80.737 C 216.436 81.157, 212.302 90.662, 206.872 101.860 C 201.443 113.058, 197 122.610, 197 123.086 C 197 123.563, 204.621 124.076, 213.935 124.226 L 230.870 124.500 218.036 145.500 C 203.857 168.702, 203.944 168.191, 214.517 165.997 C 223.488 164.134, 232.923 158.792, 239.694 151.740 C 249.390 141.642, 254 130.458, 254 117.029 C 254 103.356, 249.998 92.767, 241.075 82.831 C 235.262 76.358, 229.012 72.206, 220.297 69.028 C 214.388 66.874, 214.227 66.718, 213.737 62.660 C 211.414 43.427, 193.371 23.909, 172.869 18.453 C 166.354 16.719, 150.211 16.704, 144 18.427 M 150.187 95.250 C 149.564 98.138, 147.447 108.150, 145.483 117.500 C 141.019 138.744, 136.135 161.786, 135.468 164.750 L 134.962 167 148.966 167 L 162.969 167 162.474 172.750 C 161.731 181.370, 159.159 217.105, 158.460 228.500 L 157.847 238.500 161.226 232.500 C 163.084 229.200, 168.813 218.625, 173.957 209 C 179.101 199.375, 184.758 188.800, 186.529 185.500 C 206.432 148.407, 214 134.111, 214 133.604 C 214 133.272, 206.800 133, 198 133 C 189.200 133, 182 132.817, 182 132.592 C 182 132.010, 189.929 115.175, 195.467 104 C 198.056 98.775, 200.574 93.487, 201.063 92.250 L 201.950 90 176.634 90 L 151.318 90 150.187 95.250 M 107.604 182.367 C 106.629 184.921, 103.817 189.745, 101.355 193.089 C 91.995 205.805, 90.241 212.372, 94.185 219.941 C 96.964 225.273, 100.214 227.811, 105.897 229.088 C 114.332 230.983, 122.460 226.599, 125.560 218.481 C 128.430 210.967, 126.623 205.379, 117.106 192.335 C 114.310 188.503, 111.427 183.648, 110.700 181.547 L 109.377 177.725 107.604 182.367 M 52 180.265 C 52 182.191, 48.516 188.279, 44.031 194.189 C 33.924 207.509, 33.245 217.980, 42.010 225.355 C 53.133 234.715, 70 227.018, 70 212.582 C 70 206.674, 68.200 202.408, 62.677 195.229 C 57.911 189.033, 54 182.289, 54 180.265 C 54 179.569, 53.550 179, 53 179 C 52.450 179, 52 179.569, 52 180.265" stroke="none" fill="#2469b1" fill-rule="evenodd"/></svg>