<svg xmlns="http://www.w3.org/2000/svg" width="305" height="280" viewBox="0 0 305 280" version="1.1"><path d="M 130.500 12.954 C 114.070 16.485, 98.446 28.526, 91.204 43.237 L 87.942 49.863 82.221 47.188 C 58.577 36.133, 29.947 59.494, 36.801 84.250 C 37.736 87.627, 37.651 88, 35.948 88 C -1.560 88, -1.644 152.814, 35.853 161.640 C 44.435 163.660, 187.679 163.563, 197.270 161.531 C 247.882 150.806, 250.333 75.918, 200.481 63.406 C 198.840 62.994, 197.788 61.872, 197.415 60.139 C 190.326 27.163, 160.907 6.419, 130.500 12.954 M 249 107.500 L 249 116 252.322 116 C 283.330 116, 290.779 162.080, 262 175.866 L 256.500 178.500 167.750 178.781 L 79 179.062 79 187.031 L 79 195 167.250 194.988 C 240.547 194.978, 256.410 194.734, 260.869 193.547 C 309.216 180.679, 308.506 111.995, 259.907 100.540 C 248.655 97.888, 249 97.667, 249 107.500 M 79 218.943 L 79 226.950 132.750 227.225 C 184.699 227.491, 186.591 227.567, 189.217 229.500 C 197.583 235.658, 196.470 248.960, 187.216 253.418 C 179.167 257.296, 169.390 252.604, 167.490 243.953 L 166.841 241 158.921 241 L 151 241 151.001 244.250 C 151.004 258.662, 167.148 271.831, 183.523 270.780 C 212.873 268.897, 221.639 228.749, 195.824 214.449 L 190.500 211.500 134.750 211.218 L 79 210.936 79 218.943" stroke="none" fill="#daddde" fill-rule="evenodd"/><path d="M -0 140.003 L -0 280.006 152.750 279.753 L 305.500 279.500 305.753 139.750 L 306.007 0 153.003 0 L 0 0 -0 140.003 M 0.486 140.500 C 0.486 217.500, 0.605 248.852, 0.750 210.172 C 0.895 171.491, 0.895 108.491, 0.750 70.172 C 0.605 31.852, 0.486 63.500, 0.486 140.500 M 130.500 12.954 C 114.070 16.485, 98.446 28.526, 91.204 43.237 L 87.942 49.863 82.221 47.188 C 58.577 36.133, 29.947 59.494, 36.801 84.250 C 37.736 87.627, 37.651 88, 35.948 88 C -1.560 88, -1.644 152.814, 35.853 161.640 C 44.435 163.660, 187.679 163.563, 197.270 161.531 C 247.882 150.806, 250.333 75.918, 200.481 63.406 C 198.840 62.994, 197.788 61.872, 197.415 60.139 C 190.326 27.163, 160.907 6.419, 130.500 12.954 M 249 107.500 L 249 116 252.322 116 C 283.330 116, 290.779 162.080, 262 175.866 L 256.500 178.500 167.750 178.781 L 79 179.062 79 187.031 L 79 195 167.250 194.988 C 240.547 194.978, 256.410 194.734, 260.869 193.547 C 309.216 180.679, 308.506 111.995, 259.907 100.540 C 248.655 97.888, 249 97.667, 249 107.500 M 79 218.943 L 79 226.950 132.750 227.225 C 184.699 227.491, 186.591 227.567, 189.217 229.500 C 197.583 235.658, 196.470 248.960, 187.216 253.418 C 179.167 257.296, 169.390 252.604, 167.490 243.953 L 166.841 241 158.921 241 L 151 241 151.001 244.250 C 151.004 258.662, 167.148 271.831, 183.523 270.780 C 212.873 268.897, 221.639 228.749, 195.824 214.449 L 190.500 211.500 134.750 211.218 L 79 210.936 79 218.943" stroke="none" fill="#1463ad" fill-rule="evenodd"/></svg>