<svg xmlns="http://www.w3.org/2000/svg" width="247" height="238" viewBox="0 0 247 238" version="1.1"><path d="M 105.500 6.599 C 82.587 11.704, 65.450 30.925, 62.566 54.750 L 61.931 60 69.947 60 C 78.816 60, 78.052 60.643, 79.451 52 C 80.429 45.960, 84.718 38.187, 89.970 32.935 C 111.625 11.279, 148.138 22.372, 155.068 52.712 C 159.585 72.486, 144.729 94.069, 123.880 98.023 C 120.917 98.585, 95.405 99, 63.864 99 L 9 99 9 107 L 9 115 65.840 115 C 119.197 115, 123.154 114.879, 130.415 113.022 C 140.230 110.511, 146.864 106.914, 154.241 100.103 C 164.868 90.290, 172 74.184, 172 60 C 172 52.789, 168.825 40.287, 165.393 33.980 C 154.061 13.161, 128.498 1.474, 105.500 6.599 M 189 59.749 L 189 67.773 193.257 68.411 C 203.576 69.959, 213.423 77.171, 218.012 86.542 C 221.581 93.830, 221.517 105.373, 217.865 113 C 214.476 120.076, 208.919 125.649, 202 128.909 L 196.500 131.500 102.750 131.779 L 9 132.059 9 140.029 L 9 148 101.250 147.985 C 179.996 147.973, 194.438 147.749, 199.907 146.460 C 217.258 142.370, 230.935 128.866, 235.508 111.307 C 242.675 83.794, 223.147 55.738, 194.486 52.369 L 189 51.725 189 59.749 M 9 171.463 L 9 180 67.250 180.004 C 123.259 180.007, 125.623 180.083, 128.701 181.960 C 139.229 188.378, 135.776 205.263, 123.464 207.573 C 116.560 208.868, 109.011 203.877, 107.505 197.024 L 106.841 194 98.921 194 C 91.171 194, 91 194.053, 91 196.462 C 91 200.636, 94.837 209.450, 98.534 213.768 C 100.469 216.029, 104.627 219.143, 107.776 220.689 C 112.619 223.067, 114.731 223.497, 121.500 223.481 C 128.222 223.464, 130.321 223.031, 134.638 220.771 C 137.464 219.291, 141.624 215.924, 143.883 213.290 C 149.404 206.850, 151.372 200.672, 150.784 191.621 C 150.028 179.958, 144.676 171.936, 134.216 166.785 L 127.545 163.500 68.273 163.213 L 9 162.925 9 171.463" stroke="none" fill="#f3f9fa" fill-rule="evenodd"/><path d="M -0 119.004 L -0 238.008 123.750 237.754 L 247.500 237.500 247.754 118.750 L 248.008 0 124.004 0 L 0 0 -0 119.004 M 0.484 119.500 C 0.484 184.950, 0.604 211.578, 0.750 178.673 C 0.896 145.768, 0.896 92.218, 0.750 59.673 C 0.604 27.128, 0.484 54.050, 0.484 119.500 M 105.500 6.599 C 82.587 11.704, 65.450 30.925, 62.566 54.750 L 61.931 60 69.947 60 C 78.816 60, 78.052 60.643, 79.451 52 C 80.429 45.960, 84.718 38.187, 89.970 32.935 C 111.625 11.279, 148.138 22.372, 155.068 52.712 C 159.585 72.486, 144.729 94.069, 123.880 98.023 C 120.917 98.585, 95.405 99, 63.864 99 L 9 99 9 107 L 9 115 65.840 115 C 119.197 115, 123.154 114.879, 130.415 113.022 C 140.230 110.511, 146.864 106.914, 154.241 100.103 C 164.868 90.290, 172 74.184, 172 60 C 172 52.789, 168.825 40.287, 165.393 33.980 C 154.061 13.161, 128.498 1.474, 105.500 6.599 M 189 59.749 L 189 67.773 193.257 68.411 C 203.576 69.959, 213.423 77.171, 218.012 86.542 C 221.581 93.830, 221.517 105.373, 217.865 113 C 214.476 120.076, 208.919 125.649, 202 128.909 L 196.500 131.500 102.750 131.779 L 9 132.059 9 140.029 L 9 148 101.250 147.985 C 179.996 147.973, 194.438 147.749, 199.907 146.460 C 217.258 142.370, 230.935 128.866, 235.508 111.307 C 242.675 83.794, 223.147 55.738, 194.486 52.369 L 189 51.725 189 59.749 M 9 171.463 L 9 180 67.250 180.004 C 123.259 180.007, 125.623 180.083, 128.701 181.960 C 139.229 188.378, 135.776 205.263, 123.464 207.573 C 116.560 208.868, 109.011 203.877, 107.505 197.024 L 106.841 194 98.921 194 C 91.171 194, 91 194.053, 91 196.462 C 91 200.636, 94.837 209.450, 98.534 213.768 C 100.469 216.029, 104.627 219.143, 107.776 220.689 C 112.619 223.067, 114.731 223.497, 121.500 223.481 C 128.222 223.464, 130.321 223.031, 134.638 220.771 C 137.464 219.291, 141.624 215.924, 143.883 213.290 C 149.404 206.850, 151.372 200.672, 150.784 191.621 C 150.028 179.958, 144.676 171.936, 134.216 166.785 L 127.545 163.500 68.273 163.213 L 9 162.925 9 171.463" stroke="none" fill="#3173b8" fill-rule="evenodd"/></svg>